999
dxflib 2.0.4.8
  0
SECTION
  2
HEADER
  9
$ACADVER
  1
AC1015
  9
$HANDSEED
  5
FFFF
  9
$DIMTAD
 70
1
  9
$DIMTDEC
 70
2
  9
$USERR4
 40
0.0
  9
$CLAYER
  8
CARTE
  9
$DIMALTZ
 70
0
  9
$MENU
  1
.
  9
$CHAMFERA
 40
0.0
  9
$UCSYDIR
 10
0.0
 20
1.0
 30
0.0
  9
$USERR5
 40
0.0
  9
$SHADEDIF
 70
70
  9
$TILEMODE
 70
1
  9
$VISRETAIN
 70
1
  9
$CMLSTYLE
  2
Standard
  9
$EXTMIN
 10
551.8405582168929868
 20
930.7906386582966434
 30
0.0
  9
$ORTHOMODE
 70
0
  9
$REGENMODE
 70
1
  9
$TRACEWID
 40
1.0
  9
$DIMASZ
 40
2.5
  9
$DIMUPT
 70
0
  9
$DIMADEC
 70
0
  9
$CHAMFERB
 40
0.0
  9
$UCSXDIR
 10
1.0
 20
0.0
 30
0.0
  9
$OLESTARTUP
290
0
  9
$DIMSHO
 70
1
  9
$DIMALT
 70
0
  9
$DIMSAH
 70
0
  9
$DIMTFAC
 40
1.0
  9
$DIMGAP
 40
0.625
  9
$SKETCHINC
 40
1.0
  9
$CHAMFERC
 40
0.0
  9
$USRTIMER
 70
1
  9
$ANGBASE
 50
0.0
  9
$PUCSYDIR
 10
0.0
 20
1.0
 30
0.0
  9
$CMLJUST
 70
0
  9
$MEASUREMENT
 70
1
  9
$ENDCAPS
280
0
  9
$LIMMIN
 10
0.0
 20
0.0
  9
$DIMTSZ
 40
0.0
  9
$DIMALTTD
 70
3
  9
$DIMALTRND
 40
0.0
  9
$CHAMFERD
 40
0.0
  9
$SPLFRAME
 70
0
  9
$SURFTYPE
 70
6
  9
$PUCSXDIR
 10
1.0
 20
0.0
 30
0.0
  9
$LWDISPLAY
290
0
  9
$VERSIONGUID
  2
{E3B7008D-84B2-4C22-BD59-B9A3F775D9B5}
  9
$DWGCODEPAGE
  3
ANSI_1252
  9
$LUNITS
 70
2
  9
$AUPREC
 70
0
  9
$SPLINESEGS
 70
8
  9
$SURFTAB1
 70
6
  9
$CELWEIGHT
370
-1
  9
$INSBASE
 10
0.0
 20
0.0
 30
0.0
  9
$DIMRND
 40
0.0
  9
$DIMCEN
 40
2.5
  9
$DIMDSEP
 70
44
  9
$ELEVATION
 40
0.0
  9
$SKPOLY
 70
0
  9
$TDUCREATE
 40
2454481.7984312609769404
  9
$TDUUPDATE
 40
2454560.9127075118012726
  9
$SURFTAB2
 70
6
  9
$UCSORTHOVIEW
 70
0
  9
$USERI1
 70
0
  9
$UNITMODE
 70
0
  9
$PSTYLEMODE
290
1
  9
$EXTMAX
 10
856.6522328842927436
 20
1184.0791728883089036
 30
0.0
  9
$FILLMODE
 70
1
  9
$TEXTSIZE
 40
2.5
  9
$DIMEXO
 40
0.625
  9
$PELEVATION
 40
0.0
  9
$UCSORG
 10
0.0
 20
0.0
 30
0.0
  9
$UCSORGRIGHT
 10
0.0
 20
0.0
 30
0.0
  9
$USERI2
 70
0
  9
$INSUNITS
 70
4
  9
$DIMSCALE
 40
1.0
  9
$DIMDLE
 40
0.0
  9
$DIMZIN
 70
8
  9
$DIMTOLJ
 70
0
  9
$DIMTZIN
 70
8
  9
$DIMLWD
 70
-2
  9
$TDUSRTIMER
 40
0.1447205903
  9
$ANGDIR
 70
0
  9
$SURFU
 70
6
  9
$PUCSORGBOTTOM
 10
0.0
 20
0.0
 30
0.0
  9
$USERI3
 70
0
  9
$JOINSTYLE
280
0
  9
$ACADMAINTVER
 70
20
  9
$LIMMAX
 10
420.0
 20
297.0
  9
$QTEXTMODE
 70
0
  9
$DIMJUST
 70
0
  9
$DIMALTTZ
 70
0
  9
$DIMATFIT
 70
3
  9
$DIMLUNIT
 70
2
  9
$DIMLWE
 70
-2
  9
$SURFV
 70
6
  9
$USERI4
 70
0
  9
$WORLDVIEW
 70
1
  9
$GRIDMODE
 70
1
  9
$ATTMODE
 70
1
  9
$DIMTXT
 40
2.5
  9
$DIMLIM
 70
0
  9
$DIMSE1
 70
0
  9
$DIMAZIN
 70
0
  9
$THICKNESS
 40
0.0
  9
$LIMCHECK
 70
0
  9
$PDMODE
 70
0
  9
$UCSORGTOP
 10
0.0
 20
0.0
 30
0.0
  9
$USERI5
 70
0
  9
$PROXYGRAPHICS
 70
1
  9
$EXTNAMES
290
1
  9
$CELTYPE
  6
ByLayer
  9
$DIMTOH
 70
0
  9
$DIMSE2
 70
0
  9
$DIMLFAC
 40
1.0
  9
$DIMSOXD
 70
0
  9
$LUPREC
 70
4
  9
$TDINDWG
 40
0.1447302083
  9
$SPLINETYPE
 70
6
  9
$PUCSORG
 10
0.0
 20
0.0
 30
0.0
  9
$PEXTMIN
 10
0.0
 20
0.0
 30
0.0
  9
$PEXTMAX
 10
0.0
 20
0.0
 30
0.0
  9
$XEDIT
290
1
  9
$CECOLOR
 62
256
  9
$DISPSILH
 70
0
  9
$DIMDLI
 40
3.75
  9
$DIMTM
 40
0.0
  9
$DIMASO
 70
1
  9
$DIMTVP
 40
0.0
  9
$DIMSTYLE
  2
ISO-25
  9
$DIMFRAC
 70
0
  9
$PLINEWID
 40
0.0
  9
$PUCSORGRIGHT
 10
0.0
 20
0.0
 30
0.0
  9
$PLIMCHECK
 70
0
  9
$FINGERPRINTGUID
  2
{F643565D-4E8B-4F95-A333-AD1139C4F707}
  9
$PSVPSCALE
 40
0.0
  9
$LTSCALE
 40
1.0
  9
$DIMTIH
 70
0
  9
$DIMALTD
 70
3
  9
$DIMCLRT
 70
0
  9
$DIMDEC
 70
2
  9
$DIMALTU
 70
2
  9
$FILLETRAD
 40
0.0
  9
$TDUPDATE
 40
2454560.9960408448241651
  9
$UCSORGLEFT
 10
0.0
 20
0.0
 30
0.0
  9
$UCSORGBACK
 10
0.0
 20
0.0
 30
0.0
  9
$MAXACTVP
 70
64
  9
$PLIMMIN
 10
0.0
 20
0.0
  9
$PLIMMAX
 10
12.0
 20
9.0
  9
$TREEDEPTH
 70
3020
  9
$CELTSCALE
 40
1.0
  9
$DIMEXE
 40
1.25
  9
$DIMCLRD
 70
0
  9
$DIMTXSTY
  7
Standard
  9
$PDSIZE
 40
0.0
  9
$PUCSORTHOVIEW
 70
0
  9
$USERR1
 40
0.0
  9
$PINSBASE
 10
0.0
 20
0.0
 30
0.0
  9
$CMLSCALE
 40
20.0
  9
$CEPSNTYPE
380
0
  9
$TEXTSTYLE
  7
Standard
  9
$DIMTP
 40
0.0
  9
$DIMTOL
 70
0
  9
$DIMALTF
 40
0.03937007874016
  9
$DIMTOFL
 70
1
  9
$DIMCLRE
 70
0
  9
$DIMSD1
 70
0
  9
$DIMAUNIT
 70
0
  9
$DIMTMOVE
 70
0
  9
$TDCREATE
 40
2454481.8817645949311554
  9
$UCSORGFRONT
 10
0.0
 20
0.0
 30
0.0
  9
$PUCSORGTOP
 10
0.0
 20
0.0
 30
0.0
  9
$USERR2
 40
0.0
  9
$SHADEDGE
 70
3
  9
$PLINEGEN
 70
0
  9
$PSLTSCALE
 70
1
  9
$MIRRTEXT
 70
0
  9
$DIMTIX
 70
0
  9
$DIMSD2
 70
0
  9
$AUNITS
 70
0
  9
$UCSORGBOTTOM
 10
0.0
 20
0.0
 30
0.0
  9
$PUCSORGLEFT
 10
0.0
 20
0.0
 30
0.0
  9
$PUCSORGFRONT
 10
0.0
 20
0.0
 30
0.0
  9
$PUCSORGBACK
 10
0.0
 20
0.0
 30
0.0
  9
$USERR3
 40
0.0
  0
ENDSEC
  0
SECTION
  2
TABLES
  0
TABLE
  2
VPORT
  5
8
100
AcDbSymbolTable
 70
1
  0
VPORT
  5
30
100
AcDbSymbolTableRecord
100
AcDbViewportTableRecord
  2
*Active
 70
0
 10
0.0
 20
0.0
 11
1.0
 21
1.0
 12
286.3055555555554861
 22
148.5
 13
0.0
 23
0.0
 14
10.0
 24
10.0
 15
10.0
 25
10.0
 16
0.0
 26
0.0
 36
1.0
 17
0.0
 27
0.0
 37
0.0
 40
297.0
 41
1.92798353909465
 42
50.0
 43
0.0
 44
0.0
 50
0.0
 51
0.0
 71
0
 72
100
 73
1
 74
3
 75
1
 76
1
 77
0
 78
0
281
0
 65
1
110
0.0
120
0.0
130
0.0
111
1.0
121
0.0
131
0.0
112
0.0
122
1.0
132
0.0
 79
0
146
0.0
  0
ENDTAB
  0
TABLE
  2
LTYPE
  5
5
100
AcDbSymbolTable
 70
21
  0
LTYPE
  5
14
100
AcDbSymbolTableRecord
100
AcDbLinetypeTableRecord
  2
ByBlock
 70
0
  3

 72
65
 73
0
 40
0.0
  0
LTYPE
  5
15
100
AcDbSymbolTableRecord
100
AcDbLinetypeTableRecord
  2
ByLayer
 70
0
  3

 72
65
 73
0
 40
0.0
  0
LTYPE
  5
16
100
AcDbSymbolTableRecord
100
AcDbLinetypeTableRecord
  2
CONTINUOUS
 70
0
  3
Solid line
 72
65
 73
0
 40
0.0
  0
LTYPE
  5
31
100
AcDbSymbolTableRecord
100
AcDbLinetypeTableRecord
  2
DOT
 70
0
  3
Dot . . . . . . . . . . . . . . . . . . . . . .
 72
65
 73
2
 40
6.3499999999999996
 49
0.0
 74
0
 49
-6.3499999999999996
 74
0
  0
LTYPE
  5
32
100
AcDbSymbolTableRecord
100
AcDbLinetypeTableRecord
  2
DOT2
 70
0
  3
Dot (.5x) .....................................
 72
65
 73
2
 40
3.1749999999999998
 49
0.0
 74
0
 49
-3.1749999999999998
 74
0
  0
LTYPE
  5
33
100
AcDbSymbolTableRecord
100
AcDbLinetypeTableRecord
  2
DOTX2
 70
0
  3
Dot (2x) .  .  .  .  .  .  .  .  .  .  .  .  .
 72
65
 73
2
 40
12.6999999999999993
 49
0.0
 74
0
 49
-12.6999999999999993
 74
0
  0
LTYPE
  5
34
100
AcDbSymbolTableRecord
100
AcDbLinetypeTableRecord
  2
DASHED
 70
0
  3
Dashed __ __ __ __ __ __ __ __ __ __ __ __ __ _
 72
65
 73
2
 40
19.0500000000000007
 49
12.6999999999999993
 74
0
 49
-6.3499999999999996
 74
0
  0
LTYPE
  5
35
100
AcDbSymbolTableRecord
100
AcDbLinetypeTableRecord
  2
DASHED2
 70
0
  3
Dashed (.5x) _ _ _ _ _ _ _ _ _ _ _ _ _ _ _ _ _
 72
65
 73
2
 40
9.5250000000000004
 49
6.3499999999999996
 74
0
 49
-3.1749999999999998
 74
0
  0
LTYPE
  5
36
100
AcDbSymbolTableRecord
100
AcDbLinetypeTableRecord
  2
DASHEDX2
 70
0
  3
Dashed (2x) ____  ____  ____  ____  ____  ___
 72
65
 73
2
 40
38.1000000000000014
 49
25.3999999999999986
 74
0
 49
-12.6999999999999993
 74
0
  0
LTYPE
  5
37
100
AcDbSymbolTableRecord
100
AcDbLinetypeTableRecord
  2
DASHDOT
 70
0
  3
Dash dot __ . __ . __ . __ . __ . __ . __ . __
 72
65
 73
4
 40
25.3999999999999986
 49
12.6999999999999993
 74
0
 49
-6.3499999999999996
 74
0
 49
0.0
 74
0
 49
-6.3499999999999996
 74
0
  0
LTYPE
  5
38
100
AcDbSymbolTableRecord
100
AcDbLinetypeTableRecord
  2
DASHDOT2
 70
0
  3
Dash dot (.5x) _._._._._._._._._._._._._._._.
 72
65
 73
4
 40
12.6999999999999993
 49
6.3499999999999996
 74
0
 49
-3.1749999999999998
 74
0
 49
0.0
 74
0
 49
-3.1749999999999998
 74
0
  0
LTYPE
  5
39
100
AcDbSymbolTableRecord
100
AcDbLinetypeTableRecord
  2
DASHDOTX2
 70
0
  3
Dash dot (2x) ____  .  ____  .  ____  .  ___
 72
65
 73
4
 40
50.7999999999999972
 49
25.3999999999999986
 74
0
 49
-12.6999999999999993
 74
0
 49
0.0
 74
0
 49
-12.6999999999999993
 74
0
  0
LTYPE
  5
3A
100
AcDbSymbolTableRecord
100
AcDbLinetypeTableRecord
  2
DIVIDE
 70
0
  3
Divide ____ . . ____ . . ____ . . ____ . . ____
 72
65
 73
6
 40
31.75
 49
12.6999999999999993
 74
0
 49
-6.3499999999999996
 74
0
 49
0.0
 74
0
 49
-6.3499999999999996
 74
0
 49
0.0
 74
0
 49
-6.3499999999999996
 74
0
  0
LTYPE
  5
3B
100
AcDbSymbolTableRecord
100
AcDbLinetypeTableRecord
  2
DIVIDE2
 70
0
  3
Divide (.5x) __..__..__..__..__..__..__..__.._
 72
65
 73
6
 40
15.875
 49
6.3499999999999996
 74
0
 49
-3.1749999999999998
 74
0
 49
0.0
 74
0
 49
-3.1749999999999998
 74
0
 49
0.0
 74
0
 49
-3.1749999999999998
 74
0
  0
LTYPE
  5
3C
100
AcDbSymbolTableRecord
100
AcDbLinetypeTableRecord
  2
DIVIDEX2
 70
0
  3
Divide (2x) ________  .  .  ________  .  .  _
 72
65
 73
6
 40
63.5
 49
25.3999999999999986
 74
0
 49
-12.6999999999999993
 74
0
 49
0.0
 74
0
 49
-12.6999999999999993
 74
0
 49
0.0
 74
0
 49
-12.6999999999999993
 74
0
  0
LTYPE
  5
3D
100
AcDbSymbolTableRecord
100
AcDbLinetypeTableRecord
  2
CENTER
 70
0
  3
Center ____ _ ____ _ ____ _ ____ _ ____ _ ____
 72
65
 73
4
 40
50.7999999999999972
 49
31.75
 74
0
 49
-6.3499999999999996
 74
0
 49
6.3499999999999996
 74
0
 49
-6.3499999999999996
 74
0
  0
LTYPE
  5
3E
100
AcDbSymbolTableRecord
100
AcDbLinetypeTableRecord
  2
CENTER2
 70
0
  3
Center (.5x) ___ _ ___ _ ___ _ ___ _ ___ _ ___
 72
65
 73
4
 40
28.5749999999999993
 49
19.0500000000000007
 74
0
 49
-3.1749999999999998
 74
0
 49
3.1749999999999998
 74
0
 49
-3.1749999999999998
 74
0
  0
LTYPE
  5
3F
100
AcDbSymbolTableRecord
100
AcDbLinetypeTableRecord
  2
CENTERX2
 70
0
  3
Center (2x) ________  __  ________  __  _____
 72
65
 73
4
 40
101.5999999999999943
 49
63.5
 74
0
 49
-12.6999999999999993
 74
0
 49
12.6999999999999993
 74
0
 49
-12.6999999999999993
 74
0
  0
LTYPE
  5
40
100
AcDbSymbolTableRecord
100
AcDbLinetypeTableRecord
  2
BORDER
 70
0
  3
Border __ __ . __ __ . __ __ . __ __ . __ __ .
 72
65
 73
6
 40
44.4500000000000028
 49
12.6999999999999993
 74
0
 49
-6.3499999999999996
 74
0
 49
12.6999999999999993
 74
0
 49
-6.3499999999999996
 74
0
 49
0.0
 74
0
 49
-6.3499999999999996
 74
0
  0
LTYPE
  5
41
100
AcDbSymbolTableRecord
100
AcDbLinetypeTableRecord
  2
BORDER2
 70
0
  3
Border (.5x) __.__.__.__.__.__.__.__.__.__.__.
 72
65
 73
6
 40
22.2250000000000014
 49
6.3499999999999996
 74
0
 49
-3.1749999999999998
 74
0
 49
6.3499999999999996
 74
0
 49
-3.1749999999999998
 74
0
 49
0.0
 74
0
 49
-3.1749999999999998
 74
0
  0
LTYPE
  5
42
100
AcDbSymbolTableRecord
100
AcDbLinetypeTableRecord
  2
BORDERX2
 70
0
  3
Border (2x) ____  ____  .  ____  ____  .  ___
 72
65
 73
6
 40
88.9000000000000057
 49
25.3999999999999986
 74
0
 49
-12.6999999999999993
 74
0
 49
25.3999999999999986
 74
0
 49
-12.6999999999999993
 74
0
 49
0.0
 74
0
 49
-12.6999999999999993
 74
0
  0
ENDTAB
  0
TABLE
  2
LAYER
  5
2
100
AcDbSymbolTable
 70
2
  0
LAYER
  5
10
100
AcDbSymbolTableRecord
100
AcDbLayerTableRecord
  2
0
 70
0
 62
7
  6
CONTINUOUS
370
-3
390
F
  0
LAYER
  5
43
100
AcDbSymbolTableRecord
100
AcDbLayerTableRecord
  2
PLEXY
 70
0
 62
3
  6
CONTINUOUS
370
-3
390
F
  0
ENDTAB
  0
TABLE
  2
STYLE
  5
3
100
AcDbSymbolTable
 70
1
  0
STYLE
  5
11
100
AcDbSymbolTableRecord
100
AcDbTextStyleTableRecord
  2
Standard
 70
0
 40
0.0
 41
0.75
 50
0.0
 71
0
 42
2.5
  3
txt
  4

  0
ENDTAB
  0
TABLE
  2
VIEW
  5
6
100
AcDbSymbolTable
 70
0
  0
ENDTAB
  0
TABLE
  2
UCS
  5
7
100
AcDbSymbolTable
 70
0
  0
ENDTAB
  0
TABLE
  2
APPID
  5
9
100
AcDbSymbolTable
 70
1
  0
APPID
  5
12
100
AcDbSymbolTableRecord
100
AcDbRegAppTableRecord
  2
ACAD
 70
0
  0
ENDTAB
  0
TABLE
  2
DIMSTYLE
  5
A
100
AcDbSymbolTable
 70
1
100
AcDbDimStyleTable
 71
0
  0
DIMSTYLE
105
27
100
AcDbSymbolTableRecord
100
AcDbDimStyleTableRecord
  2
Standard
 41
2.5
 42
0.625
 43
3.75
 44
1.25
 70
0
 73
0
 74
0
 77
1
 78
8
140
2.5
141
2.5
143
0.03937007874016
147
0.625
171
3
172
1
271
2
272
2
274
3
278
44
283
0
284
8
340
11
  0
ENDTAB
  0
TABLE
  2
BLOCK_RECORD
  5
1
100
AcDbSymbolTable
 70
1
  0
BLOCK_RECORD
  5
1F
100
AcDbSymbolTableRecord
100
AcDbBlockTableRecord
  2
*Model_Space
340
22
  0
BLOCK_RECORD
  5
1B
100
AcDbSymbolTableRecord
100
AcDbBlockTableRecord
  2
*Paper_Space
340
1E
  0
BLOCK_RECORD
  5
23
100
AcDbSymbolTableRecord
100
AcDbBlockTableRecord
  2
*Paper_Space0
340
26
  0
ENDTAB
  0
ENDSEC
  0
SECTION
  2
BLOCKS
  0
BLOCK
  5
20
100
AcDbEntity
  8
0
100
AcDbBlockBegin
  2
*Model_Space
 70
0
 10
0.0
 20
0.0
 30
0.0
  3
*Model_Space
  1

  0
ENDBLK
  5
21
100
AcDbEntity
  8
0
100
AcDbBlockEnd
  0
BLOCK
  5
1C
100
AcDbEntity
 67
1
  8
0
100
AcDbBlockBegin
  2
*Paper_Space
 70
0
 10
0.0
 20
0.0
 30
0.0
  3
*Paper_Space
  1

  0
ENDBLK
  5
1D
100
AcDbEntity
 67
1
  8
0
100
AcDbBlockEnd
  0
BLOCK
  5
24
100
AcDbEntity
  8
0
100
AcDbBlockBegin
  2
*Paper_Space0
 70
0
 10
0.0
 20
0.0
 30
0.0
  3
*Paper_Space0
  1

  0
ENDBLK
  5
25
100
AcDbEntity
  8
0
100
AcDbBlockEnd
  0
ENDSEC
  0
SECTION
  2
ENTITIES
  0
CIRCLE
  5
44
100
AcDbEntity
100
AcDbCircle
  8
PLEXY
 62
256
370
-1
  6
ByLayer
 10
70.0000000000001137
 20
90.907243205724626
 30
0.0
 40
8.0
  0
CIRCLE
  5
45
100
AcDbEntity
100
AcDbCircle
  8
PLEXY
 62
256
370
-1
  6
ByLayer
 10
55.0
 20
94.907243205724626
 30
0.0
 40
1.25
  0
CIRCLE
  5
46
100
AcDbEntity
100
AcDbCircle
  8
PLEXY
 62
256
370
-1
  6
ByLayer
 10
70.0000000000001137
 20
75.9072432057247397
 30
0.0
 40
1.25
  0
CIRCLE
  5
47
100
AcDbEntity
100
AcDbCircle
  8
PLEXY
 62
256
370
-1
  6
ByLayer
 10
70.0000000000001137
 20
47.4072432057248534
 30
0.0
 40
1.25
  0
LINE
  5
48
100
AcDbEntity
100
AcDbLine
  8
PLEXY
 62
256
370
-1
  6
ByLayer
 10
112.5607920382950624
 20
98.1087814014006199
 30
0.0
 11
112.5607920382950624
 21
104.1087814014006199
 31
0.0
  0
LINE
  5
49
100
AcDbEntity
100
AcDbLine
  8
PLEXY
 62
256
370
-1
  6
ByLayer
 10
113.5607920382950624
 20
98.1087814014006199
 30
0.0
 11
113.5607920382950624
 21
104.1087814014006199
 31
0.0
  0
LINE
  5
4A
100
AcDbEntity
100
AcDbLine
  8
PLEXY
 62
256
370
-1
  6
ByLayer
 10
120.5607920382950624
 20
98.1087814014006199
 30
0.0
 11
120.5607920382950624
 21
104.1087814014006199
 31
0.0
  0
LINE
  5
4B
100
AcDbEntity
100
AcDbLine
  8
PLEXY
 62
256
370
-1
  6
ByLayer
 10
119.5607920382951761
 20
98.1087814014006199
 30
0.0
 11
119.5607920382951761
 21
104.1087814014006199
 31
0.0
  0
ELLIPSE
  5
4C
100
AcDbEntity
100
AcDbEllipse
  8
PLEXY
 62
256
370
-1
  6
ByLayer
 10
116.5607920382949487
 20
98.1087814014006199
 30
0.0
 11
-4.0
 21
0.0000000000000002
 31
0.0
 40
0.75
 41
0.0
 42
3.1415926535897931
  0
SPLINE
  5
4D
  8
PLEXY
 62
256
370
-1
  6
ByLayer
100
AcDbEntity
100
AcDbSpline
 70
8
 71
3
 72
24
 73
20
 74
0
 40
0.0
 40
0.0
 40
0.0
 40
0.0
 40
0.0588235294117647
 40
0.1176470588235294
 40
0.1764705882352941
 40
0.2352941176470588
 40
0.2941176470588235
 40
0.3529411764705883
 40
0.4117647058823529
 40
0.4705882352941176
 40
0.5294117647058824
 40
0.5882352941176471
 40
0.6470588235294118
 40
0.7058823529411765
 40
0.7647058823529411
 40
0.8235294117647058
 40
0.8823529411764706
 40
0.9411764705882353
 40
1.0
 40
1.0
 40
1.0
 40
1.0
 10
113.5607920382950624
 20
98.1087814014006199
 30
0.0
 10
113.5607920382950624
 20
97.9092501978095697
 30
0.0
 10
113.6071068531922492
 20
97.7079747965016168
 30
0.0
 10
113.8133619318667797
 20
97.2959478316255399
 30
0.0
 10
113.9757674455864844
 20
97.0860193637505517
 30
0.0
 10
114.424843255064161
 20
96.7006949223235779
 30
0.0
 10
114.7111013754207534
 20
96.5267773177486106
 30
0.0
 10
115.3699861740614097
 20
96.2610801938875511
 30
0.0
 10
115.7419026402585587
 20
96.1695875870535701
 30
0.0
 10
116.5109700061888134
 20
96.0917295399056002
 30
0.0
 10
116.9076453346065136
 20
96.1053786832355854
 30
0.0
 10
117.6603280898676758
 20
96.2345723864546017
 30
0.0
 10
118.0158220926255126
 20
96.3500795682145963
 30
0.0
 10
118.6291836795776362
 20
96.6542007817415652
 30
0.0
 10
118.8862828634190691
 20
96.8423305324876083
 30
0.0
 10
119.2735892444075034
 20
97.2428310635605158
 30
0.0
 10
119.4038841993561846
 20
97.453403519139556
 30
0.0
 10
119.5346887493639088
 20
97.8101751415905483
 30
0.0
 10
119.5607920382951761
 20
97.9597017781385375
 30
0.0
 10
119.5607920382951761
 20
98.1087814014006199
 30
0.0
  0
ELLIPSE
  5
4E
100
AcDbEntity
100
AcDbEllipse
  8
PLEXY
 62
256
370
-1
  6
ByLayer
 10
116.5607920382949487
 20
104.1087814014006199
 30
0.0
 11
-4.0
 21
0.0000000000000002
 31
0.0
 40
0.75
 41
3.1415926535897931
 42
6.2831853071795862
  0
SPLINE
  5
4F
  8
PLEXY
 62
256
370
-1
  6
ByLayer
100
AcDbEntity
100
AcDbSpline
 70
8
 71
3
 72
24
 73
20
 74
0
 40
0.0
 40
0.0
 40
0.0
 40
0.0
 40
0.0588235294117647
 40
0.1176470588235294
 40
0.1764705882352941
 40
0.2352941176470588
 40
0.2941176470588235
 40
0.3529411764705883
 40
0.4117647058823529
 40
0.4705882352941176
 40
0.5294117647058824
 40
0.5882352941176471
 40
0.6470588235294118
 40
0.7058823529411765
 40
0.7647058823529411
 40
0.8235294117647058
 40
0.8823529411764706
 40
0.9411764705882353
 40
1.0
 40
1.0
 40
1.0
 40
1.0
 10
119.5607920382951761
 20
104.1087814014006199
 30
0.0
 10
119.5607920382951761
 20
104.3083126049925795
 30
0.0
 10
119.5144772233975345
 20
104.5095880063005325
 30
0.0
 10
119.308222144723004
 20
104.9216149711755861
 30
0.0
 10
119.1458166310031856
 20
105.1315434390505743
 30
0.0
 10
118.6967408215252817
 20
105.5168678804775482
 30
0.0
 10
118.410482701168803
 20
105.6907854850535387
 30
0.0
 10
117.7515979025281467
 20
105.9564826089144844
 30
0.0
 10
117.3796814363306567
 20
106.0479752157484654
 30
0.0
 10
116.6106140704005156
 20
106.1258332628956396
 30
0.0
 10
116.2139387419827017
 20
106.1121841195656543
 30
0.0
 10
115.4612559867215396
 20
105.9829904163475476
 30
0.0
 10
115.1057619839640438
 20
105.8674832345866434
 30
0.0
 10
114.4924003970116928
 20
105.5633620210596746
 30
0.0
 10
114.2353012131703736
 20
105.3752322703146547
 30
0.0
 10
113.8479948321819393
 20
104.9747317392416335
 30
0.0
 10
113.7176998772334855
 20
104.7641592836625932
 30
0.0
 10
113.5868953272257613
 20
104.4073876612105778
 30
0.0
 10
113.5607920382950624
 20
104.2578610246625885
 30
0.0
 10
113.5607920382950624
 20
104.1087814014006199
 30
0.0
  0
LINE
  5
50
100
AcDbEntity
100
AcDbLine
  8
PLEXY
 62
256
370
-1
  6
ByLayer
 10
112.0607920382949487
 20
82.1087814014006199
 30
0.0
 11
112.0607920382949487
 21
88.1087814014006199
 31
0.0
  0
LINE
  5
51
100
AcDbEntity
100
AcDbLine
  8
PLEXY
 62
256
370
-1
  6
ByLayer
 10
113.0607920382949487
 20
82.1087814014006199
 30
0.0
 11
113.0607920382949487
 21
88.1087814014006199
 31
0.0
  0
LINE
  5
52
100
AcDbEntity
100
AcDbLine
  8
PLEXY
 62
256
370
-1
  6
ByLayer
 10
120.0607920382950624
 20
82.1087814014006199
 30
0.0
 11
120.0607920382950624
 21
88.1087814014006199
 31
0.0
  0
LINE
  5
53
100
AcDbEntity
100
AcDbLine
  8
PLEXY
 62
256
370
-1
  6
ByLayer
 10
119.0607920382950624
 20
82.1087814014006199
 30
0.0
 11
119.0607920382950624
 21
88.1087814014006199
 31
0.0
  0
ELLIPSE
  5
54
100
AcDbEntity
100
AcDbEllipse
  8
PLEXY
 62
256
370
-1
  6
ByLayer
 10
116.0607920382950624
 20
82.1087814014006199
 30
0.0
 11
-4.0
 21
0.0000000000000002
 31
0.0
 40
0.75
 41
0.0
 42
3.1415926535897931
  0
SPLINE
  5
55
  8
PLEXY
 62
256
370
-1
  6
ByLayer
100
AcDbEntity
100
AcDbSpline
 70
8
 71
3
 72
24
 73
20
 74
0
 40
0.0
 40
0.0
 40
0.0
 40
0.0
 40
0.0588235294117647
 40
0.1176470588235294
 40
0.1764705882352941
 40
0.2352941176470588
 40
0.2941176470588235
 40
0.3529411764705883
 40
0.4117647058823529
 40
0.4705882352941176
 40
0.5294117647058824
 40
0.5882352941176471
 40
0.6470588235294118
 40
0.7058823529411765
 40
0.7647058823529411
 40
0.8235294117647058
 40
0.8823529411764706
 40
0.9411764705882353
 40
1.0
 40
1.0
 40
1.0
 40
1.0
 10
113.0607920382949487
 20
82.1087814014006199
 30
0.0
 10
113.0607920382949487
 20
81.9092501978095697
 30
0.0
 10
113.1071068531921355
 20
81.7079747965016168
 30
0.0
 10
113.3133619318668934
 20
81.2959478316255399
 30
0.0
 10
113.4757674455864844
 20
81.0860193637505517
 30
0.0
 10
113.9248432550642747
 20
80.7006949223240326
 30
0.0
 10
114.2111013754206397
 20
80.5267773177486106
 30
0.0
 10
114.8699861740614097
 20
80.2610801938873237
 30
0.0
 10
115.2419026402586724
 20
80.1695875870540249
 30
0.0
 10
116.0109700061886997
 20
80.0917295399060549
 30
0.0
 10
116.4076453346066273
 20
80.1053786832361538
 30
0.0
 10
117.1603280898676758
 20
80.234572386454829
 30
0.0
 10
117.5158220926256263
 20
80.3500795682151647
 30
0.0
 10
118.1291836795777499
 20
80.6542007817422473
 30
0.0
 10
118.3862828634190691
 20
80.8423305324872672
 30
0.0
 10
118.7735892444075034
 20
81.2428310635605158
 30
0.0
 10
118.9038841993561846
 20
81.453403519139556
 30
0.0
 10
119.0346887493639088
 20
81.8101751415905483
 30
0.0
 10
119.0607920382950624
 20
81.9597017781385375
 30
0.0
 10
119.0607920382950624
 20
82.1087814014006199
 30
0.0
  0
ELLIPSE
  5
56
100
AcDbEntity
100
AcDbEllipse
  8
PLEXY
 62
256
370
-1
  6
ByLayer
 10
116.0607920382950624
 20
88.1087814014006199
 30
0.0
 11
-4.0
 21
0.0000000000000002
 31
0.0
 40
0.75
 41
3.1415926535897931
 42
6.2831853071795862
  0
SPLINE
  5
57
  8
PLEXY
 62
256
370
-1
  6
ByLayer
100
AcDbEntity
100
AcDbSpline
 70
8
 71
3
 72
24
 73
20
 74
0
 40
0.0
 40
0.0
 40
0.0
 40
0.0
 40
0.0588235294117647
 40
0.1176470588235294
 40
0.1764705882352941
 40
0.2352941176470588
 40
0.2941176470588235
 40
0.3529411764705883
 40
0.4117647058823529
 40
0.4705882352941176
 40
0.5294117647058824
 40
0.5882352941176471
 40
0.6470588235294118
 40
0.7058823529411765
 40
0.7647058823529411
 40
0.8235294117647058
 40
0.8823529411764706
 40
0.9411764705882353
 40
1.0
 40
1.0
 40
1.0
 40
1.0
 10
119.0607920382950624
 20
88.1087814014006199
 30
0.0
 10
119.0607920382950624
 20
88.3083126049925795
 30
0.0
 10
119.0144772233976482
 20
88.5095880063005325
 30
0.0
 10
118.808222144723004
 20
88.9216149711755861
 30
0.0
 10
118.645816631003072
 20
89.1315434390505743
 30
0.0
 10
118.1967408215253954
 20
89.5168678804785714
 30
0.0
 10
117.910482701168803
 20
89.6907854850535387
 30
0.0
 10
117.2515979025282604
 20
89.9564826089156213
 30
0.0
 10
116.8796814363307703
 20
90.0479752157485791
 30
0.0
 10
116.1106140704005156
 20
90.1258332628955259
 30
0.0
 10
115.7139387419828154
 20
90.1121841195655406
 30
0.0
 10
114.9612559867215396
 20
89.9829904163475476
 30
0.0
 10
114.6057619839639301
 20
89.8674832345865298
 30
0.0
 10
113.9924003970118065
 20
89.5633620210595609
 30
0.0
 10
113.7353012131702599
 20
89.375232270314541
 30
0.0
 10
113.347994832182053
 20
88.9747317392415198
 30
0.0
 10
113.2176998772335992
 20
88.7641592836625932
 30
0.0
 10
113.0868953272257613
 20
88.4073876612105778
 30
0.0
 10
113.0607920382949487
 20
88.2578610246625885
 30
0.0
 10
113.0607920382949487
 20
88.1087814014006199
 30
0.0
  0
LINE
  5
58
100
AcDbEntity
100
AcDbLine
  8
PLEXY
 62
256
370
-1
  6
ByLayer
 10
111.0607920382950624
 20
67.1087814014010746
 30
0.0
 11
111.0607920382950624
 21
73.1087814014011883
 31
0.0
  0
LINE
  5
59
100
AcDbEntity
100
AcDbLine
  8
PLEXY
 62
256
370
-1
  6
ByLayer
 10
112.0607920382949487
 20
67.1087814014010746
 30
0.0
 11
112.0607920382949487
 21
73.1087814014011883
 31
0.0
  0
LINE
  5
5A
100
AcDbEntity
100
AcDbLine
  8
PLEXY
 62
256
370
-1
  6
ByLayer
 10
119.0607920382950624
 20
67.1087814014010746
 30
0.0
 11
119.0607920382950624
 21
73.1087814014011883
 31
0.0
  0
LINE
  5
5B
100
AcDbEntity
100
AcDbLine
  8
PLEXY
 62
256
370
-1
  6
ByLayer
 10
118.0607920382950624
 20
67.1087814014010746
 30
0.0
 11
118.0607920382950624
 21
73.1087814014011883
 31
0.0
  0
ELLIPSE
  5
5C
100
AcDbEntity
100
AcDbEllipse
  8
PLEXY
 62
256
370
-1
  6
ByLayer
 10
115.0607920382951761
 20
67.1087814014010746
 30
0.0
 11
-4.0
 21
0.0000000000000002
 31
0.0
 40
0.75
 41
0.0
 42
3.1415926535897931
  0
SPLINE
  5
5D
  8
PLEXY
 62
256
370
-1
  6
ByLayer
100
AcDbEntity
100
AcDbSpline
 70
8
 71
3
 72
24
 73
20
 74
0
 40
0.0
 40
0.0
 40
0.0
 40
0.0
 40
0.0588235294117647
 40
0.1176470588235294
 40
0.1764705882352941
 40
0.2352941176470588
 40
0.2941176470588235
 40
0.3529411764705883
 40
0.4117647058823529
 40
0.4705882352941176
 40
0.5294117647058824
 40
0.5882352941176471
 40
0.6470588235294118
 40
0.7058823529411765
 40
0.7647058823529411
 40
0.8235294117647058
 40
0.8823529411764706
 40
0.9411764705882353
 40
1.0
 40
1.0
 40
1.0
 40
1.0
 10
112.0607920382949487
 20
67.1087814014010746
 30
0.0
 10
112.0607920382949487
 20
66.9092501978096834
 30
0.0
 10
112.1071068531922492
 20
66.7079747965019578
 30
0.0
 10
112.3133619318666661
 20
66.2959478316259947
 30
0.0
 10
112.4757674455864844
 20
66.0860193637511202
 30
0.0
 10
112.9248432550642747
 20
65.7006949223240326
 30
0.0
 10
113.2111013754206397
 20
65.5267773177487243
 30
0.0
 10
113.8699861740614097
 20
65.2610801938873237
 30
0.0
 10
114.2419026402587861
 20
65.1695875870540249
 30
0.0
 10
115.0109700061888134
 20
65.0917295399061686
 30
0.0
 10
115.4076453346066273
 20
65.1053786832360402
 30
0.0
 10
116.1603280898676758
 20
65.2345723864549427
 30
0.0
 10
116.5158220926256263
 20
65.3500795682151647
 30
0.0
 10
117.1291836795777499
 20
65.654200781742361
 30
0.0
 10
117.3862828634190691
 20
65.8423305324872672
 30
0.0
 10
117.7735892444076171
 20
66.2428310635604021
 30
0.0
 10
117.9038841993561846
 20
66.4534035191393286
 30
0.0
 10
118.0346887493639088
 20
66.810175141591003
 30
0.0
 10
118.0607920382950624
 20
66.9597017781392196
 30
0.0
 10
118.0607920382950624
 20
67.1087814014010746
 30
0.0
  0
ELLIPSE
  5
5E
100
AcDbEntity
100
AcDbEllipse
  8
PLEXY
 62
256
370
-1
  6
ByLayer
 10
115.0607920382951761
 20
73.1087814014011883
 30
0.0
 11
-4.0
 21
0.0000000000000002
 31
0.0
 40
0.75
 41
3.1415926535897931
 42
6.2831853071795862
  0
SPLINE
  5
5F
  8
PLEXY
 62
256
370
-1
  6
ByLayer
100
AcDbEntity
100
AcDbSpline
 70
8
 71
3
 72
24
 73
20
 74
0
 40
0.0
 40
0.0
 40
0.0
 40
0.0
 40
0.0588235294117647
 40
0.1176470588235294
 40
0.1764705882352941
 40
0.2352941176470588
 40
0.2941176470588235
 40
0.3529411764705883
 40
0.4117647058823529
 40
0.4705882352941176
 40
0.5294117647058824
 40
0.5882352941176471
 40
0.6470588235294118
 40
0.7058823529411765
 40
0.7647058823529411
 40
0.8235294117647058
 40
0.8823529411764706
 40
0.9411764705882353
 40
1.0
 40
1.0
 40
1.0
 40
1.0
 10
118.0607920382950624
 20
73.1087814014011883
 30
0.0
 10
118.0607920382950624
 20
73.3083126049928069
 30
0.0
 10
118.0144772233976482
 20
73.5095880063001914
 30
0.0
 10
117.808222144723004
 20
73.9216149711760409
 30
0.0
 10
117.645816631003072
 20
74.1315434390510291
 30
0.0
 10
117.1967408215253954
 20
74.516867880478344
 30
0.0
 10
116.910482701168803
 20
74.6907854850536523
 30
0.0
 10
116.2515979025282604
 20
74.9564826089152803
 30
0.0
 10
115.879681436330884
 20
75.0479752157485791
 30
0.0
 10
115.1106140704005156
 20
75.125833262896208
 30
0.0
 10
114.7139387419827017
 20
75.1121841195662228
 30
0.0
 10
113.9612559867215396
 20
74.9829904163473202
 30
0.0
 10
113.6057619839640438
 20
74.8674832345873256
 30
0.0
 10
112.9924003970115791
 20
74.5633620210594472
 30
0.0
 10
112.7353012131702599
 20
74.3752322703147684
 30
0.0
 10
112.347994832182053
 20
73.9747317392415198
 30
0.0
 10
112.2176998772333718
 20
73.7641592836624795
 30
0.0
 10
112.0868953272257613
 20
73.4073876612109188
 30
0.0
 10
112.0607920382949487
 20
73.2578610246630433
 30
0.0
 10
112.0607920382949487
 20
73.1087814014011883
 30
0.0
  0
LINE
  5
60
100
AcDbEntity
100
AcDbLine
  8
PLEXY
 62
256
370
-1
  6
ByLayer
 10
109.5607920382949487
 20
53.1087814014011883
 30
0.0
 11
109.5607920382949487
 21
59.108781401401302
 31
0.0
  0
LINE
  5
61
100
AcDbEntity
100
AcDbLine
  8
PLEXY
 62
256
370
-1
  6
ByLayer
 10
110.5607920382949487
 20
53.1087814014011883
 30
0.0
 11
110.5607920382949487
 21
59.108781401401302
 31
0.0
  0
LINE
  5
62
100
AcDbEntity
100
AcDbLine
  8
PLEXY
 62
256
370
-1
  6
ByLayer
 10
117.5607920382949487
 20
53.1087814014011883
 30
0.0
 11
117.5607920382949487
 21
59.108781401401302
 31
0.0
  0
LINE
  5
63
100
AcDbEntity
100
AcDbLine
  8
PLEXY
 62
256
370
-1
  6
ByLayer
 10
116.5607920382949487
 20
53.1087814014011883
 30
0.0
 11
116.5607920382949487
 21
59.108781401401302
 31
0.0
  0
ELLIPSE
  5
64
100
AcDbEntity
100
AcDbEllipse
  8
PLEXY
 62
256
370
-1
  6
ByLayer
 10
113.5607920382950624
 20
53.1087814014011883
 30
0.0
 11
-4.0
 21
0.0000000000000002
 31
0.0
 40
0.75
 41
0.0
 42
3.1415926535897931
  0
SPLINE
  5
65
  8
PLEXY
 62
256
370
-1
  6
ByLayer
100
AcDbEntity
100
AcDbSpline
 70
8
 71
3
 72
24
 73
20
 74
0
 40
0.0
 40
0.0
 40
0.0
 40
0.0
 40
0.0588235294117647
 40
0.1176470588235294
 40
0.1764705882352941
 40
0.2352941176470588
 40
0.2941176470588235
 40
0.3529411764705883
 40
0.4117647058823529
 40
0.4705882352941176
 40
0.5294117647058824
 40
0.5882352941176471
 40
0.6470588235294118
 40
0.7058823529411765
 40
0.7647058823529411
 40
0.8235294117647058
 40
0.8823529411764706
 40
0.9411764705882353
 40
1.0
 40
1.0
 40
1.0
 40
1.0
 10
110.5607920382949487
 20
53.1087814014011883
 30
0.0
 10
110.5607920382949487
 20
52.9092501978095697
 30
0.0
 10
110.6071068531921355
 20
52.7079747965020715
 30
0.0
 10
110.8133619318667797
 20
52.2959478316261084
 30
0.0
 10
110.9757674455863707
 20
52.0860193637512339
 30
0.0
 10
111.4248432550642747
 20
51.7006949223239189
 30
0.0
 10
111.7111013754207534
 20
51.5267773177487243
 30
0.0
 10
112.3699861740614097
 20
51.26108019388721
 30
0.0
 10
112.7419026402586724
 20
51.1695875870539112
 30
0.0
 10
113.5109700061886997
 20
51.0917295399061686
 30
0.0
 10
113.9076453346065136
 20
51.1053786832360402
 30
0.0
 10
114.6603280898675621
 20
51.2345723864549427
 30
0.0
 10
115.0158220926256263
 20
51.350079568215051
 30
0.0
 10
115.6291836795777499
 20
51.654200781742361
 30
0.0
 10
115.8862828634189555
 20
51.8423305324873809
 30
0.0
 10
116.2735892444075034
 20
52.2428310635602884
 30
0.0
 10
116.4038841993560709
 20
52.4534035191394423
 30
0.0
 10
116.5346887493639088
 20
52.810175141591003
 30
0.0
 10
116.5607920382949487
 20
52.9597017781392196
 30
0.0
 10
116.5607920382949487
 20
53.1087814014011883
 30
0.0
  0
ELLIPSE
  5
66
100
AcDbEntity
100
AcDbEllipse
  8
PLEXY
 62
256
370
-1
  6
ByLayer
 10
113.5607920382950624
 20
59.108781401401302
 30
0.0
 11
-4.0
 21
0.0000000000000002
 31
0.0
 40
0.75
 41
3.1415926535897931
 42
6.2831853071795862
  0
SPLINE
  5
67
  8
PLEXY
 62
256
370
-1
  6
ByLayer
100
AcDbEntity
100
AcDbSpline
 70
8
 71
3
 72
24
 73
20
 74
0
 40
0.0
 40
0.0
 40
0.0
 40
0.0
 40
0.0588235294117647
 40
0.1176470588235294
 40
0.1764705882352941
 40
0.2352941176470588
 40
0.2941176470588235
 40
0.3529411764705883
 40
0.4117647058823529
 40
0.4705882352941176
 40
0.5294117647058824
 40
0.5882352941176471
 40
0.6470588235294118
 40
0.7058823529411765
 40
0.7647058823529411
 40
0.8235294117647058
 40
0.8823529411764706
 40
0.9411764705882353
 40
1.0
 40
1.0
 40
1.0
 40
1.0
 10
116.5607920382949487
 20
59.108781401401302
 30
0.0
 10
116.5607920382949487
 20
59.3083126049926932
 30
0.0
 10
116.5144772233976482
 20
59.5095880063004188
 30
0.0
 10
116.3082221447231177
 20
59.9216149711760409
 30
0.0
 10
116.1458166310032993
 20
60.1315434390511427
 30
0.0
 10
115.6967408215253954
 20
60.5168678804782303
 30
0.0
 10
115.4104827011689167
 20
60.6907854850535387
 30
0.0
 10
114.7515979025282604
 20
60.9564826089152803
 30
0.0
 10
114.3796814363307703
 20
61.0479752157485791
 30
0.0
 10
113.6106140704006293
 20
61.1258332628960943
 30
0.0
 10
113.2139387419828154
 20
61.1121841195662228
 30
0.0
 10
112.4612559867214259
 20
60.9829904163473202
 30
0.0
 10
112.1057619839639301
 20
60.8674832345872119
 30
0.0
 10
111.4924003970116928
 20
60.5633620210595609
 30
0.0
 10
111.2353012131704872
 20
60.3752322703146547
 30
0.0
 10
110.847994832182053
 20
59.9747317392415198
 30
0.0
 10
110.7176998772334855
 20
59.7641592836624795
 30
0.0
 10
110.5868953272256476
 20
59.4073876612109188
 30
0.0
 10
110.5607920382949487
 20
59.2578610246630433
 30
0.0
 10
110.5607920382949487
 20
59.108781401401302
 30
0.0
  0
LINE
  5
68
100
AcDbEntity
100
AcDbLine
  8
PLEXY
 62
256
370
-1
  6
ByLayer
 10
112.0607920382949487
 20
114.1087814014006199
 30
0.0
 11
112.0607920382949487
 21
120.1087814014006199
 31
0.0
  0
LINE
  5
69
100
AcDbEntity
100
AcDbLine
  8
PLEXY
 62
256
370
-1
  6
ByLayer
 10
113.0607920382949487
 20
114.1087814014006199
 30
0.0
 11
113.0607920382949487
 21
120.1087814014006199
 31
0.0
  0
LINE
  5
6A
100
AcDbEntity
100
AcDbLine
  8
PLEXY
 62
256
370
-1
  6
ByLayer
 10
120.0607920382950624
 20
114.1087814014006199
 30
0.0
 11
120.0607920382950624
 21
120.1087814014006199
 31
0.0
  0
LINE
  5
6B
100
AcDbEntity
100
AcDbLine
  8
PLEXY
 62
256
370
-1
  6
ByLayer
 10
119.0607920382950624
 20
114.1087814014006199
 30
0.0
 11
119.0607920382950624
 21
120.1087814014006199
 31
0.0
  0
ELLIPSE
  5
6C
100
AcDbEntity
100
AcDbEllipse
  8
PLEXY
 62
256
370
-1
  6
ByLayer
 10
116.0607920382950624
 20
114.1087814014006199
 30
0.0
 11
-4.0
 21
0.0000000000000002
 31
0.0
 40
0.75
 41
0.0
 42
3.1415926535897931
  0
SPLINE
  5
6D
  8
PLEXY
 62
256
370
-1
  6
ByLayer
100
AcDbEntity
100
AcDbSpline
 70
8
 71
3
 72
24
 73
20
 74
0
 40
0.0
 40
0.0
 40
0.0
 40
0.0
 40
0.0588235294117647
 40
0.1176470588235294
 40
0.1764705882352941
 40
0.2352941176470588
 40
0.2941176470588235
 40
0.3529411764705883
 40
0.4117647058823529
 40
0.4705882352941176
 40
0.5294117647058824
 40
0.5882352941176471
 40
0.6470588235294118
 40
0.7058823529411765
 40
0.7647058823529411
 40
0.8235294117647058
 40
0.8823529411764706
 40
0.9411764705882353
 40
1.0
 40
1.0
 40
1.0
 40
1.0
 10
113.0607920382949487
 20
114.1087814014006199
 30
0.0
 10
113.0607920382949487
 20
113.9092501978095697
 30
0.0
 10
113.1071068531921355
 20
113.7079747965015031
 30
0.0
 10
113.3133619318668934
 20
113.2959478316256536
 30
0.0
 10
113.4757674455864844
 20
113.0860193637506654
 30
0.0
 10
113.9248432550642747
 20
112.7006949223234642
 30
0.0
 10
114.2111013754206397
 20
112.5267773177486106
 30
0.0
 10
114.8699861740614097
 20
112.2610801938876648
 30
0.0
 10
115.2419026402586724
 20
112.1695875870536838
 30
0.0
 10
116.0109700061886997
 20
112.0917295399056002
 30
0.0
 10
116.4076453346066273
 20
112.1053786832355854
 30
0.0
 10
117.1603280898676758
 20
112.2345723864546017
 30
0.0
 10
117.5158220926256263
 20
112.3500795682145963
 30
0.0
 10
118.1291836795777499
 20
112.6542007817415652
 30
0.0
 10
118.3862828634190691
 20
112.8423305324874946
 30
0.0
 10
118.7735892444075034
 20
113.2428310635605158
 30
0.0
 10
118.9038841993561846
 20
113.453403519139556
 30
0.0
 10
119.0346887493639088
 20
113.810175141590662
 30
0.0
 10
119.0607920382950624
 20
113.9597017781386512
 30
0.0
 10
119.0607920382950624
 20
114.1087814014006199
 30
0.0
  0
ELLIPSE
  5
6E
100
AcDbEntity
100
AcDbEllipse
  8
PLEXY
 62
256
370
-1
  6
ByLayer
 10
116.0607920382950624
 20
120.1087814014006199
 30
0.0
 11
-4.0
 21
0.0000000000000002
 31
0.0
 40
0.75
 41
3.1415926535897931
 42
6.2831853071795862
  0
SPLINE
  5
6F
  8
PLEXY
 62
256
370
-1
  6
ByLayer
100
AcDbEntity
100
AcDbSpline
 70
8
 71
3
 72
24
 73
20
 74
0
 40
0.0
 40
0.0
 40
0.0
 40
0.0
 40
0.0588235294117647
 40
0.1176470588235294
 40
0.1764705882352941
 40
0.2352941176470588
 40
0.2941176470588235
 40
0.3529411764705883
 40
0.4117647058823529
 40
0.4705882352941176
 40
0.5294117647058824
 40
0.5882352941176471
 40
0.6470588235294118
 40
0.7058823529411765
 40
0.7647058823529411
 40
0.8235294117647058
 40
0.8823529411764706
 40
0.9411764705882353
 40
1.0
 40
1.0
 40
1.0
 40
1.0
 10
119.0607920382950624
 20
120.1087814014006199
 30
0.0
 10
119.0607920382950624
 20
120.3083126049925795
 30
0.0
 10
119.0144772233976482
 20
120.5095880062995093
 30
0.0
 10
118.808222144723004
 20
120.9216149711755861
 30
0.0
 10
118.645816631003072
 20
121.1315434390505743
 30
0.0
 10
118.1967408215253954
 20
121.5168678804775482
 30
0.0
 10
117.910482701168803
 20
121.6907854850535387
 30
0.0
 10
117.2515979025282604
 20
121.9564826089144844
 30
0.0
 10
116.8796814363307703
 20
122.0479752157484654
 30
0.0
 10
116.1106140704005156
 20
122.1258332628956396
 30
0.0
 10
115.7139387419828154
 20
122.1121841195656543
 30
0.0
 10
114.9612559867215396
 20
121.9829904163475476
 30
0.0
 10
114.6057619839639301
 20
121.8674832345866434
 30
0.0
 10
113.9924003970118065
 20
121.5633620210596746
 30
0.0
 10
113.7353012131702599
 20
121.3752322703146547
 30
0.0
 10
113.347994832182053
 20
120.9747317392416335
 30
0.0
 10
113.2176998772335992
 20
120.7641592836625932
 30
0.0
 10
113.0868953272257613
 20
120.4073876612105778
 30
0.0
 10
113.0607920382949487
 20
120.2578610246625885
 30
0.0
 10
113.0607920382949487
 20
120.1087814014006199
 30
0.0
  0
LINE
  5
70
100
AcDbEntity
100
AcDbLine
  8
PLEXY
 62
256
370
-1
  6
ByLayer
 10
111.0607920382950624
 20
129.1087814014006199
 30
0.0
 11
111.0607920382950624
 21
135.1087814014006199
 31
0.0
  0
LINE
  5
71
100
AcDbEntity
100
AcDbLine
  8
PLEXY
 62
256
370
-1
  6
ByLayer
 10
112.0607920382949487
 20
129.1087814014006199
 30
0.0
 11
112.0607920382949487
 21
135.1087814014006199
 31
0.0
  0
LINE
  5
72
100
AcDbEntity
100
AcDbLine
  8
PLEXY
 62
256
370
-1
  6
ByLayer
 10
119.0607920382950624
 20
129.1087814014006199
 30
0.0
 11
119.0607920382950624
 21
135.1087814014006199
 31
0.0
  0
LINE
  5
73
100
AcDbEntity
100
AcDbLine
  8
PLEXY
 62
256
370
-1
  6
ByLayer
 10
118.0607920382950624
 20
129.1087814014006199
 30
0.0
 11
118.0607920382950624
 21
135.1087814014006199
 31
0.0
  0
ELLIPSE
  5
74
100
AcDbEntity
100
AcDbEllipse
  8
PLEXY
 62
256
370
-1
  6
ByLayer
 10
115.0607920382951761
 20
129.1087814014006199
 30
0.0
 11
-4.0
 21
0.0000000000000002
 31
0.0
 40
0.75
 41
0.0
 42
3.1415926535897931
  0
SPLINE
  5
75
  8
PLEXY
 62
256
370
-1
  6
ByLayer
100
AcDbEntity
100
AcDbSpline
 70
8
 71
3
 72
24
 73
20
 74
0
 40
0.0
 40
0.0
 40
0.0
 40
0.0
 40
0.0588235294117647
 40
0.1176470588235294
 40
0.1764705882352941
 40
0.2352941176470588
 40
0.2941176470588235
 40
0.3529411764705883
 40
0.4117647058823529
 40
0.4705882352941176
 40
0.5294117647058824
 40
0.5882352941176471
 40
0.6470588235294118
 40
0.7058823529411765
 40
0.7647058823529411
 40
0.8235294117647058
 40
0.8823529411764706
 40
0.9411764705882353
 40
1.0
 40
1.0
 40
1.0
 40
1.0
 10
112.0607920382949487
 20
129.1087814014006199
 30
0.0
 10
112.0607920382949487
 20
128.9092501978095697
 30
0.0
 10
112.1071068531922492
 20
128.7079747965015031
 30
0.0
 10
112.3133619318666661
 20
128.2959478316256536
 30
0.0
 10
112.4757674455864844
 20
128.0860193637506654
 30
0.0
 10
112.9248432550642747
 20
127.7006949223234642
 30
0.0
 10
113.2111013754206397
 20
127.5267773177486106
 30
0.0
 10
113.8699861740614097
 20
127.2610801938876648
 30
0.0
 10
114.2419026402587861
 20
127.1695875870536838
 30
0.0
 10
115.0109700061888134
 20
127.0917295399056002
 30
0.0
 10
115.4076453346066273
 20
127.1053786832355854
 30
0.0
 10
116.1603280898676758
 20
127.2345723864546017
 30
0.0
 10
116.5158220926256263
 20
127.3500795682145963
 30
0.0
 10
117.1291836795777499
 20
127.6542007817415652
 30
0.0
 10
117.3862828634190691
 20
127.8423305324874946
 30
0.0
 10
117.7735892444076171
 20
128.2428310635596063
 30
0.0
 10
117.9038841993561846
 20
128.4534035191386465
 30
0.0
 10
118.0346887493639088
 20
128.810175141590662
 30
0.0
 10
118.0607920382950624
 20
128.9597017781386512
 30
0.0
 10
118.0607920382950624
 20
129.1087814014006199
 30
0.0
  0
ELLIPSE
  5
76
100
AcDbEntity
100
AcDbEllipse
  8
PLEXY
 62
256
370
-1
  6
ByLayer
 10
115.0607920382951761
 20
135.1087814014006199
 30
0.0
 11
-4.0
 21
0.0000000000000002
 31
0.0
 40
0.75
 41
3.1415926535897931
 42
6.2831853071795862
  0
SPLINE
  5
77
  8
PLEXY
 62
256
370
-1
  6
ByLayer
100
AcDbEntity
100
AcDbSpline
 70
8
 71
3
 72
24
 73
20
 74
0
 40
0.0
 40
0.0
 40
0.0
 40
0.0
 40
0.0588235294117647
 40
0.1176470588235294
 40
0.1764705882352941
 40
0.2352941176470588
 40
0.2941176470588235
 40
0.3529411764705883
 40
0.4117647058823529
 40
0.4705882352941176
 40
0.5294117647058824
 40
0.5882352941176471
 40
0.6470588235294118
 40
0.7058823529411765
 40
0.7647058823529411
 40
0.8235294117647058
 40
0.8823529411764706
 40
0.9411764705882353
 40
1.0
 40
1.0
 40
1.0
 40
1.0
 10
118.0607920382950624
 20
135.1087814014006199
 30
0.0
 10
118.0607920382950624
 20
135.3083126049925795
 30
0.0
 10
118.0144772233976482
 20
135.5095880062995093
 30
0.0
 10
117.808222144723004
 20
135.9216149711755861
 30
0.0
 10
117.645816631003072
 20
136.1315434390505743
 30
0.0
 10
117.1967408215253954
 20
136.516867880478685
 30
0.0
 10
116.910482701168803
 20
136.6907854850535387
 30
0.0
 10
116.2515979025282604
 20
136.9564826089144844
 30
0.0
 10
115.879681436330884
 20
137.0479752157484654
 30
0.0
 10
115.1106140704005156
 20
137.1258332628956396
 30
0.0
 10
114.7139387419827017
 20
137.1121841195656543
 30
0.0
 10
113.9612559867215396
 20
136.9829904163475476
 30
0.0
 10
113.6057619839640438
 20
136.8674832345866434
 30
0.0
 10
112.9924003970115791
 20
136.5633620210596746
 30
0.0
 10
112.7353012131702599
 20
136.3752322703146547
 30
0.0
 10
112.347994832182053
 20
135.9747317392416335
 30
0.0
 10
112.2176998772333718
 20
135.7641592836625932
 30
0.0
 10
112.0868953272257613
 20
135.4073876612105778
 30
0.0
 10
112.0607920382949487
 20
135.2578610246625885
 30
0.0
 10
112.0607920382949487
 20
135.1087814014006199
 30
0.0
  0
LINE
  5
78
100
AcDbEntity
100
AcDbLine
  8
PLEXY
 62
256
370
-1
  6
ByLayer
 10
109.5607920382949487
 20
143.1087814014006199
 30
0.0
 11
109.5607920382949487
 21
149.1087814014006199
 31
0.0
  0
LINE
  5
79
100
AcDbEntity
100
AcDbLine
  8
PLEXY
 62
256
370
-1
  6
ByLayer
 10
110.5607920382949487
 20
143.1087814014006199
 30
0.0
 11
110.5607920382949487
 21
149.1087814014006199
 31
0.0
  0
LINE
  5
7A
100
AcDbEntity
100
AcDbLine
  8
PLEXY
 62
256
370
-1
  6
ByLayer
 10
117.5607920382949487
 20
143.1087814014006199
 30
0.0
 11
117.5607920382949487
 21
149.1087814014006199
 31
0.0
  0
LINE
  5
7B
100
AcDbEntity
100
AcDbLine
  8
PLEXY
 62
256
370
-1
  6
ByLayer
 10
116.5607920382949487
 20
143.1087814014006199
 30
0.0
 11
116.5607920382949487
 21
149.1087814014006199
 31
0.0
  0
ELLIPSE
  5
7C
100
AcDbEntity
100
AcDbEllipse
  8
PLEXY
 62
256
370
-1
  6
ByLayer
 10
113.5607920382950624
 20
143.1087814014006199
 30
0.0
 11
-4.0
 21
0.0000000000000002
 31
0.0
 40
0.75
 41
0.0
 42
3.1415926535897931
  0
SPLINE
  5
7D
  8
PLEXY
 62
256
370
-1
  6
ByLayer
100
AcDbEntity
100
AcDbSpline
 70
8
 71
3
 72
24
 73
20
 74
0
 40
0.0
 40
0.0
 40
0.0
 40
0.0
 40
0.0588235294117647
 40
0.1176470588235294
 40
0.1764705882352941
 40
0.2352941176470588
 40
0.2941176470588235
 40
0.3529411764705883
 40
0.4117647058823529
 40
0.4705882352941176
 40
0.5294117647058824
 40
0.5882352941176471
 40
0.6470588235294118
 40
0.7058823529411765
 40
0.7647058823529411
 40
0.8235294117647058
 40
0.8823529411764706
 40
0.9411764705882353
 40
1.0
 40
1.0
 40
1.0
 40
1.0
 10
110.5607920382949487
 20
143.1087814014006199
 30
0.0
 10
110.5607920382949487
 20
142.9092501978095697
 30
0.0
 10
110.6071068531921355
 20
142.7079747965015031
 30
0.0
 10
110.8133619318667797
 20
142.2959478316256536
 30
0.0
 10
110.9757674455863707
 20
142.0860193637506654
 30
0.0
 10
111.4248432550642747
 20
141.7006949223234642
 30
0.0
 10
111.7111013754207534
 20
141.5267773177486106
 30
0.0
 10
112.3699861740614097
 20
141.2610801938876648
 30
0.0
 10
112.7419026402586724
 20
141.1695875870536838
 30
0.0
 10
113.5109700061886997
 20
141.0917295399056002
 30
0.0
 10
113.9076453346065136
 20
141.1053786832355854
 30
0.0
 10
114.6603280898675621
 20
141.2345723864546017
 30
0.0
 10
115.0158220926256263
 20
141.3500795682145963
 30
0.0
 10
115.6291836795777499
 20
141.6542007817415652
 30
0.0
 10
115.8862828634189555
 20
141.8423305324874946
 30
0.0
 10
116.2735892444075034
 20
142.2428310635596063
 30
0.0
 10
116.4038841993560709
 20
142.4534035191386465
 30
0.0
 10
116.5346887493639088
 20
142.810175141590662
 30
0.0
 10
116.5607920382949487
 20
142.9597017781386512
 30
0.0
 10
116.5607920382949487
 20
143.1087814014006199
 30
0.0
  0
ELLIPSE
  5
7E
100
AcDbEntity
100
AcDbEllipse
  8
PLEXY
 62
256
370
-1
  6
ByLayer
 10
113.5607920382950624
 20
149.1087814014006199
 30
0.0
 11
-4.0
 21
0.0000000000000002
 31
0.0
 40
0.75
 41
3.1415926535897931
 42
6.2831853071795862
  0
SPLINE
  5
7F
  8
PLEXY
 62
256
370
-1
  6
ByLayer
100
AcDbEntity
100
AcDbSpline
 70
8
 71
3
 72
24
 73
20
 74
0
 40
0.0
 40
0.0
 40
0.0
 40
0.0
 40
0.0588235294117647
 40
0.1176470588235294
 40
0.1764705882352941
 40
0.2352941176470588
 40
0.2941176470588235
 40
0.3529411764705883
 40
0.4117647058823529
 40
0.4705882352941176
 40
0.5294117647058824
 40
0.5882352941176471
 40
0.6470588235294118
 40
0.7058823529411765
 40
0.7647058823529411
 40
0.8235294117647058
 40
0.8823529411764706
 40
0.9411764705882353
 40
1.0
 40
1.0
 40
1.0
 40
1.0
 10
116.5607920382949487
 20
149.1087814014006199
 30
0.0
 10
116.5607920382949487
 20
149.3083126049925795
 30
0.0
 10
116.5144772233976482
 20
149.5095880063006462
 30
0.0
 10
116.3082221447231177
 20
149.9216149711755861
 30
0.0
 10
116.1458166310032993
 20
150.1315434390505743
 30
0.0
 10
115.6967408215253954
 20
150.5168678804775482
 30
0.0
 10
115.4104827011689167
 20
150.6907854850535387
 30
0.0
 10
114.7515979025282604
 20
150.9564826089144844
 30
0.0
 10
114.3796814363307703
 20
151.0479752157484654
 30
0.0
 10
113.6106140704006293
 20
151.1258332628956396
 30
0.0
 10
113.2139387419828154
 20
151.1121841195656543
 30
0.0
 10
112.4612559867214259
 20
150.9829904163475476
 30
0.0
 10
112.1057619839639301
 20
150.8674832345866434
 30
0.0
 10
111.4924003970116928
 20
150.5633620210596746
 30
0.0
 10
111.2353012131704872
 20
150.3752322703146547
 30
0.0
 10
110.847994832182053
 20
149.9747317392416335
 30
0.0
 10
110.7176998772334855
 20
149.7641592836625932
 30
0.0
 10
110.5868953272256476
 20
149.4073876612105778
 30
0.0
 10
110.5607920382949487
 20
149.2578610246625885
 30
0.0
 10
110.5607920382949487
 20
149.1087814014006199
 30
0.0
  0
CIRCLE
  5
80
100
AcDbEntity
100
AcDbCircle
  8
PLEXY
 62
256
370
-1
  6
ByLayer
 10
109.5607920382951761
 20
101.1087814014006199
 30
0.0
 40
2.0
  0
CIRCLE
  5
81
100
AcDbEntity
100
AcDbCircle
  8
PLEXY
 62
256
370
-1
  6
ByLayer
 10
109.5607920382951761
 20
42.1087814014010746
 30
0.0
 40
2.5
  0
CIRCLE
  5
82
100
AcDbEntity
100
AcDbCircle
  8
PLEXY
 62
256
370
-1
  6
ByLayer
 10
119.5607920382951761
 20
41.1087814014010746
 30
0.0
 40
1.1000000000000001
  0
CIRCLE
  5
83
100
AcDbEntity
100
AcDbCircle
  8
PLEXY
 62
256
370
-1
  6
ByLayer
 10
107.5607920382951761
 20
73.1087814014011883
 30
0.0
 40
1.1000000000000001
  0
CIRCLE
  5
84
100
AcDbEntity
100
AcDbCircle
  8
PLEXY
 62
256
370
-1
  6
ByLayer
 10
107.5607920382951761
 20
129.1087814014006199
 30
0.0
 40
1.1000000000000001
  0
CIRCLE
  5
85
100
AcDbEntity
100
AcDbCircle
  8
PLEXY
 62
256
370
-1
  6
ByLayer
 10
119.5607920382951761
 20
160.1087814014006199
 30
0.0
 40
1.1000000000000001
  0
LINE
  5
86
100
AcDbEntity
100
AcDbLine
  8
PLEXY
 62
256
370
-1
  6
ByLayer
 10
123.5607920382949487
 20
32.2175628027907806
 30
0.0
 11
40.0
 21
32.2175628027907806
 31
0.0
  0
LINE
  5
87
100
AcDbEntity
100
AcDbLine
  8
PLEXY
 62
256
370
-1
  6
ByLayer
 10
40.0
 20
32.2175628027907806
 30
0.0
 11
40.0
 21
170.0
 31
0.0
  0
LINE
  5
88
100
AcDbEntity
100
AcDbLine
  8
PLEXY
 62
256
370
-1
  6
ByLayer
 10
40.0
 20
170.0
 30
0.0
 11
123.5607920382950624
 21
170.0
 31
0.0
  0
LINE
  5
89
100
AcDbEntity
100
AcDbLine
  8
PLEXY
 62
256
370
-1
  6
ByLayer
 10
123.5607920382931297
 20
32.2175628027907806
 30
0.0
 11
123.5607920382950624
 21
170.0
 31
0.0
  0
CIRCLE
  5
8A
100
AcDbEntity
100
AcDbCircle
  8
PLEXY
 62
256
370
-1
  6
ByLayer
 10
55.0
 20
107.907243205724626
 30
0.0
 40
7.7999999999999998
  0
CIRCLE
  5
8B
100
AcDbEntity
100
AcDbCircle
  8
PLEXY
 62
256
370
-1
  6
ByLayer
 10
55.0
 20
107.907243205724626
 30
0.0
 40
6.2000000000000002
  0
CIRCLE
  5
8C
100
AcDbEntity
100
AcDbCircle
  8
PLEXY
 62
256
370
-1
  6
ByLayer
 10
85.0
 20
107.907243205724626
 30
0.0
 40
7.7999999999999998
  0
CIRCLE
  5
8D
100
AcDbEntity
100
AcDbCircle
  8
PLEXY
 62
256
370
-1
  6
ByLayer
 10
85.0
 20
107.907243205724626
 30
0.0
 40
6.2000000000000002
  0
CIRCLE
  5
8E
100
AcDbEntity
100
AcDbCircle
  8
PLEXY
 62
256
370
-1
  6
ByLayer
 10
70.0000000000001137
 20
90.907243205724626
 30
0.0
 40
6.2000000000000002
  0
CIRCLE
  5
8F
100
AcDbEntity
100
AcDbCircle
  8
PLEXY
 62
256
370
-1
  6
ByLayer
 10
55.0
 20
75.9072432057247397
 30
0.0
 40
7.7999999999999998
  0
CIRCLE
  5
90
100
AcDbEntity
100
AcDbCircle
  8
PLEXY
 62
256
370
-1
  6
ByLayer
 10
55.0
 20
75.9072432057247397
 30
0.0
 40
6.2000000000000002
  0
CIRCLE
  5
91
100
AcDbEntity
100
AcDbCircle
  8
PLEXY
 62
256
370
-1
  6
ByLayer
 10
85.0
 20
75.9072432057247397
 30
0.0
 40
7.7999999999999998
  0
CIRCLE
  5
92
100
AcDbEntity
100
AcDbCircle
  8
PLEXY
 62
256
370
-1
  6
ByLayer
 10
85.0
 20
75.9072432057247397
 30
0.0
 40
6.2000000000000002
  0
CIRCLE
  5
93
100
AcDbEntity
100
AcDbCircle
  8
PLEXY
 62
256
370
-1
  6
ByLayer
 10
70.0000000000001137
 20
60.9072432057248534
 30
0.0
 40
7.7999999999999998
  0
CIRCLE
  5
94
100
AcDbEntity
100
AcDbCircle
  8
PLEXY
 62
256
370
-1
  6
ByLayer
 10
70.0000000000001137
 20
60.9072432057248534
 30
0.0
 40
6.2000000000000002
  0
LINE
  5
95
100
AcDbEntity
100
AcDbLine
  8
PLEXY
 62
256
370
-1
  6
ByLayer
 10
85.8000000000000682
 20
153.0434508120349619
 30
0.0
 11
54.2000000000000455
 21
153.041138100665421
 31
0.0
  0
LINE
  5
96
100
AcDbEntity
100
AcDbLine
  8
PLEXY
 62
256
370
-1
  6
ByLayer
 10
54.2000000000000455
 20
153.0411525405743305
 30
0.0
 11
54.2000000000000455
 21
129.441138100665512
 31
0.0
  0
LINE
  5
97
100
AcDbEntity
100
AcDbLine
  8
PLEXY
 62
256
370
-1
  6
ByLayer
 10
54.1985496789262697
 20
129.441138100665512
 30
0.0
 11
85.8000000000000682
 21
129.4388683975289496
 31
0.0
  0
LINE
  5
98
100
AcDbEntity
100
AcDbLine
  8
PLEXY
 62
256
370
-1
  6
ByLayer
 10
85.8000000000000682
 20
129.4388683975289496
 30
0.0
 11
85.8000000000000682
 21
153.0434508120349619
 31
0.0
  0
ENDSEC
  0
SECTION
  2
OBJECTS
  0
DICTIONARY
  5
C
100
AcDbDictionary
280
0
281
1
  3
ACAD_GROUP
350
D
  3
ACAD_LAYOUT
350
1A
  3
ACAD_MLINESTYLE
350
17
  3
ACAD_PLOTSETTINGS
350
19
  3
ACAD_PLOTSTYLENAME
350
E
  3
AcDbVariableDictionary
350
99
  0
DICTIONARY
  5
D
100
AcDbDictionary
280
0
281
1
  0
ACDBDICTIONARYWDFLT
  5
E
100
AcDbDictionary
281
1
  3
Normal
350
F
100
AcDbDictionaryWithDefault
340
F
  0
ACDBPLACEHOLDER
  5
F
  0
DICTIONARY
  5
17
100
AcDbDictionary
280
0
281
1
  3
Standard
350
18
  0
MLINESTYLE
  5
18
100
AcDbMlineStyle
  2
STANDARD
 70
0
  3

 62
256
 51
90.0
 52
90.0
 71
2
 49
0.5
 62
256
  6
BYLAYER
 49
-0.5
 62
256
  6
BYLAYER
  0
DICTIONARY
  5
19
100
AcDbDictionary
280
0
281
1
  0
DICTIONARY
  5
1A
100
AcDbDictionary
281
1
  3
Layout1
350
1E
  3
Layout2
350
26
  3
Model
350
22
  0
LAYOUT
  5
1E
100
AcDbPlotSettings
  1

  2
C:\Program Files\AutoCAD 2002\plotters\DWF ePlot (optimized for plotting).pc3
  4

  6

 40
0.0
 41
0.0
 42
0.0
 43
0.0
 44
0.0
 45
0.0
 46
0.0
 47
0.0
 48
0.0
 49
0.0
140
0.0
141
0.0
142
1.0
143
1.0
 70
688
 72
0
 73
0
 74
5
  7

 75
16
147
1.0
148
0.0
149
0.0
100
AcDbLayout
  1
Layout1
 70
1
 71
1
 10
0.0
 20
0.0
 11
420.0
 21
297.0
 12
0.0
 22
0.0
 32
0.0
 14
100000000000000000000.0
 24
100000000000000000000.0
 34
100000000000000000000.0
 15
-100000000000000000000.0
 25
-100000000000000000000.0
 35
-100000000000000000000.0
146
0.0
 13
0.0
 23
0.0
 33
0.0
 16
1.0
 26
0.0
 36
0.0
 17
0.0
 27
1.0
 37
0.0
 76
0
330
1B
  0
LAYOUT
  5
22
100
AcDbPlotSettings
  1

  2
C:\Program Files\AutoCAD 2002\plotters\DWF ePlot (optimized for plotting).pc3
  4

  6

 40
0.0
 41
0.0
 42
0.0
 43
0.0
 44
0.0
 45
0.0
 46
0.0
 47
0.0
 48
0.0
 49
0.0
140
0.0
141
0.0
142
1.0
143
1.0
 70
1712
 72
0
 73
0
 74
0
  7

 75
0
147
1.0
148
0.0
149
0.0
100
AcDbLayout
  1
Model
 70
1
 71
0
 10
0.0
 20
0.0
 11
12.0
 21
9.0
 12
0.0
 22
0.0
 32
0.0
 14
0.0
 24
0.0
 34
0.0
 15
0.0
 25
0.0
 35
0.0
146
0.0
 13
0.0
 23
0.0
 33
0.0
 16
1.0
 26
0.0
 36
0.0
 17
0.0
 27
1.0
 37
0.0
 76
0
330
1F
  0
LAYOUT
  5
26
100
AcDbPlotSettings
  1

  2
C:\Program Files\AutoCAD 2002\plotters\DWF ePlot (optimized for plotting).pc3
  4

  6

 40
0.0
 41
0.0
 42
0.0
 43
0.0
 44
0.0
 45
0.0
 46
0.0
 47
0.0
 48
0.0
 49
0.0
140
0.0
141
0.0
142
1.0
143
1.0
 70
688
 72
0
 73
0
 74
5
  7

 75
16
147
1.0
148
0.0
149
0.0
100
AcDbLayout
  1
Layout2
 70
1
 71
2
 10
0.0
 20
0.0
 11
12.0
 21
9.0
 12
0.0
 22
0.0
 32
0.0
 14
0.0
 24
0.0
 34
0.0
 15
0.0
 25
0.0
 35
0.0
146
0.0
 13
0.0
 23
0.0
 33
0.0
 16
1.0
 26
0.0
 36
0.0
 17
0.0
 27
1.0
 37
0.0
 76
0
330
23
  0
DICTIONARY
  5
99
100
AcDbDictionary
281
1
  3
DIMASSOC
350
9B
  3
HIDETEXT
350
9A
  0
DICTIONARYVAR
  5
9A
100
DictionaryVariables
280
0
  1
2
  0
DICTIONARYVAR
  5
9B
100
DictionaryVariables
280
0
  1
1
  0
ENDSEC
  0
EOF
