999
dxflib 2.0.4.8
  0
SECTION
  2
HEADER
  9
$ACADVER
  1
AC1015
  9
$HANDSEED
  5
FFFF
  9
$DIMASZ
 40
2.0
  9
$DIMGAP
 40
0.0
  9
$DIMEXO
 40
0.0
  9
$INSUNITS
 70
4
  9
$GRIDMODE
 70
0
  9
$DIMTXT
 40
2.0
  9
$DIMSTYLE
  2
Standard
  9
$PLIMMAX
 10
210.0
 20
297.0
  9
$PLIMMIN
 10
0.0
 20
0.0
  9
$DIMEXE
 40
1.0
  0
ENDSEC
  0
SECTION
  2
TABLES
  0
TABLE
  2
VPORT
  5
8
100
AcDbSymbolTable
 70
1
  0
VPORT
  5
30
100
AcDbSymbolTableRecord
100
AcDbViewportTableRecord
  2
*Active
 70
0
 10
0.0
 20
0.0
 11
1.0
 21
1.0
 12
286.3055555555554861
 22
148.5
 13
0.0
 23
0.0
 14
10.0
 24
10.0
 15
10.0
 25
10.0
 16
0.0
 26
0.0
 36
1.0
 17
0.0
 27
0.0
 37
0.0
 40
297.0
 41
1.92798353909465
 42
50.0
 43
0.0
 44
0.0
 50
0.0
 51
0.0
 71
0
 72
100
 73
1
 74
3
 75
1
 76
1
 77
0
 78
0
281
0
 65
1
110
0.0
120
0.0
130
0.0
111
1.0
121
0.0
131
0.0
112
0.0
122
1.0
132
0.0
 79
0
146
0.0
  0
ENDTAB
  0
TABLE
  2
LTYPE
  5
5
100
AcDbSymbolTable
 70
21
  0
LTYPE
  5
14
100
AcDbSymbolTableRecord
100
AcDbLinetypeTableRecord
  2
ByBlock
 70
0
  3

 72
65
 73
0
 40
0.0
  0
LTYPE
  5
15
100
AcDbSymbolTableRecord
100
AcDbLinetypeTableRecord
  2
ByLayer
 70
0
  3

 72
65
 73
0
 40
0.0
  0
LTYPE
  5
16
100
AcDbSymbolTableRecord
100
AcDbLinetypeTableRecord
  2
CONTINUOUS
 70
0
  3
Solid line
 72
65
 73
0
 40
0.0
  0
LTYPE
  5
31
100
AcDbSymbolTableRecord
100
AcDbLinetypeTableRecord
  2
DOT
 70
0
  3
Dot . . . . . . . . . . . . . . . . . . . . . .
 72
65
 73
2
 40
6.3499999999999996
 49
0.0
 74
0
 49
-6.3499999999999996
 74
0
  0
LTYPE
  5
32
100
AcDbSymbolTableRecord
100
AcDbLinetypeTableRecord
  2
DOT2
 70
0
  3
Dot (.5x) .....................................
 72
65
 73
2
 40
3.1749999999999998
 49
0.0
 74
0
 49
-3.1749999999999998
 74
0
  0
LTYPE
  5
33
100
AcDbSymbolTableRecord
100
AcDbLinetypeTableRecord
  2
DOTX2
 70
0
  3
Dot (2x) .  .  .  .  .  .  .  .  .  .  .  .  .
 72
65
 73
2
 40
12.6999999999999993
 49
0.0
 74
0
 49
-12.6999999999999993
 74
0
  0
LTYPE
  5
34
100
AcDbSymbolTableRecord
100
AcDbLinetypeTableRecord
  2
DASHED
 70
0
  3
Dashed __ __ __ __ __ __ __ __ __ __ __ __ __ _
 72
65
 73
2
 40
19.0500000000000007
 49
12.6999999999999993
 74
0
 49
-6.3499999999999996
 74
0
  0
LTYPE
  5
35
100
AcDbSymbolTableRecord
100
AcDbLinetypeTableRecord
  2
DASHED2
 70
0
  3
Dashed (.5x) _ _ _ _ _ _ _ _ _ _ _ _ _ _ _ _ _
 72
65
 73
2
 40
9.5250000000000004
 49
6.3499999999999996
 74
0
 49
-3.1749999999999998
 74
0
  0
LTYPE
  5
36
100
AcDbSymbolTableRecord
100
AcDbLinetypeTableRecord
  2
DASHEDX2
 70
0
  3
Dashed (2x) ____  ____  ____  ____  ____  ___
 72
65
 73
2
 40
38.1000000000000014
 49
25.3999999999999986
 74
0
 49
-12.6999999999999993
 74
0
  0
LTYPE
  5
37
100
AcDbSymbolTableRecord
100
AcDbLinetypeTableRecord
  2
DASHDOT
 70
0
  3
Dash dot __ . __ . __ . __ . __ . __ . __ . __
 72
65
 73
4
 40
25.3999999999999986
 49
12.6999999999999993
 74
0
 49
-6.3499999999999996
 74
0
 49
0.0
 74
0
 49
-6.3499999999999996
 74
0
  0
LTYPE
  5
38
100
AcDbSymbolTableRecord
100
AcDbLinetypeTableRecord
  2
DASHDOT2
 70
0
  3
Dash dot (.5x) _._._._._._._._._._._._._._._.
 72
65
 73
4
 40
12.6999999999999993
 49
6.3499999999999996
 74
0
 49
-3.1749999999999998
 74
0
 49
0.0
 74
0
 49
-3.1749999999999998
 74
0
  0
LTYPE
  5
39
100
AcDbSymbolTableRecord
100
AcDbLinetypeTableRecord
  2
DASHDOTX2
 70
0
  3
Dash dot (2x) ____  .  ____  .  ____  .  ___
 72
65
 73
4
 40
50.7999999999999972
 49
25.3999999999999986
 74
0
 49
-12.6999999999999993
 74
0
 49
0.0
 74
0
 49
-12.6999999999999993
 74
0
  0
LTYPE
  5
3A
100
AcDbSymbolTableRecord
100
AcDbLinetypeTableRecord
  2
DIVIDE
 70
0
  3
Divide ____ . . ____ . . ____ . . ____ . . ____
 72
65
 73
6
 40
31.75
 49
12.6999999999999993
 74
0
 49
-6.3499999999999996
 74
0
 49
0.0
 74
0
 49
-6.3499999999999996
 74
0
 49
0.0
 74
0
 49
-6.3499999999999996
 74
0
  0
LTYPE
  5
3B
100
AcDbSymbolTableRecord
100
AcDbLinetypeTableRecord
  2
DIVIDE2
 70
0
  3
Divide (.5x) __..__..__..__..__..__..__..__.._
 72
65
 73
6
 40
15.875
 49
6.3499999999999996
 74
0
 49
-3.1749999999999998
 74
0
 49
0.0
 74
0
 49
-3.1749999999999998
 74
0
 49
0.0
 74
0
 49
-3.1749999999999998
 74
0
  0
LTYPE
  5
3C
100
AcDbSymbolTableRecord
100
AcDbLinetypeTableRecord
  2
DIVIDEX2
 70
0
  3
Divide (2x) ________  .  .  ________  .  .  _
 72
65
 73
6
 40
63.5
 49
25.3999999999999986
 74
0
 49
-12.6999999999999993
 74
0
 49
0.0
 74
0
 49
-12.6999999999999993
 74
0
 49
0.0
 74
0
 49
-12.6999999999999993
 74
0
  0
LTYPE
  5
3D
100
AcDbSymbolTableRecord
100
AcDbLinetypeTableRecord
  2
CENTER
 70
0
  3
Center ____ _ ____ _ ____ _ ____ _ ____ _ ____
 72
65
 73
4
 40
50.7999999999999972
 49
31.75
 74
0
 49
-6.3499999999999996
 74
0
 49
6.3499999999999996
 74
0
 49
-6.3499999999999996
 74
0
  0
LTYPE
  5
3E
100
AcDbSymbolTableRecord
100
AcDbLinetypeTableRecord
  2
CENTER2
 70
0
  3
Center (.5x) ___ _ ___ _ ___ _ ___ _ ___ _ ___
 72
65
 73
4
 40
28.5749999999999993
 49
19.0500000000000007
 74
0
 49
-3.1749999999999998
 74
0
 49
3.1749999999999998
 74
0
 49
-3.1749999999999998
 74
0
  0
LTYPE
  5
3F
100
AcDbSymbolTableRecord
100
AcDbLinetypeTableRecord
  2
CENTERX2
 70
0
  3
Center (2x) ________  __  ________  __  _____
 72
65
 73
4
 40
101.5999999999999943
 49
63.5
 74
0
 49
-12.6999999999999993
 74
0
 49
12.6999999999999993
 74
0
 49
-12.6999999999999993
 74
0
  0
LTYPE
  5
40
100
AcDbSymbolTableRecord
100
AcDbLinetypeTableRecord
  2
BORDER
 70
0
  3
Border __ __ . __ __ . __ __ . __ __ . __ __ .
 72
65
 73
6
 40
44.4500000000000028
 49
12.6999999999999993
 74
0
 49
-6.3499999999999996
 74
0
 49
12.6999999999999993
 74
0
 49
-6.3499999999999996
 74
0
 49
0.0
 74
0
 49
-6.3499999999999996
 74
0
  0
LTYPE
  5
41
100
AcDbSymbolTableRecord
100
AcDbLinetypeTableRecord
  2
BORDER2
 70
0
  3
Border (.5x) __.__.__.__.__.__.__.__.__.__.__.
 72
65
 73
6
 40
22.2250000000000014
 49
6.3499999999999996
 74
0
 49
-3.1749999999999998
 74
0
 49
6.3499999999999996
 74
0
 49
-3.1749999999999998
 74
0
 49
0.0
 74
0
 49
-3.1749999999999998
 74
0
  0
LTYPE
  5
42
100
AcDbSymbolTableRecord
100
AcDbLinetypeTableRecord
  2
BORDERX2
 70
0
  3
Border (2x) ____  ____  .  ____  ____  .  ___
 72
65
 73
6
 40
88.9000000000000057
 49
25.3999999999999986
 74
0
 49
-12.6999999999999993
 74
0
 49
25.3999999999999986
 74
0
 49
-12.6999999999999993
 74
0
 49
0.0
 74
0
 49
-12.6999999999999993
 74
0
  0
ENDTAB
  0
TABLE
  2
LAYER
  5
2
100
AcDbSymbolTable
 70
9
  0
LAYER
  5
10
100
AcDbSymbolTableRecord
100
AcDbLayerTableRecord
  2
0
 70
0
 62
7
  6
CONTINUOUS
370
0
390
F
  0
LAYER
  5
43
100
AcDbSymbolTableRecord
100
AcDbLayerTableRecord
  2
cache
 70
0
 62
9
  6
DOT
370
5
390
F
  0
LAYER
  5
44
100
AcDbSymbolTableRecord
100
AcDbLayerTableRecord
  2
axe
 70
0
 62
1
  6
CENTER
370
5
390
F
  0
LAYER
  5
45
100
AcDbSymbolTableRecord
100
AcDbLayerTableRecord
  2
noname
 70
0
 62
7
  6
CONTINUOUS
370
0
390
F
  0
LAYER
  5
46
100
AcDbSymbolTableRecord
100
AcDbLayerTableRecord
  2
construction
 70
0
 62
6
  6
CONTINUOUS
370
0
390
F
  0
LAYER
  5
47
100
AcDbSymbolTableRecord
100
AcDbLayerTableRecord
  2
cote
 70
0
 62
5
  6
CONTINUOUS
370
0
390
F
  0
LAYER
  5
48
100
AcDbSymbolTableRecord
100
AcDbLayerTableRecord
  2
optic
 70
0
 62
113
  6
CONTINUOUS
370
0
390
F
  0
LAYER
  5
49
100
AcDbSymbolTableRecord
100
AcDbLayerTableRecord
  2
vantilo
 70
0
 62
171
  6
CONTINUOUS
370
0
390
F
  0
LAYER
  5
4A
100
AcDbSymbolTableRecord
100
AcDbLayerTableRecord
  2
facade
 70
0
 62
5
  6
CONTINUOUS
370
0
390
F
  0
ENDTAB
  0
TABLE
  2
STYLE
  5
3
100
AcDbSymbolTable
 70
1
  0
STYLE
  5
11
100
AcDbSymbolTableRecord
100
AcDbTextStyleTableRecord
  2
Standard
 70
0
 40
0.0
 41
0.75
 50
0.0
 71
0
 42
2.5
  3
txt
  4

  0
ENDTAB
  0
TABLE
  2
VIEW
  5
6
100
AcDbSymbolTable
 70
0
  0
ENDTAB
  0
TABLE
  2
UCS
  5
7
100
AcDbSymbolTable
 70
0
  0
ENDTAB
  0
TABLE
  2
APPID
  5
9
100
AcDbSymbolTable
 70
1
  0
APPID
  5
12
100
AcDbSymbolTableRecord
100
AcDbRegAppTableRecord
  2
ACAD
 70
0
  0
ENDTAB
  0
TABLE
  2
DIMSTYLE
  5
A
100
AcDbSymbolTable
 70
1
100
AcDbDimStyleTable
 71
0
  0
DIMSTYLE
105
27
100
AcDbSymbolTableRecord
100
AcDbDimStyleTableRecord
  2
Standard
 41
2.0
 42
0.0
 43
3.75
 44
1.0
 70
0
 73
0
 74
0
 77
1
 78
8
140
2.0
141
2.5
143
0.03937007874016
147
0.0
171
3
172
1
271
2
272
2
274
3
278
44
283
0
284
8
340
11
  0
ENDTAB
  0
TABLE
  2
BLOCK_RECORD
  5
1
100
AcDbSymbolTable
 70
1
  0
BLOCK_RECORD
  5
1F
100
AcDbSymbolTableRecord
100
AcDbBlockTableRecord
  2
*Model_Space
340
22
  0
BLOCK_RECORD
  5
1B
100
AcDbSymbolTableRecord
100
AcDbBlockTableRecord
  2
*Paper_Space
340
1E
  0
BLOCK_RECORD
  5
23
100
AcDbSymbolTableRecord
100
AcDbBlockTableRecord
  2
*Paper_Space0
340
26
  0
ENDTAB
  0
ENDSEC
  0
SECTION
  2
BLOCKS
  0
BLOCK
  5
20
100
AcDbEntity
  8
0
100
AcDbBlockBegin
  2
*Model_Space
 70
0
 10
0.0
 20
0.0
 30
0.0
  3
*Model_Space
  1

  0
ENDBLK
  5
21
100
AcDbEntity
  8
0
100
AcDbBlockEnd
  0
BLOCK
  5
1C
100
AcDbEntity
 67
1
  8
0
100
AcDbBlockBegin
  2
*Paper_Space
 70
0
 10
0.0
 20
0.0
 30
0.0
  3
*Paper_Space
  1

  0
ENDBLK
  5
1D
100
AcDbEntity
 67
1
  8
0
100
AcDbBlockEnd
  0
BLOCK
  5
24
100
AcDbEntity
  8
0
100
AcDbBlockBegin
  2
*Paper_Space0
 70
0
 10
0.0
 20
0.0
 30
0.0
  3
*Paper_Space0
  1

  0
ENDBLK
  5
25
100
AcDbEntity
  8
0
100
AcDbBlockEnd
  0
ENDSEC
  0
SECTION
  2
ENTITIES
  0
LINE
  5
4B
100
AcDbEntity
100
AcDbLine
  8
noname
 62
256
370
-1
  6
ByLayer
 10
566.0
 20
10302.0
 30
0.0
 11
-43.0
 21
10302.0
 31
0.0
  0
LINE
  5
4C
100
AcDbEntity
100
AcDbLine
  8
noname
 62
256
370
-1
  6
ByLayer
 10
566.0
 20
10502.0
 30
0.0
 11
-42.0
 21
10502.0
 31
0.0
  0
LINE
  5
4D
100
AcDbEntity
100
AcDbLine
  8
noname
 62
256
370
-1
  6
ByLayer
 10
566.0
 20
10717.0
 30
0.0
 11
-42.0
 21
10717.0
 31
0.0
  0
LINE
  5
4E
100
AcDbEntity
100
AcDbLine
  8
noname
 62
256
370
-1
  6
ByLayer
 10
566.0
 20
10717.0
 30
0.0
 11
566.0
 21
10502.0
 31
0.0
  0
LINE
  5
4F
100
AcDbEntity
100
AcDbLine
  8
noname
 62
256
370
-1
  6
ByLayer
 10
766.0
 20
10302.0
 30
0.0
 11
981.0
 21
10302.0
 31
0.0
  0
LINE
  5
50
100
AcDbEntity
100
AcDbLine
  8
cache
 62
256
370
-1
  6
ByLayer
 10
556.0
 20
10512.0
 30
0.0
 11
556.0
 21
10707.0
 31
0.0
  0
LINE
  5
51
100
AcDbEntity
100
AcDbLine
  8
cache
 62
256
370
-1
  6
ByLayer
 10
426.0
 20
10512.0
 30
0.0
 11
426.0
 21
10707.0
 31
0.0
  0
LINE
  5
52
100
AcDbEntity
100
AcDbLine
  8
cache
 62
256
370
-1
  6
ByLayer
 10
416.0
 20
10512.0
 30
0.0
 11
416.0
 21
10707.0
 31
0.0
  0
LINE
  5
53
100
AcDbEntity
100
AcDbLine
  8
cache
 62
256
370
-1
  6
ByLayer
 10
-33.0
 20
10707.0
 30
0.0
 11
-33.0
 21
10512.0
 31
0.0
  0
LINE
  5
54
100
AcDbEntity
100
AcDbLine
  8
noname
 62
256
370
-1
  6
ByLayer
 10
566.0
 20
9752.0
 30
0.0
 11
-42.0
 21
9752.0
 31
0.0
  0
LINE
  5
55
100
AcDbEntity
100
AcDbLine
  8
noname
 62
256
370
-1
  6
ByLayer
 10
566.0
 20
9537.0
 30
0.0
 11
-42.0
 21
9537.0
 31
0.0
  0
LINE
  5
56
100
AcDbEntity
100
AcDbLine
  8
noname
 62
256
370
-1
  6
ByLayer
 10
566.0
 20
9537.0
 30
0.0
 11
566.0
 21
9752.0
 31
0.0
  0
LINE
  5
57
100
AcDbEntity
100
AcDbLine
  8
noname
 62
256
370
-1
  6
ByLayer
 10
-42.0
 20
9537.0
 30
0.0
 11
-42.0
 21
9752.0
 31
0.0
  0
LINE
  5
58
100
AcDbEntity
100
AcDbLine
  8
cache
 62
256
370
-1
  6
ByLayer
 10
556.0
 20
9742.0
 30
0.0
 11
556.0
 21
9547.0
 31
0.0
  0
LINE
  5
59
100
AcDbEntity
100
AcDbLine
  8
cache
 62
256
370
-1
  6
ByLayer
 10
426.0
 20
9742.0
 30
0.0
 11
426.0
 21
9547.0
 31
0.0
  0
LINE
  5
5A
100
AcDbEntity
100
AcDbLine
  8
cache
 62
256
370
-1
  6
ByLayer
 10
415.0
 20
9742.0
 30
0.0
 11
416.0
 21
9547.0
 31
0.0
  0
LINE
  5
5B
100
AcDbEntity
100
AcDbLine
  8
cache
 62
256
370
-1
  6
ByLayer
 10
-32.0
 20
9547.0
 30
0.0
 11
-33.0
 21
9742.0
 31
0.0
  0
LINE
  5
5C
100
AcDbEntity
100
AcDbLine
  8
cache
 62
256
370
-1
  6
ByLayer
 10
-33.0
 20
10512.0
 30
0.0
 11
-33.0
 21
10512.0
 31
0.0
  0
LINE
  5
5D
100
AcDbEntity
100
AcDbLine
  8
noname
 62
256
370
-1
  6
ByLayer
 10
566.0
 20
10502.0
 30
0.0
 11
566.0
 21
10502.0
 31
0.0
  0
LINE
  5
5E
100
AcDbEntity
100
AcDbLine
  8
noname
 62
256
370
-1
  6
ByLayer
 10
566.0
 20
10502.0
 30
0.0
 11
-42.0
 21
10502.0
 31
0.0
  0
LINE
  5
5F
100
AcDbEntity
100
AcDbLine
  8
noname
 62
256
370
-1
  6
ByLayer
 10
-42.0
 20
10502.0
 30
0.0
 11
-42.0
 21
10717.0
 31
0.0
  0
LINE
  5
60
100
AcDbEntity
100
AcDbLine
  8
cache
 62
256
370
-1
  6
ByLayer
 10
-33.0
 20
10512.0
 30
0.0
 11
-42.0
 21
10502.0
 31
0.0
  0
LINE
  5
61
100
AcDbEntity
100
AcDbLine
  8
cache
 62
256
370
-1
  6
ByLayer
 10
-42.0
 20
10717.0
 30
0.0
 11
-42.0
 21
10717.0
 31
0.0
  0
LINE
  5
62
100
AcDbEntity
100
AcDbLine
  8
cache
 62
256
370
-1
  6
ByLayer
 10
-33.0
 20
10707.0
 30
0.0
 11
-33.0
 21
10707.0
 31
0.0
  0
LINE
  5
63
100
AcDbEntity
100
AcDbLine
  8
cache
 62
256
370
-1
  6
ByLayer
 10
-42.0
 20
10717.0
 30
0.0
 11
-42.0
 21
10717.0
 31
0.0
  0
LINE
  5
64
100
AcDbEntity
100
AcDbLine
  8
cache
 62
256
370
-1
  6
ByLayer
 10
-33.0
 20
10707.0
 30
0.0
 11
-33.0
 21
10707.0
 31
0.0
  0
LINE
  5
65
100
AcDbEntity
100
AcDbLine
  8
cache
 62
256
370
-1
  6
ByLayer
 10
-42.0
 20
10717.0
 30
0.0
 11
-42.0
 21
10717.0
 31
0.0
  0
LINE
  5
66
100
AcDbEntity
100
AcDbLine
  8
cache
 62
256
370
-1
  6
ByLayer
 10
-42.0
 20
10717.0
 30
0.0
 11
-33.0
 21
10707.0
 31
0.0
  0
LINE
  5
67
100
AcDbEntity
100
AcDbLine
  8
cache
 62
256
370
-1
  6
ByLayer
 10
556.0
 20
10707.0
 30
0.0
 11
566.0
 21
10717.0
 31
0.0
  0
LINE
  5
68
100
AcDbEntity
100
AcDbLine
  8
cache
 62
256
370
-1
  6
ByLayer
 10
556.0
 20
10512.0
 30
0.0
 11
566.0
 21
10502.0
 31
0.0
  0
LINE
  5
69
100
AcDbEntity
100
AcDbLine
  8
cache
 62
256
370
-1
  6
ByLayer
 10
556.0
 20
10292.0
 30
0.0
 11
566.0
 21
10302.0
 31
0.0
  0
LINE
  5
6A
100
AcDbEntity
100
AcDbLine
  8
cache
 62
256
370
-1
  6
ByLayer
 10
556.0
 20
9742.0
 30
0.0
 11
566.0
 21
9752.0
 31
0.0
  0
LINE
  5
6B
100
AcDbEntity
100
AcDbLine
  8
cache
 62
256
370
-1
  6
ByLayer
 10
566.0
 20
9537.0
 30
0.0
 11
556.0
 21
9547.0
 31
0.0
  0
LINE
  5
6C
100
AcDbEntity
100
AcDbLine
  8
cache
 62
256
370
-1
  6
ByLayer
 10
-42.0
 20
9537.0
 30
0.0
 11
-32.0
 21
9547.0
 31
0.0
  0
LINE
  5
6D
100
AcDbEntity
100
AcDbLine
  8
cache
 62
256
370
-1
  6
ByLayer
 10
-42.0
 20
9752.0
 30
0.0
 11
-33.0
 21
9742.0
 31
0.0
  0
LINE
  5
6E
100
AcDbEntity
100
AcDbLine
  8
cache
 62
256
370
-1
  6
ByLayer
 10
971.0
 20
10292.0
 30
0.0
 11
981.0
 21
10302.0
 31
0.0
  0
LINE
  5
6F
100
AcDbEntity
100
AcDbLine
  8
cache
 62
256
370
-1
  6
ByLayer
 10
776.0
 20
10292.0
 30
0.0
 11
766.0
 21
10302.0
 31
0.0
  0
LINE
  5
70
100
AcDbEntity
100
AcDbLine
  8
cache
 62
256
370
-1
  6
ByLayer
 10
556.0
 20
10707.0
 30
0.0
 11
-33.0
 21
10707.0
 31
0.0
  0
LINE
  5
71
100
AcDbEntity
100
AcDbLine
  8
cache
 62
256
370
-1
  6
ByLayer
 10
556.0
 20
9547.0
 30
0.0
 11
-32.0
 21
9547.0
 31
0.0
  0
LINE
  5
72
100
AcDbEntity
100
AcDbLine
  8
cache
 62
256
370
-1
  6
ByLayer
 10
556.0
 20
9742.0
 30
0.0
 11
-33.0
 21
9742.0
 31
0.0
  0
LINE
  5
73
100
AcDbEntity
100
AcDbLine
  8
cache
 62
256
370
-1
  6
ByLayer
 10
776.0
 20
10292.0
 30
0.0
 11
971.0
 21
10292.0
 31
0.0
  0
LINE
  5
74
100
AcDbEntity
100
AcDbLine
  8
cache
 62
256
370
-1
  6
ByLayer
 10
556.0
 20
10512.0
 30
0.0
 11
-33.0
 21
10512.0
 31
0.0
  0
LINE
  5
75
100
AcDbEntity
100
AcDbLine
  8
cache
 62
256
370
-1
  6
ByLayer
 10
-33.0
 20
10292.0
 30
0.0
 11
-43.0
 21
10302.0
 31
0.0
  0
LINE
  5
76
100
AcDbEntity
100
AcDbLine
  8
cache
 62
256
370
-1
  6
ByLayer
 10
556.0
 20
10292.0
 30
0.0
 11
-33.0
 21
10292.0
 31
0.0
  0
LINE
  5
77
100
AcDbEntity
100
AcDbLine
  8
axe
 62
256
370
-1
  6
ByLayer
 10
-42.0
 20
10099.0
 30
0.0
 11
566.0
 21
10099.0
 31
0.0
  0
LINE
  5
78
100
AcDbEntity
100
AcDbLine
  8
axe
 62
256
370
-1
  6
ByLayer
 10
566.0
 20
10099.0
 30
0.0
 11
566.0
 21
10099.0
 31
0.0
  0
LINE
  5
79
100
AcDbEntity
100
AcDbLine
  8
axe
 62
256
370
-1
  6
ByLayer
 10
1148.0
 20
10099.0
 30
0.0
 11
1148.0
 21
10099.0
 31
0.0
  0
LINE
  5
7A
100
AcDbEntity
100
AcDbLine
  8
axe
 62
256
370
-1
  6
ByLayer
 10
1148.0
 20
10099.0
 30
0.0
 11
566.0
 21
10099.0
 31
0.0
  0
LINE
  5
7B
100
AcDbEntity
100
AcDbLine
  8
axe
 62
256
370
-1
  6
ByLayer
 10
-42.0
 20
10099.0
 30
0.0
 11
-186.0
 21
10099.0
 31
0.0
  0
LINE
  5
7C
100
AcDbEntity
100
AcDbLine
  8
axe
 62
256
370
-1
  6
ByLayer
 10
52.0
 20
9952.0
 30
0.0
 11
52.0
 21
9829.0
 31
0.0
  0
LINE
  5
7D
100
AcDbEntity
100
AcDbLine
  8
axe
 62
256
370
-1
  6
ByLayer
 10
52.0
 20
10099.0
 30
0.0
 11
52.0
 21
9952.0
 31
0.0
  0
LINE
  5
7E
100
AcDbEntity
100
AcDbLine
  8
axe
 62
256
370
-1
  6
ByLayer
 10
876.0
 20
9952.0
 30
0.0
 11
876.0
 21
10302.0
 31
0.0
  0
LINE
  5
7F
100
AcDbEntity
100
AcDbLine
  8
axe
 62
256
370
-1
  6
ByLayer
 10
876.0
 20
10302.0
 30
0.0
 11
876.0
 21
10416.0
 31
0.0
  0
LINE
  5
80
100
AcDbEntity
100
AcDbLine
  8
axe
 62
256
370
-1
  6
ByLayer
 10
876.0
 20
9952.0
 30
0.0
 11
876.0
 21
9851.0
 31
0.0
  0
LINE
  5
81
100
AcDbEntity
100
AcDbLine
  8
axe
 62
256
370
-1
  6
ByLayer
 10
566.0
 20
10612.0
 30
0.0
 11
-41.0
 21
10612.0
 31
0.0
  0
LINE
  5
82
100
AcDbEntity
100
AcDbLine
  8
axe
 62
256
370
-1
  6
ByLayer
 10
-41.0
 20
10612.0
 30
0.0
 11
-154.0
 21
10612.0
 31
0.0
  0
LINE
  5
83
100
AcDbEntity
100
AcDbLine
  8
axe
 62
256
370
-1
  6
ByLayer
 10
566.0
 20
10612.0
 30
0.0
 11
672.0
 21
10612.0
 31
0.0
  0
LINE
  5
84
100
AcDbEntity
100
AcDbLine
  8
axe
 62
256
370
-1
  6
ByLayer
 10
53.0
 20
10567.0
 30
0.0
 11
53.0
 21
10657.0
 31
0.0
  0
CIRCLE
  5
85
100
AcDbEntity
100
AcDbCircle
  8
noname
 62
256
370
-1
  6
ByLayer
 10
53.0
 20
10612.0
 30
0.0
 40
0.0
  0
CIRCLE
  5
86
100
AcDbEntity
100
AcDbCircle
  8
noname
 62
256
370
-1
  6
ByLayer
 10
53.0
 20
10612.0
 30
0.0
 40
0.0
  0
CIRCLE
  5
87
100
AcDbEntity
100
AcDbCircle
  8
noname
 62
256
370
-1
  6
ByLayer
 10
53.0
 20
10612.0
 30
0.0
 40
0.0
  0
CIRCLE
  5
88
100
AcDbEntity
100
AcDbCircle
  8
noname
 62
256
370
-1
  6
ByLayer
 10
53.0
 20
10612.0
 30
0.0
 40
0.0
  0
CIRCLE
  5
89
100
AcDbEntity
100
AcDbCircle
  8
noname
 62
256
370
-1
  6
ByLayer
 10
53.0
 20
10612.0
 30
0.0
 40
0.0
  0
CIRCLE
  5
8A
100
AcDbEntity
100
AcDbCircle
  8
noname
 62
256
370
-1
  6
ByLayer
 10
-42.0
 20
10612.0
 30
0.0
 40
0.0
  0
CIRCLE
  5
8B
100
AcDbEntity
100
AcDbCircle
  8
noname
 62
256
370
-1
  6
ByLayer
 10
53.0
 20
10612.0
 30
0.0
 40
55.0
  0
LINE
  5
8C
100
AcDbEntity
100
AcDbLine
  8
cache
 62
256
370
-1
  6
ByLayer
 10
821.0
 20
10161.0
 30
0.0
 11
930.0
 21
10161.0
 31
0.0
  0
LINE
  5
8D
100
AcDbEntity
100
AcDbLine
  8
cache
 62
256
370
-1
  6
ByLayer
 10
930.0
 20
10161.0
 30
0.0
 11
930.0
 21
10036.0
 31
0.0
  0
LINE
  5
8E
100
AcDbEntity
100
AcDbLine
  8
cache
 62
256
370
-1
  6
ByLayer
 10
930.0
 20
10036.0
 30
0.0
 11
821.0
 21
10036.0
 31
0.0
  0
LINE
  5
8F
100
AcDbEntity
100
AcDbLine
  8
cache
 62
256
370
-1
  6
ByLayer
 10
821.0
 20
10036.0
 30
0.0
 11
821.0
 21
10161.0
 31
0.0
  0
LINE
  5
90
100
AcDbEntity
100
AcDbLine
  8
cache
 62
256
370
-1
  6
ByLayer
 10
416.0
 20
10161.0
 30
0.0
 11
426.0
 21
10161.0
 31
0.0
  0
LINE
  5
91
100
AcDbEntity
100
AcDbLine
  8
cache
 62
256
370
-1
  6
ByLayer
 10
416.0
 20
10161.0
 30
0.0
 11
426.0
 21
10161.0
 31
0.0
  0
LINE
  5
92
100
AcDbEntity
100
AcDbLine
  8
cache
 62
256
370
-1
  6
ByLayer
 10
416.0
 20
10161.0
 30
0.0
 11
426.0
 21
10161.0
 31
0.0
  0
LINE
  5
93
100
AcDbEntity
100
AcDbLine
  8
cache
 62
256
370
-1
  6
ByLayer
 10
416.0
 20
10161.0
 30
0.0
 11
426.0
 21
10161.0
 31
0.0
  0
LINE
  5
94
100
AcDbEntity
100
AcDbLine
  8
cache
 62
256
370
-1
  6
ByLayer
 10
416.0
 20
10161.0
 30
0.0
 11
426.0
 21
10161.0
 31
0.0
  0
LINE
  5
95
100
AcDbEntity
100
AcDbLine
  8
cache
 62
256
370
-1
  6
ByLayer
 10
426.0
 20
10161.0
 30
0.0
 11
416.0
 21
10161.0
 31
0.0
  0
LINE
  5
96
100
AcDbEntity
100
AcDbLine
  8
cache
 62
256
370
-1
  6
ByLayer
 10
416.0
 20
10161.0
 30
0.0
 11
416.0
 21
10161.0
 31
0.0
  0
LINE
  5
97
100
AcDbEntity
100
AcDbLine
  8
cache
 62
256
370
-1
  6
ByLayer
 10
416.0
 20
10036.0
 30
0.0
 11
426.0
 21
10036.0
 31
0.0
  0
DIMENSION
  5
98
100
AcDbEntity
  8
cote
 62
256
370
-1
  6
ByLayer
100
AcDbDimension
 10
566.0
 20
10438.0
 30
0.0
 11
262.0
 21
10439.0
 31
0.0
 70
1
 71
5
 72
1
 41
1.0
 42
0.0
  1

  3
Standard
100
AcDbAlignedDimension
 13
-42.0
 23
10502.0
 33
0.0
 14
566.0
 24
10502.0
 34
0.0
  0
DIMENSION
  5
99
100
AcDbEntity
  8
cote
 62
256
370
-1
  6
ByLayer
100
AcDbDimension
 10
-169.0
 20
10717.0
 30
0.0
 11
-170.0
 21
10609.0
 31
0.0
 70
1
 71
5
 72
1
 41
1.0
 42
0.0
  1

  3
Standard
100
AcDbAlignedDimension
 13
-42.0
 23
10502.0
 33
0.0
 14
-42.0
 24
10717.0
 34
0.0
  0
DIMENSION
  5
9A
100
AcDbEntity
  8
cote
 62
256
370
-1
  6
ByLayer
100
AcDbDimension
 10
51.0
 20
9835.0
 30
0.0
 11
4.0
 21
9836.0
 31
0.0
 70
1
 71
5
 72
1
 41
1.0
 42
0.0
  1

  3
Standard
100
AcDbAlignedDimension
 13
-43.0
 23
9952.0
 33
0.0
 14
52.0
 24
9952.0
 34
0.0
  0
DIMENSION
  5
9B
100
AcDbEntity
  8
cote
 62
256
370
-1
  6
ByLayer
100
AcDbDimension
 10
876.0
 20
9822.0
 30
0.0
 11
821.0
 21
9823.0
 31
0.0
 70
1
 71
5
 72
1
 41
1.0
 42
0.0
  1

  3
Standard
100
AcDbAlignedDimension
 13
766.0
 23
9952.0
 33
0.0
 14
876.0
 24
9952.0
 34
0.0
  0
LINE
  5
9C
100
AcDbEntity
100
AcDbLine
  8
axe
 62
256
370
-1
  6
ByLayer
 10
53.0
 20
9580.0
 30
0.0
 11
53.0
 21
9708.0
 31
0.0
  0
LINE
  5
9D
100
AcDbEntity
100
AcDbLine
  8
axe
 62
256
370
-1
  6
ByLayer
 10
566.0
 20
9642.0
 30
0.0
 11
-14.0
 21
9642.0
 31
0.0
  0
CIRCLE
  5
9E
100
AcDbEntity
100
AcDbCircle
  8
cache
 62
256
370
-1
  6
ByLayer
 10
53.0
 20
9642.0
 30
0.0
 40
55.0
  0
CIRCLE
  5
9F
100
AcDbEntity
100
AcDbCircle
  8
noname
 62
256
370
-1
  6
ByLayer
 10
491.0
 20
9597.0
 30
0.0
 40
40.0
  0
CIRCLE
  5
A0
100
AcDbEntity
100
AcDbCircle
  8
noname
 62
256
370
-1
  6
ByLayer
 10
361.0
 20
9597.0
 30
0.0
 40
40.0
  0
CIRCLE
  5
A1
100
AcDbEntity
100
AcDbCircle
  8
cache
 62
256
370
-1
  6
ByLayer
 10
491.0
 20
10657.0
 30
0.0
 40
40.0
  0
CIRCLE
  5
A2
100
AcDbEntity
100
AcDbCircle
  8
cache
 62
256
370
-1
  6
ByLayer
 10
361.0
 20
10657.0
 30
0.0
 40
40.0
  0
CIRCLE
  5
A3
100
AcDbEntity
100
AcDbCircle
  8
cache
 62
256
370
-1
  6
ByLayer
 10
325.0
 20
10693.0
 30
0.0
 40
2.0
  0
CIRCLE
  5
A4
100
AcDbEntity
100
AcDbCircle
  8
cache
 62
256
370
-1
  6
ByLayer
 10
325.0
 20
10621.0
 30
0.0
 40
2.0
  0
CIRCLE
  5
A5
100
AcDbEntity
100
AcDbCircle
  8
cache
 62
256
370
-1
  6
ByLayer
 10
397.0
 20
10621.0
 30
0.0
 40
2.0
  0
CIRCLE
  5
A6
100
AcDbEntity
100
AcDbCircle
  8
cache
 62
256
370
-1
  6
ByLayer
 10
397.0
 20
10693.0
 30
0.0
 40
2.0
  0
CIRCLE
  5
A7
100
AcDbEntity
100
AcDbCircle
  8
cache
 62
256
370
-1
  6
ByLayer
 10
455.0
 20
10693.0
 30
0.0
 40
2.0
  0
CIRCLE
  5
A8
100
AcDbEntity
100
AcDbCircle
  8
cache
 62
256
370
-1
  6
ByLayer
 10
455.0
 20
10621.0
 30
0.0
 40
2.0
  0
CIRCLE
  5
A9
100
AcDbEntity
100
AcDbCircle
  8
cache
 62
256
370
-1
  6
ByLayer
 10
527.0
 20
10621.0
 30
0.0
 40
2.0
  0
CIRCLE
  5
AA
100
AcDbEntity
100
AcDbCircle
  8
cache
 62
256
370
-1
  6
ByLayer
 10
527.0
 20
10693.0
 30
0.0
 40
2.0
  0
CIRCLE
  5
AB
100
AcDbEntity
100
AcDbCircle
  8
noname
 62
256
370
-1
  6
ByLayer
 10
325.0
 20
9561.0
 30
0.0
 40
2.0
  0
CIRCLE
  5
AC
100
AcDbEntity
100
AcDbCircle
  8
noname
 62
256
370
-1
  6
ByLayer
 10
397.0
 20
9561.0
 30
0.0
 40
2.0
  0
CIRCLE
  5
AD
100
AcDbEntity
100
AcDbCircle
  8
noname
 62
256
370
-1
  6
ByLayer
 10
397.0
 20
9633.0
 30
0.0
 40
2.0
  0
CIRCLE
  5
AE
100
AcDbEntity
100
AcDbCircle
  8
noname
 62
256
370
-1
  6
ByLayer
 10
325.0
 20
9633.0
 30
0.0
 40
2.0
  0
CIRCLE
  5
AF
100
AcDbEntity
100
AcDbCircle
  8
noname
 62
256
370
-1
  6
ByLayer
 10
527.0
 20
9561.0
 30
0.0
 40
2.0
  0
CIRCLE
  5
B0
100
AcDbEntity
100
AcDbCircle
  8
noname
 62
256
370
-1
  6
ByLayer
 10
455.0
 20
9561.0
 30
0.0
 40
2.0
  0
CIRCLE
  5
B1
100
AcDbEntity
100
AcDbCircle
  8
noname
 62
256
370
-1
  6
ByLayer
 10
455.0
 20
9633.0
 30
0.0
 40
2.0
  0
CIRCLE
  5
B2
100
AcDbEntity
100
AcDbCircle
  8
noname
 62
256
370
-1
  6
ByLayer
 10
527.0
 20
9633.0
 30
0.0
 40
2.0
  0
LINE
  5
B3
100
AcDbEntity
100
AcDbLine
  8
axe
 62
256
370
-1
  6
ByLayer
 10
361.0
 20
10693.0
 30
0.0
 11
361.0
 21
10621.0
 31
0.0
  0
LINE
  5
B4
100
AcDbEntity
100
AcDbLine
  8
axe
 62
256
370
-1
  6
ByLayer
 10
397.0
 20
10657.0
 30
0.0
 11
325.0
 21
10657.0
 31
0.0
  0
LINE
  5
B5
100
AcDbEntity
100
AcDbLine
  8
axe
 62
256
370
-1
  6
ByLayer
 10
491.0
 20
10693.0
 30
0.0
 11
491.0
 21
10621.0
 31
0.0
  0
LINE
  5
B6
100
AcDbEntity
100
AcDbLine
  8
axe
 62
256
370
-1
  6
ByLayer
 10
527.0
 20
10657.0
 30
0.0
 11
455.0
 21
10657.0
 31
0.0
  0
LINE
  5
B7
100
AcDbEntity
100
AcDbLine
  8
axe
 62
256
370
-1
  6
ByLayer
 10
325.0
 20
10694.0
 30
0.0
 11
325.0
 21
10691.0
 31
0.0
  0
LINE
  5
B8
100
AcDbEntity
100
AcDbLine
  8
axe
 62
256
370
-1
  6
ByLayer
 10
397.0
 20
10693.0
 30
0.0
 11
397.0
 21
10692.0
 31
0.0
  0
LINE
  5
B9
100
AcDbEntity
100
AcDbLine
  8
axe
 62
256
370
-1
  6
ByLayer
 10
397.0
 20
10693.0
 30
0.0
 11
396.0
 21
10693.0
 31
0.0
  0
LINE
  5
BA
100
AcDbEntity
100
AcDbLine
  8
axe
 62
256
370
-1
  6
ByLayer
 10
455.0
 20
10693.0
 30
0.0
 11
455.0
 21
10691.0
 31
0.0
  0
LINE
  5
BB
100
AcDbEntity
100
AcDbLine
  8
axe
 62
256
370
-1
  6
ByLayer
 10
456.0
 20
10693.0
 30
0.0
 11
453.0
 21
10693.0
 31
0.0
  0
LINE
  5
BC
100
AcDbEntity
100
AcDbLine
  8
axe
 62
256
370
-1
  6
ByLayer
 10
527.0
 20
10694.0
 30
0.0
 11
527.0
 21
10691.0
 31
0.0
  0
LINE
  5
BD
100
AcDbEntity
100
AcDbLine
  8
axe
 62
256
370
-1
  6
ByLayer
 10
528.0
 20
10693.0
 30
0.0
 11
525.0
 21
10693.0
 31
0.0
  0
LINE
  5
BE
100
AcDbEntity
100
AcDbLine
  8
axe
 62
256
370
-1
  6
ByLayer
 10
527.0
 20
10622.0
 30
0.0
 11
527.0
 21
10619.0
 31
0.0
  0
LINE
  5
BF
100
AcDbEntity
100
AcDbLine
  8
axe
 62
256
370
-1
  6
ByLayer
 10
528.0
 20
10621.0
 30
0.0
 11
525.0
 21
10621.0
 31
0.0
  0
LINE
  5
C0
100
AcDbEntity
100
AcDbLine
  8
axe
 62
256
370
-1
  6
ByLayer
 10
455.0
 20
10622.0
 30
0.0
 11
455.0
 21
10619.0
 31
0.0
  0
LINE
  5
C1
100
AcDbEntity
100
AcDbLine
  8
axe
 62
256
370
-1
  6
ByLayer
 10
456.0
 20
10621.0
 30
0.0
 11
453.0
 21
10621.0
 31
0.0
  0
LINE
  5
C2
100
AcDbEntity
100
AcDbLine
  8
axe
 62
256
370
-1
  6
ByLayer
 10
397.0
 20
10621.0
 30
0.0
 11
397.0
 21
10619.0
 31
0.0
  0
LINE
  5
C3
100
AcDbEntity
100
AcDbLine
  8
axe
 62
256
370
-1
  6
ByLayer
 10
398.0
 20
10621.0
 30
0.0
 11
395.0
 21
10621.0
 31
0.0
  0
LINE
  5
C4
100
AcDbEntity
100
AcDbLine
  8
axe
 62
256
370
-1
  6
ByLayer
 10
325.0
 20
10622.0
 30
0.0
 11
325.0
 21
10619.0
 31
0.0
  0
LINE
  5
C5
100
AcDbEntity
100
AcDbLine
  8
axe
 62
256
370
-1
  6
ByLayer
 10
326.0
 20
10621.0
 30
0.0
 11
323.0
 21
10621.0
 31
0.0
  0
LINE
  5
C6
100
AcDbEntity
100
AcDbLine
  8
axe
 62
256
370
-1
  6
ByLayer
 10
361.0
 20
9633.0
 30
0.0
 11
361.0
 21
9561.0
 31
0.0
  0
LINE
  5
C7
100
AcDbEntity
100
AcDbLine
  8
axe
 62
256
370
-1
  6
ByLayer
 10
397.0
 20
9597.0
 30
0.0
 11
325.0
 21
9597.0
 31
0.0
  0
LINE
  5
C8
100
AcDbEntity
100
AcDbLine
  8
axe
 62
256
370
-1
  6
ByLayer
 10
491.0
 20
9633.0
 30
0.0
 11
491.0
 21
9561.0
 31
0.0
  0
LINE
  5
C9
100
AcDbEntity
100
AcDbLine
  8
axe
 62
256
370
-1
  6
ByLayer
 10
527.0
 20
9597.0
 30
0.0
 11
455.0
 21
9597.0
 31
0.0
  0
LINE
  5
CA
100
AcDbEntity
100
AcDbLine
  8
axe
 62
256
370
-1
  6
ByLayer
 10
325.0
 20
9633.0
 30
0.0
 11
325.0
 21
9631.0
 31
0.0
  0
LINE
  5
CB
100
AcDbEntity
100
AcDbLine
  8
axe
 62
256
370
-1
  6
ByLayer
 10
325.0
 20
9633.0
 30
0.0
 11
324.0
 21
9633.0
 31
0.0
  0
LINE
  5
CC
100
AcDbEntity
100
AcDbLine
  8
axe
 62
256
370
-1
  6
ByLayer
 10
397.0
 20
9634.0
 30
0.0
 11
397.0
 21
9632.0
 31
0.0
  0
LINE
  5
CD
100
AcDbEntity
100
AcDbLine
  8
axe
 62
256
370
-1
  6
ByLayer
 10
398.0
 20
9633.0
 30
0.0
 11
396.0
 21
9633.0
 31
0.0
  0
LINE
  5
CE
100
AcDbEntity
100
AcDbLine
  8
axe
 62
256
370
-1
  6
ByLayer
 10
455.0
 20
9633.0
 30
0.0
 11
455.0
 21
9631.0
 31
0.0
  0
LINE
  5
CF
100
AcDbEntity
100
AcDbLine
  8
axe
 62
256
370
-1
  6
ByLayer
 10
456.0
 20
9633.0
 30
0.0
 11
454.0
 21
9633.0
 31
0.0
  0
LINE
  5
D0
100
AcDbEntity
100
AcDbLine
  8
axe
 62
256
370
-1
  6
ByLayer
 10
527.0
 20
9634.0
 30
0.0
 11
527.0
 21
9631.0
 31
0.0
  0
LINE
  5
D1
100
AcDbEntity
100
AcDbLine
  8
axe
 62
256
370
-1
  6
ByLayer
 10
528.0
 20
9633.0
 30
0.0
 11
525.0
 21
9633.0
 31
0.0
  0
LINE
  5
D2
100
AcDbEntity
100
AcDbLine
  8
axe
 62
256
370
-1
  6
ByLayer
 10
527.0
 20
9562.0
 30
0.0
 11
527.0
 21
9559.0
 31
0.0
  0
LINE
  5
D3
100
AcDbEntity
100
AcDbLine
  8
axe
 62
256
370
-1
  6
ByLayer
 10
528.0
 20
9561.0
 30
0.0
 11
525.0
 21
9561.0
 31
0.0
  0
LINE
  5
D4
100
AcDbEntity
100
AcDbLine
  8
axe
 62
256
370
-1
  6
ByLayer
 10
455.0
 20
9562.0
 30
0.0
 11
455.0
 21
9559.0
 31
0.0
  0
LINE
  5
D5
100
AcDbEntity
100
AcDbLine
  8
axe
 62
256
370
-1
  6
ByLayer
 10
456.0
 20
9561.0
 30
0.0
 11
454.0
 21
9561.0
 31
0.0
  0
LINE
  5
D6
100
AcDbEntity
100
AcDbLine
  8
axe
 62
256
370
-1
  6
ByLayer
 10
397.0
 20
9562.0
 30
0.0
 11
397.0
 21
9559.0
 31
0.0
  0
LINE
  5
D7
100
AcDbEntity
100
AcDbLine
  8
axe
 62
256
370
-1
  6
ByLayer
 10
398.0
 20
9561.0
 30
0.0
 11
395.0
 21
9561.0
 31
0.0
  0
LINE
  5
D8
100
AcDbEntity
100
AcDbLine
  8
axe
 62
256
370
-1
  6
ByLayer
 10
325.0
 20
9561.0
 30
0.0
 11
325.0
 21
9559.0
 31
0.0
  0
LINE
  5
D9
100
AcDbEntity
100
AcDbLine
  8
axe
 62
256
370
-1
  6
ByLayer
 10
325.0
 20
9561.0
 30
0.0
 11
323.0
 21
9561.0
 31
0.0
  0
LINE
  5
DA
100
AcDbEntity
100
AcDbLine
  8
axe
 62
256
370
-1
  6
ByLayer
 10
361.0
 20
10340.0
 30
0.0
 11
361.0
 21
10242.0
 31
0.0
  0
LINE
  5
DB
100
AcDbEntity
100
AcDbLine
  8
axe
 62
256
370
-1
  6
ByLayer
 10
491.0
 20
10339.0
 30
0.0
 11
491.0
 21
10245.0
 31
0.0
  0
LINE
  5
DC
100
AcDbEntity
100
AcDbLine
  8
cache
 62
256
370
-1
  6
ByLayer
 10
321.0
 20
10302.0
 30
0.0
 11
321.0
 21
10292.0
 31
0.0
  0
LINE
  5
DD
100
AcDbEntity
100
AcDbLine
  8
cache
 62
256
370
-1
  6
ByLayer
 10
401.0
 20
10302.0
 30
0.0
 11
401.0
 21
10292.0
 31
0.0
  0
LINE
  5
DE
100
AcDbEntity
100
AcDbLine
  8
cache
 62
256
370
-1
  6
ByLayer
 10
451.0
 20
10302.0
 30
0.0
 11
451.0
 21
10292.0
 31
0.0
  0
LINE
  5
DF
100
AcDbEntity
100
AcDbLine
  8
cache
 62
256
370
-1
  6
ByLayer
 10
531.0
 20
10302.0
 30
0.0
 11
531.0
 21
10292.0
 31
0.0
  0
LINE
  5
E0
100
AcDbEntity
100
AcDbLine
  8
axe
 62
256
370
-1
  6
ByLayer
 10
325.0
 20
10315.0
 30
0.0
 11
325.0
 21
10276.0
 31
0.0
  0
LINE
  5
E1
100
AcDbEntity
100
AcDbLine
  8
axe
 62
256
370
-1
  6
ByLayer
 10
397.0
 20
10315.0
 30
0.0
 11
397.0
 21
10277.0
 31
0.0
  0
LINE
  5
E2
100
AcDbEntity
100
AcDbLine
  8
axe
 62
256
370
-1
  6
ByLayer
 10
455.0
 20
10316.0
 30
0.0
 11
455.0
 21
10278.0
 31
0.0
  0
LINE
  5
E3
100
AcDbEntity
100
AcDbLine
  8
axe
 62
256
370
-1
  6
ByLayer
 10
527.0
 20
10319.0
 30
0.0
 11
527.0
 21
10275.0
 31
0.0
  0
LINE
  5
E4
100
AcDbEntity
100
AcDbLine
  8
cache
 62
256
370
-1
  6
ByLayer
 10
323.0
 20
10302.0
 30
0.0
 11
323.0
 21
10292.0
 31
0.0
  0
LINE
  5
E5
100
AcDbEntity
100
AcDbLine
  8
cache
 62
256
370
-1
  6
ByLayer
 10
327.0
 20
10302.0
 30
0.0
 11
327.0
 21
10292.0
 31
0.0
  0
LINE
  5
E6
100
AcDbEntity
100
AcDbLine
  8
cache
 62
256
370
-1
  6
ByLayer
 10
395.0
 20
10302.0
 30
0.0
 11
395.0
 21
10292.0
 31
0.0
  0
LINE
  5
E7
100
AcDbEntity
100
AcDbLine
  8
cache
 62
256
370
-1
  6
ByLayer
 10
399.0
 20
10302.0
 30
0.0
 11
399.0
 21
10292.0
 31
0.0
  0
LINE
  5
E8
100
AcDbEntity
100
AcDbLine
  8
cache
 62
256
370
-1
  6
ByLayer
 10
453.0
 20
10302.0
 30
0.0
 11
453.0
 21
10292.0
 31
0.0
  0
LINE
  5
E9
100
AcDbEntity
100
AcDbLine
  8
cache
 62
256
370
-1
  6
ByLayer
 10
457.0
 20
10302.0
 30
0.0
 11
457.0
 21
10292.0
 31
0.0
  0
LINE
  5
EA
100
AcDbEntity
100
AcDbLine
  8
cache
 62
256
370
-1
  6
ByLayer
 10
525.0
 20
10302.0
 30
0.0
 11
525.0
 21
10292.0
 31
0.0
  0
LINE
  5
EB
100
AcDbEntity
100
AcDbLine
  8
cache
 62
256
370
-1
  6
ByLayer
 10
529.0
 20
10302.0
 30
0.0
 11
529.0
 21
10292.0
 31
0.0
  0
LINE
  5
EC
100
AcDbEntity
100
AcDbLine
  8
noname
 62
256
370
-1
  6
ByLayer
 10
8.0
 20
9582.0
 30
0.0
 11
8.0
 21
9602.0
 31
0.0
  0
LINE
  5
ED
100
AcDbEntity
100
AcDbLine
  8
noname
 62
256
370
-1
  6
ByLayer
 10
8.0
 20
9602.0
 30
0.0
 11
20.0
 21
9602.0
 31
0.0
  0
LINE
  5
EE
100
AcDbEntity
100
AcDbLine
  8
noname
 62
256
370
-1
  6
ByLayer
 10
20.0
 20
9602.0
 30
0.0
 11
20.0
 21
9582.0
 31
0.0
  0
LINE
  5
EF
100
AcDbEntity
100
AcDbLine
  8
noname
 62
256
370
-1
  6
ByLayer
 10
20.0
 20
9582.0
 30
0.0
 11
8.0
 21
9582.0
 31
0.0
  0
LINE
  5
F0
100
AcDbEntity
100
AcDbLine
  8
cache
 62
256
370
-1
  6
ByLayer
 10
8.0
 20
10302.0
 30
0.0
 11
8.0
 21
10292.0
 31
0.0
  0
LINE
  5
F1
100
AcDbEntity
100
AcDbLine
  8
cache
 62
256
370
-1
  6
ByLayer
 10
20.0
 20
10302.0
 30
0.0
 11
20.0
 21
10292.0
 31
0.0
  0
LINE
  5
F2
100
AcDbEntity
100
AcDbLine
  8
cache
 62
256
370
-1
  6
ByLayer
 10
8.0
 20
10652.0
 30
0.0
 11
8.0
 21
10672.0
 31
0.0
  0
LINE
  5
F3
100
AcDbEntity
100
AcDbLine
  8
cache
 62
256
370
-1
  6
ByLayer
 10
8.0
 20
10672.0
 30
0.0
 11
20.0
 21
10672.0
 31
0.0
  0
LINE
  5
F4
100
AcDbEntity
100
AcDbLine
  8
cache
 62
256
370
-1
  6
ByLayer
 10
20.0
 20
10672.0
 30
0.0
 11
20.0
 21
10656.0
 31
0.0
  0
LINE
  5
F5
100
AcDbEntity
100
AcDbLine
  8
noname
 62
256
370
-1
  6
ByLayer
 10
20.0
 20
10656.0
 30
0.0
 11
20.0
 21
10652.0
 31
0.0
  0
LINE
  5
F6
100
AcDbEntity
100
AcDbLine
  8
noname
 62
256
370
-1
  6
ByLayer
 10
20.0
 20
10652.0
 30
0.0
 11
15.0
 21
10652.0
 31
0.0
  0
LINE
  5
F7
100
AcDbEntity
100
AcDbLine
  8
cache
 62
256
370
-1
  6
ByLayer
 10
15.0
 20
10652.0
 30
0.0
 11
8.0
 21
10652.0
 31
0.0
  0
ARC
  5
F8
100
AcDbEntity
  8
noname
 62
256
370
-1
  6
ByLayer
100
AcDbCircle
 10
53.0
 20
9642.0
 30
0.0
 40
55.0
100
AcDbArc
 50
226.0
 51
233.0
  0
LINE
  5
F9
100
AcDbEntity
100
AcDbLine
  8
cache
 62
256
370
-1
  6
ByLayer
 10
46.0
 20
10666.0
 30
0.0
 11
46.0
 21
10671.0
 31
0.0
  0
LINE
  5
FA
100
AcDbEntity
100
AcDbLine
  8
cache
 62
256
370
-1
  6
ByLayer
 10
46.0
 20
10671.0
 30
0.0
 11
74.0
 21
10671.0
 31
0.0
  0
LINE
  5
FB
100
AcDbEntity
100
AcDbLine
  8
cache
 62
256
370
-1
  6
ByLayer
 10
74.0
 20
10671.0
 30
0.0
 11
74.0
 21
10662.0
 31
0.0
  0
LINE
  5
FC
100
AcDbEntity
100
AcDbLine
  8
noname
 62
256
370
-1
  6
ByLayer
 10
74.0
 20
10662.0
 30
0.0
 11
74.0
 21
10653.0
 31
0.0
  0
LINE
  5
FD
100
AcDbEntity
100
AcDbLine
  8
noname
 62
256
370
-1
  6
ByLayer
 10
74.0
 20
10653.0
 30
0.0
 11
46.0
 21
10653.0
 31
0.0
  0
LINE
  5
FE
100
AcDbEntity
100
AcDbLine
  8
noname
 62
256
370
-1
  6
ByLayer
 10
46.0
 20
10653.0
 30
0.0
 11
46.0
 21
10666.0
 31
0.0
  0
LINE
  5
FF
100
AcDbEntity
100
AcDbLine
  8
noname
 62
256
370
-1
  6
ByLayer
 10
46.0
 20
9583.0
 30
0.0
 11
46.0
 21
9601.0
 31
0.0
  0
LINE
  5
100
100
AcDbEntity
100
AcDbLine
  8
noname
 62
256
370
-1
  6
ByLayer
 10
46.0
 20
9601.0
 30
0.0
 11
74.0
 21
9601.0
 31
0.0
  0
LINE
  5
101
100
AcDbEntity
100
AcDbLine
  8
noname
 62
256
370
-1
  6
ByLayer
 10
74.0
 20
9601.0
 30
0.0
 11
74.0
 21
9583.0
 31
0.0
  0
LINE
  5
102
100
AcDbEntity
100
AcDbLine
  8
noname
 62
256
370
-1
  6
ByLayer
 10
74.0
 20
9583.0
 30
0.0
 11
46.0
 21
9583.0
 31
0.0
  0
LINE
  5
103
100
AcDbEntity
100
AcDbLine
  8
cache
 62
256
370
-1
  6
ByLayer
 10
46.0
 20
10292.0
 30
0.0
 11
46.0
 21
10302.0
 31
0.0
  0
LINE
  5
104
100
AcDbEntity
100
AcDbLine
  8
cache
 62
256
370
-1
  6
ByLayer
 10
74.0
 20
10302.0
 30
0.0
 11
74.0
 21
10292.0
 31
0.0
  0
ARC
  5
105
100
AcDbEntity
  8
noname
 62
256
370
-1
  6
ByLayer
100
AcDbCircle
 10
53.0
 20
9642.0
 30
0.0
 40
55.0
100
AcDbArc
 50
262.0
 51
292.0
  0
LINE
  5
106
100
AcDbEntity
100
AcDbLine
  8
noname
 62
256
370
-1
  6
ByLayer
 10
-20.0
 20
9732.0
 30
0.0
 11
-20.0
 21
9715.0
 31
0.0
  0
LINE
  5
107
100
AcDbEntity
100
AcDbLine
  8
noname
 62
256
370
-1
  6
ByLayer
 10
-20.0
 20
9715.0
 30
0.0
 11
175.0
 21
9715.0
 31
0.0
  0
LINE
  5
108
100
AcDbEntity
100
AcDbLine
  8
noname
 62
256
370
-1
  6
ByLayer
 10
175.0
 20
9715.0
 30
0.0
 11
175.0
 21
9732.0
 31
0.0
  0
LINE
  5
109
100
AcDbEntity
100
AcDbLine
  8
noname
 62
256
370
-1
  6
ByLayer
 10
175.0
 20
9732.0
 30
0.0
 11
-20.0
 21
9732.0
 31
0.0
  0
LINE
  5
10A
100
AcDbEntity
100
AcDbLine
  8
cache
 62
256
370
-1
  6
ByLayer
 10
-20.0
 20
10302.0
 30
0.0
 11
-20.0
 21
10292.0
 31
0.0
  0
LINE
  5
10B
100
AcDbEntity
100
AcDbLine
  8
cache
 62
256
370
-1
  6
ByLayer
 10
175.0
 20
10302.0
 30
0.0
 11
175.0
 21
10292.0
 31
0.0
  0
LINE
  5
10C
100
AcDbEntity
100
AcDbLine
  8
cache
 62
256
370
-1
  6
ByLayer
 10
-20.0
 20
10539.0
 30
0.0
 11
-20.0
 21
10522.0
 31
0.0
  0
LINE
  5
10D
100
AcDbEntity
100
AcDbLine
  8
cache
 62
256
370
-1
  6
ByLayer
 10
-20.0
 20
10522.0
 30
0.0
 11
175.0
 21
10522.0
 31
0.0
  0
LINE
  5
10E
100
AcDbEntity
100
AcDbLine
  8
cache
 62
256
370
-1
  6
ByLayer
 10
175.0
 20
10522.0
 30
0.0
 11
175.0
 21
10539.0
 31
0.0
  0
LINE
  5
10F
100
AcDbEntity
100
AcDbLine
  8
cache
 62
256
370
-1
  6
ByLayer
 10
175.0
 20
10539.0
 30
0.0
 11
-20.0
 21
10539.0
 31
0.0
  0
LINE
  5
110
100
AcDbEntity
100
AcDbLine
  8
axe
 62
256
370
-1
  6
ByLayer
 10
-154.0
 20
10612.0
 30
0.0
 11
-1614.0
 21
10612.0
 31
0.0
  0
CIRCLE
  5
111
100
AcDbEntity
100
AcDbCircle
  8
optic
 62
256
370
-1
  6
ByLayer
 10
-1265.0
 20
10612.0
 30
0.0
 40
55.0
  0
CIRCLE
  5
112
100
AcDbEntity
100
AcDbCircle
  8
optic
 62
256
370
-1
  6
ByLayer
 10
-1265.0
 20
10612.0
 30
0.0
 40
45.0
  0
LINE
  5
113
100
AcDbEntity
100
AcDbLine
  8
axe
 62
256
370
-1
  6
ByLayer
 10
-1210.0
 20
10612.0
 30
0.0
 11
-1210.0
 21
10612.0
 31
0.0
  0
LINE
  5
114
100
AcDbEntity
100
AcDbLine
  8
optic
 62
256
370
-1
  6
ByLayer
 10
-1320.0
 20
10462.0
 30
0.0
 11
-1320.0
 21
10384.0
 31
0.0
  0
LINE
  5
115
100
AcDbEntity
100
AcDbLine
  8
optic
 62
256
370
-1
  6
ByLayer
 10
-1320.0
 20
10384.0
 30
0.0
 11
-1210.0
 21
10384.0
 31
0.0
  0
LINE
  5
116
100
AcDbEntity
100
AcDbLine
  8
optic
 62
256
370
-1
  6
ByLayer
 10
-1210.0
 20
10384.0
 30
0.0
 11
-1210.0
 21
10462.0
 31
0.0
  0
LINE
  5
117
100
AcDbEntity
100
AcDbLine
  8
optic
 62
256
370
-1
  6
ByLayer
 10
-1210.0
 20
10462.0
 30
0.0
 11
-1320.0
 21
10462.0
 31
0.0
  0
LINE
  5
118
100
AcDbEntity
100
AcDbLine
  8
cache
 62
256
370
-1
  6
ByLayer
 10
-1310.0
 20
10384.0
 30
0.0
 11
-1310.0
 21
10404.0
 31
0.0
  0
LINE
  5
119
100
AcDbEntity
100
AcDbLine
  8
cache
 62
256
370
-1
  6
ByLayer
 10
-1310.0
 20
10404.0
 30
0.0
 11
-1220.0
 21
10404.0
 31
0.0
  0
LINE
  5
11A
100
AcDbEntity
100
AcDbLine
  8
cache
 62
256
370
-1
  6
ByLayer
 10
-1220.0
 20
10404.0
 30
0.0
 11
-1220.0
 21
10384.0
 31
0.0
  0
LINE
  5
11B
100
AcDbEntity
100
AcDbLine
  8
axe
 62
256
370
-1
  6
ByLayer
 10
-1265.0
 20
10040.0
 30
0.0
 11
-1625.0
 21
10040.0
 31
0.0
  0
LINE
  5
11C
100
AcDbEntity
100
AcDbLine
  8
axe
 62
256
370
-1
  6
ByLayer
 10
-1625.0
 20
10040.0
 30
0.0
 11
-890.0
 21
10040.0
 31
0.0
  0
LINE
  5
11D
100
AcDbEntity
100
AcDbLine
  8
axe
 62
256
370
-1
  6
ByLayer
 10
-1265.0
 20
10612.0
 30
0.0
 11
-1265.0
 21
9886.0
 31
0.0
  0
LINE
  5
11E
100
AcDbEntity
100
AcDbLine
  8
axe
 62
256
370
-1
  6
ByLayer
 10
-1265.0
 20
10612.0
 30
0.0
 11
-1265.0
 21
10612.0
 31
0.0
  0
LINE
  5
11F
100
AcDbEntity
100
AcDbLine
  8
axe
 62
256
370
-1
  6
ByLayer
 10
-1265.0
 20
10612.0
 30
0.0
 11
-1265.0
 21
10612.0
 31
0.0
  0
LINE
  5
120
100
AcDbEntity
100
AcDbLine
  8
axe
 62
256
370
-1
  6
ByLayer
 10
-1265.0
 20
10612.0
 30
0.0
 11
-1265.0
 21
10706.0
 31
0.0
  0
CIRCLE
  5
121
100
AcDbEntity
100
AcDbCircle
  8
vantilo
 62
256
370
-1
  6
DOT
 10
-1265.0
 20
10040.0
 30
0.0
 40
39.0
  0
CIRCLE
  5
122
100
AcDbEntity
100
AcDbCircle
  8
vantilo
 62
256
370
-1
  6
DOT
 10
-1301.0
 20
10076.0
 30
0.0
 40
2.0
  0
CIRCLE
  5
123
100
AcDbEntity
100
AcDbCircle
  8
vantilo
 62
256
370
-1
  6
DOT
 10
-1229.0
 20
10076.0
 30
0.0
 40
2.0
  0
CIRCLE
  5
124
100
AcDbEntity
100
AcDbCircle
  8
vantilo
 62
256
370
-1
  6
DOT
 10
-1229.0
 20
10004.0
 30
0.0
 40
2.0
  0
CIRCLE
  5
125
100
AcDbEntity
100
AcDbCircle
  8
vantilo
 62
256
370
-1
  6
DOT
 10
-1301.0
 20
10004.0
 30
0.0
 40
2.0
  0
LINE
  5
126
100
AcDbEntity
100
AcDbLine
  8
vantilo
 62
256
370
-1
  6
DOT
 10
-1305.0
 20
10080.0
 30
0.0
 11
-1225.0
 21
10080.0
 31
0.0
  0
LINE
  5
127
100
AcDbEntity
100
AcDbLine
  8
vantilo
 62
256
370
-1
  6
DOT
 10
-1225.0
 20
10080.0
 30
0.0
 11
-1225.0
 21
10000.0
 31
0.0
  0
LINE
  5
128
100
AcDbEntity
100
AcDbLine
  8
vantilo
 62
256
370
-1
  6
DOT
 10
-1225.0
 20
10000.0
 30
0.0
 11
-1305.0
 21
10000.0
 31
0.0
  0
LINE
  5
129
100
AcDbEntity
100
AcDbLine
  8
vantilo
 62
256
370
-1
  6
DOT
 10
-1305.0
 20
10000.0
 30
0.0
 11
-1305.0
 21
10080.0
 31
0.0
  0
CIRCLE
  5
12A
100
AcDbEntity
100
AcDbCircle
  8
vantilo
 62
256
370
-1
  6
DOT
 10
-1265.0
 20
10040.0
 30
0.0
 40
17.0
  0
LINE
  5
12B
100
AcDbEntity
100
AcDbLine
  8
vantilo
 62
256
370
-1
  6
DOT
 10
-1271.0
 20
10056.0
 30
0.0
 11
-1275.0
 21
10075.0
 31
0.0
  0
LINE
  5
12C
100
AcDbEntity
100
AcDbLine
  8
vantilo
 62
256
370
-1
  6
DOT
 10
-1259.0
 20
10056.0
 30
0.0
 11
-1255.0
 21
10075.0
 31
0.0
  0
ARC
  5
12D
100
AcDbEntity
  8
vantilo
 62
256
370
-1
  6
DOT
100
AcDbCircle
 10
-1265.0
 20
10040.0
 30
0.0
 40
37.0
100
AcDbArc
 50
74.0
 51
105.0
  0
LINE
  5
12E
100
AcDbEntity
100
AcDbLine
  8
vantilo
 62
256
370
-1
  6
DOT
 10
-1271.0
 20
10056.0
 30
0.0
 11
-1275.0
 21
10075.0
 31
0.0
  0
LINE
  5
12F
100
AcDbEntity
100
AcDbLine
  8
vantilo
 62
256
370
-1
  6
DOT
 10
-1259.0
 20
10056.0
 30
0.0
 11
-1255.0
 21
10075.0
 31
0.0
  0
ARC
  5
130
100
AcDbEntity
  8
vantilo
 62
256
370
-1
  6
DOT
100
AcDbCircle
 10
-1265.0
 20
10040.0
 30
0.0
 40
37.0
100
AcDbArc
 50
74.0
 51
105.0
  0
LINE
  5
131
100
AcDbEntity
100
AcDbLine
  8
vantilo
 62
256
370
-1
  6
DOT
 10
-1271.0
 20
10056.0
 30
0.0
 11
-1275.0
 21
10075.0
 31
0.0
  0
LINE
  5
132
100
AcDbEntity
100
AcDbLine
  8
vantilo
 62
256
370
-1
  6
DOT
 10
-1259.0
 20
10056.0
 30
0.0
 11
-1255.0
 21
10075.0
 31
0.0
  0
ARC
  5
133
100
AcDbEntity
  8
vantilo
 62
256
370
-1
  6
DOT
100
AcDbCircle
 10
-1265.0
 20
10040.0
 30
0.0
 40
37.0
100
AcDbArc
 50
74.0
 51
105.0
  0
LINE
  5
134
100
AcDbEntity
100
AcDbLine
  8
vantilo
 62
256
370
-1
  6
DOT
 10
-1271.0
 20
10056.0
 30
0.0
 11
-1275.0
 21
10075.0
 31
0.0
  0
LINE
  5
135
100
AcDbEntity
100
AcDbLine
  8
vantilo
 62
256
370
-1
  6
DOT
 10
-1259.0
 20
10056.0
 30
0.0
 11
-1255.0
 21
10075.0
 31
0.0
  0
ARC
  5
136
100
AcDbEntity
  8
vantilo
 62
256
370
-1
  6
DOT
100
AcDbCircle
 10
-1265.0
 20
10040.0
 30
0.0
 40
37.0
100
AcDbArc
 50
74.0
 51
105.0
  0
LINE
  5
137
100
AcDbEntity
100
AcDbLine
  8
vantilo
 62
256
370
-1
  6
DOT
 10
-1271.0
 20
10056.0
 30
0.0
 11
-1275.0
 21
10075.0
 31
0.0
  0
LINE
  5
138
100
AcDbEntity
100
AcDbLine
  8
vantilo
 62
256
370
-1
  6
DOT
 10
-1259.0
 20
10056.0
 30
0.0
 11
-1255.0
 21
10075.0
 31
0.0
  0
ARC
  5
139
100
AcDbEntity
  8
vantilo
 62
256
370
-1
  6
DOT
100
AcDbCircle
 10
-1265.0
 20
10040.0
 30
0.0
 40
37.0
100
AcDbArc
 50
74.0
 51
105.0
  0
LINE
  5
13A
100
AcDbEntity
100
AcDbLine
  8
vantilo
 62
256
370
-1
  6
DOT
 10
-1271.0
 20
10056.0
 30
0.0
 11
-1275.0
 21
10075.0
 31
0.0
  0
LINE
  5
13B
100
AcDbEntity
100
AcDbLine
  8
vantilo
 62
256
370
-1
  6
DOT
 10
-1259.0
 20
10056.0
 30
0.0
 11
-1255.0
 21
10075.0
 31
0.0
  0
ARC
  5
13C
100
AcDbEntity
  8
vantilo
 62
256
370
-1
  6
DOT
100
AcDbCircle
 10
-1265.0
 20
10040.0
 30
0.0
 40
37.0
100
AcDbArc
 50
74.0
 51
105.0
  0
LINE
  5
13D
100
AcDbEntity
100
AcDbLine
  8
vantilo
 62
256
370
-1
  6
DOT
 10
-1271.0
 20
10056.0
 30
0.0
 11
-1275.0
 21
10075.0
 31
0.0
  0
LINE
  5
13E
100
AcDbEntity
100
AcDbLine
  8
vantilo
 62
256
370
-1
  6
DOT
 10
-1259.0
 20
10056.0
 30
0.0
 11
-1255.0
 21
10075.0
 31
0.0
  0
ARC
  5
13F
100
AcDbEntity
  8
vantilo
 62
256
370
-1
  6
DOT
100
AcDbCircle
 10
-1265.0
 20
10040.0
 30
0.0
 40
37.0
100
AcDbArc
 50
74.0
 51
105.0
  0
LINE
  5
140
100
AcDbEntity
100
AcDbLine
  8
vantilo
 62
256
370
-1
  6
DOT
 10
-1271.0
 20
10056.0
 30
0.0
 11
-1275.0
 21
10075.0
 31
0.0
  0
LINE
  5
141
100
AcDbEntity
100
AcDbLine
  8
vantilo
 62
256
370
-1
  6
DOT
 10
-1259.0
 20
10056.0
 30
0.0
 11
-1255.0
 21
10075.0
 31
0.0
  0
ARC
  5
142
100
AcDbEntity
  8
vantilo
 62
256
370
-1
  6
DOT
100
AcDbCircle
 10
-1265.0
 20
10040.0
 30
0.0
 40
37.0
100
AcDbArc
 50
74.0
 51
105.0
  0
LINE
  5
143
100
AcDbEntity
100
AcDbLine
  8
vantilo
 62
256
370
-1
  6
DOT
 10
-1271.0
 20
10056.0
 30
0.0
 11
-1275.0
 21
10075.0
 31
0.0
  0
LINE
  5
144
100
AcDbEntity
100
AcDbLine
  8
vantilo
 62
256
370
-1
  6
DOT
 10
-1259.0
 20
10056.0
 30
0.0
 11
-1255.0
 21
10075.0
 31
0.0
  0
ARC
  5
145
100
AcDbEntity
  8
vantilo
 62
256
370
-1
  6
DOT
100
AcDbCircle
 10
-1265.0
 20
10040.0
 30
0.0
 40
37.0
100
AcDbArc
 50
74.0
 51
105.0
  0
LINE
  5
146
100
AcDbEntity
100
AcDbLine
  8
vantilo
 62
256
370
-1
  6
DOT
 10
-1271.0
 20
10056.0
 30
0.0
 11
-1275.0
 21
10075.0
 31
0.0
  0
LINE
  5
147
100
AcDbEntity
100
AcDbLine
  8
vantilo
 62
256
370
-1
  6
DOT
 10
-1259.0
 20
10056.0
 30
0.0
 11
-1255.0
 21
10075.0
 31
0.0
  0
ARC
  5
148
100
AcDbEntity
  8
vantilo
 62
256
370
-1
  6
DOT
100
AcDbCircle
 10
-1265.0
 20
10040.0
 30
0.0
 40
37.0
100
AcDbArc
 50
74.0
 51
105.0
  0
LINE
  5
149
100
AcDbEntity
100
AcDbLine
  8
vantilo
 62
256
370
-1
  6
DOT
 10
-1271.0
 20
10056.0
 30
0.0
 11
-1275.0
 21
10075.0
 31
0.0
  0
LINE
  5
14A
100
AcDbEntity
100
AcDbLine
  8
vantilo
 62
256
370
-1
  6
DOT
 10
-1259.0
 20
10056.0
 30
0.0
 11
-1255.0
 21
10075.0
 31
0.0
  0
ARC
  5
14B
100
AcDbEntity
  8
vantilo
 62
256
370
-1
  6
DOT
100
AcDbCircle
 10
-1265.0
 20
10040.0
 30
0.0
 40
37.0
100
AcDbArc
 50
74.0
 51
105.0
  0
LINE
  5
14C
100
AcDbEntity
100
AcDbLine
  8
vantilo
 62
256
370
-1
  6
DOT
 10
-1271.0
 20
10056.0
 30
0.0
 11
-1275.0
 21
10075.0
 31
0.0
  0
LINE
  5
14D
100
AcDbEntity
100
AcDbLine
  8
vantilo
 62
256
370
-1
  6
DOT
 10
-1259.0
 20
10056.0
 30
0.0
 11
-1255.0
 21
10075.0
 31
0.0
  0
ARC
  5
14E
100
AcDbEntity
  8
vantilo
 62
256
370
-1
  6
DOT
100
AcDbCircle
 10
-1265.0
 20
10040.0
 30
0.0
 40
37.0
100
AcDbArc
 50
74.0
 51
105.0
  0
LINE
  5
14F
100
AcDbEntity
100
AcDbLine
  8
vantilo
 62
256
370
-1
  6
DOT
 10
-1271.0
 20
10056.0
 30
0.0
 11
-1275.0
 21
10075.0
 31
0.0
  0
LINE
  5
150
100
AcDbEntity
100
AcDbLine
  8
vantilo
 62
256
370
-1
  6
DOT
 10
-1259.0
 20
10056.0
 30
0.0
 11
-1255.0
 21
10075.0
 31
0.0
  0
ARC
  5
151
100
AcDbEntity
  8
vantilo
 62
256
370
-1
  6
DOT
100
AcDbCircle
 10
-1265.0
 20
10040.0
 30
0.0
 40
37.0
100
AcDbArc
 50
74.0
 51
105.0
  0
LINE
  5
152
100
AcDbEntity
100
AcDbLine
  8
vantilo
 62
256
370
-1
  6
DOT
 10
-1271.0
 20
10056.0
 30
0.0
 11
-1275.0
 21
10075.0
 31
0.0
  0
LINE
  5
153
100
AcDbEntity
100
AcDbLine
  8
vantilo
 62
256
370
-1
  6
DOT
 10
-1259.0
 20
10056.0
 30
0.0
 11
-1255.0
 21
10075.0
 31
0.0
  0
ARC
  5
154
100
AcDbEntity
  8
vantilo
 62
256
370
-1
  6
DOT
100
AcDbCircle
 10
-1265.0
 20
10040.0
 30
0.0
 40
37.0
100
AcDbArc
 50
74.0
 51
105.0
  0
LINE
  5
155
100
AcDbEntity
100
AcDbLine
  8
vantilo
 62
256
370
-1
  6
DOT
 10
-1271.0
 20
10056.0
 30
0.0
 11
-1275.0
 21
10075.0
 31
0.0
  0
LINE
  5
156
100
AcDbEntity
100
AcDbLine
  8
vantilo
 62
256
370
-1
  6
DOT
 10
-1259.0
 20
10056.0
 30
0.0
 11
-1255.0
 21
10075.0
 31
0.0
  0
ARC
  5
157
100
AcDbEntity
  8
vantilo
 62
256
370
-1
  6
DOT
100
AcDbCircle
 10
-1265.0
 20
10040.0
 30
0.0
 40
37.0
100
AcDbArc
 50
74.0
 51
105.0
  0
LINE
  5
158
100
AcDbEntity
100
AcDbLine
  8
vantilo
 62
256
370
-1
  6
DOT
 10
-1281.0
 20
10045.0
 30
0.0
 11
-1299.0
 21
10054.0
 31
0.0
  0
LINE
  5
159
100
AcDbEntity
100
AcDbLine
  8
vantilo
 62
256
370
-1
  6
DOT
 10
-1274.0
 20
10054.0
 30
0.0
 11
-1287.0
 21
10070.0
 31
0.0
  0
ARC
  5
15A
100
AcDbEntity
  8
vantilo
 62
256
370
-1
  6
DOT
100
AcDbCircle
 10
-1265.0
 20
10040.0
 30
0.0
 40
37.0
100
AcDbArc
 50
125.0000000000000142
 51
157.0
  0
LINE
  5
15B
100
AcDbEntity
100
AcDbLine
  8
vantilo
 62
256
370
-1
  6
DOT
 10
-1279.0
 20
10030.0
 30
0.0
 11
-1298.0
 21
10022.0
 31
0.0
  0
LINE
  5
15C
100
AcDbEntity
100
AcDbLine
  8
vantilo
 62
256
370
-1
  6
DOT
 10
-1282.0
 20
10042.0
 30
0.0
 11
-1302.0
 21
10041.0
 31
0.0
  0
ARC
  5
15D
100
AcDbEntity
  8
vantilo
 62
256
370
-1
  6
DOT
100
AcDbCircle
 10
-1265.0
 20
10040.0
 30
0.0
 40
37.0
100
AcDbArc
 50
177.0
 51
208.0
  0
LINE
  5
15E
100
AcDbEntity
100
AcDbLine
  8
vantilo
 62
256
370
-1
  6
DOT
 10
-1267.0
 20
10023.0
 30
0.0
 11
-1271.0
 21
10003.0
 31
0.0
  0
LINE
  5
15F
100
AcDbEntity
100
AcDbLine
  8
vantilo
 62
256
370
-1
  6
DOT
 10
-1277.0
 20
10028.0
 30
0.0
 11
-1289.0
 21
10012.0
 31
0.0
  0
ARC
  5
160
100
AcDbEntity
  8
vantilo
 62
256
370
-1
  6
DOT
100
AcDbCircle
 10
-1265.0
 20
10040.0
 30
0.0
 40
37.0
100
AcDbArc
 50
228.0
 51
260.0
  0
LINE
  5
161
100
AcDbEntity
100
AcDbLine
  8
vantilo
 62
256
370
-1
  6
DOT
 10
-1253.0
 20
10028.0
 30
0.0
 11
-1240.0
 21
10012.0
 31
0.0
  0
LINE
  5
162
100
AcDbEntity
100
AcDbLine
  8
vantilo
 62
256
370
-1
  6
DOT
 10
-1263.0
 20
10023.0
 30
0.0
 11
-1258.0
 21
10003.0
 31
0.0
  0
ARC
  5
163
100
AcDbEntity
  8
vantilo
 62
256
370
-1
  6
DOT
100
AcDbCircle
 10
-1265.0
 20
10040.0
 30
0.0
 40
37.0
100
AcDbArc
 50
280.0
 51
311.0
  0
LINE
  5
164
100
AcDbEntity
100
AcDbLine
  8
vantilo
 62
256
370
-1
  6
DOT
 10
-1248.0
 20
10042.0
 30
0.0
 11
-1228.0
 21
10042.0
 31
0.0
  0
LINE
  5
165
100
AcDbEntity
100
AcDbLine
  8
vantilo
 62
256
370
-1
  6
DOT
 10
-1251.0
 20
10030.0
 30
0.0
 11
-1232.0
 21
10022.0
 31
0.0
  0
ARC
  5
166
100
AcDbEntity
  8
vantilo
 62
256
370
-1
  6
DOT
100
AcDbCircle
 10
-1265.0
 20
10040.0
 30
0.0
 40
37.0
100
AcDbArc
 50
331.0
 51
3.0
  0
LINE
  5
167
100
AcDbEntity
100
AcDbLine
  8
vantilo
 62
256
370
-1
  6
DOT
 10
-1256.0
 20
10054.0
 30
0.0
 11
-1244.0
 21
10070.0
 31
0.0
  0
LINE
  5
168
100
AcDbEntity
100
AcDbLine
  8
vantilo
 62
256
370
-1
  6
DOT
 10
-1249.0
 20
10045.0
 30
0.0
 11
-1231.0
 21
10054.0
 31
0.0
  0
ARC
  5
169
100
AcDbEntity
  8
vantilo
 62
256
370
-1
  6
DOT
100
AcDbCircle
 10
-1265.0
 20
10040.0
 30
0.0
 40
37.0
100
AcDbArc
 50
23.0
 51
54.0
  0
LINE
  5
16A
100
AcDbEntity
100
AcDbLine
  8
vantilo
 62
256
370
-1
  6
DOT
 10
-1305.0
 20
9950.0
 30
0.0
 11
-1225.0
 21
9950.0
 31
0.0
  0
LINE
  5
16B
100
AcDbEntity
100
AcDbLine
  8
vantilo
 62
256
370
-1
  6
DOT
 10
-1225.0
 20
9950.0
 30
0.0
 11
-1225.0
 21
9925.0
 31
0.0
  0
LINE
  5
16C
100
AcDbEntity
100
AcDbLine
  8
vantilo
 62
256
370
-1
  6
DOT
 10
-1225.0
 20
9925.0
 30
0.0
 11
-1305.0
 21
9925.0
 31
0.0
  0
LINE
  5
16D
100
AcDbEntity
100
AcDbLine
  8
vantilo
 62
256
370
-1
  6
DOT
 10
-1305.0
 20
9925.0
 30
0.0
 11
-1305.0
 21
9950.0
 31
0.0
  0
LINE
  5
16E
100
AcDbEntity
100
AcDbLine
  8
vantilo
 62
256
370
-1
  6
DOT
 10
-1303.0
 20
9950.0
 30
0.0
 11
-1303.0
 21
9925.0
 31
0.0
  0
LINE
  5
16F
100
AcDbEntity
100
AcDbLine
  8
vantilo
 62
256
370
-1
  6
DOT
 10
-1299.0
 20
9950.0
 30
0.0
 11
-1299.0
 21
9925.0
 31
0.0
  0
LINE
  5
170
100
AcDbEntity
100
AcDbLine
  8
vantilo
 62
256
370
-1
  6
DOT
 10
-1231.0
 20
9950.0
 30
0.0
 11
-1231.0
 21
9925.0
 31
0.0
  0
LINE
  5
171
100
AcDbEntity
100
AcDbLine
  8
vantilo
 62
256
370
-1
  6
DOT
 10
-1227.0
 20
9950.0
 30
0.0
 11
-1227.0
 21
9925.0
 31
0.0
  0
LINE
  5
172
100
AcDbEntity
100
AcDbLine
  8
vantilo
 62
256
370
-1
  6
DOT
 10
-1304.0
 20
9950.0
 30
0.0
 11
-1304.0
 21
9925.0
 31
0.0
  0
LINE
  5
173
100
AcDbEntity
100
AcDbLine
  8
vantilo
 62
256
370
-1
  6
DOT
 10
-1226.0
 20
9950.0
 30
0.0
 11
-1226.0
 21
9925.0
 31
0.0
  0
LINE
  5
174
100
AcDbEntity
100
AcDbLine
  8
vantilo
 62
256
370
-1
  6
DOT
 10
-1282.0
 20
9927.0
 30
0.0
 11
-1248.0
 21
9927.0
 31
0.0
  0
LINE
  5
175
100
AcDbEntity
100
AcDbLine
  8
vantilo
 62
256
370
-1
  6
DOT
 10
-1282.0
 20
9945.0
 30
0.0
 11
-1248.0
 21
9945.0
 31
0.0
  0
LINE
  5
176
100
AcDbEntity
100
AcDbLine
  8
vantilo
 62
256
370
-1
  6
DOT
 10
-1282.0
 20
9945.0
 30
0.0
 11
-1282.0
 21
9945.0
 31
0.0
  0
LINE
  5
177
100
AcDbEntity
100
AcDbLine
  8
vantilo
 62
256
370
-1
  6
DOT
 10
-1282.0
 20
9945.0
 30
0.0
 11
-1282.0
 21
9927.0
 31
0.0
  0
LINE
  5
178
100
AcDbEntity
100
AcDbLine
  8
vantilo
 62
256
370
-1
  6
DOT
 10
-1248.0
 20
9945.0
 30
0.0
 11
-1248.0
 21
9927.0
 31
0.0
  0
LINE
  5
179
100
AcDbEntity
100
AcDbLine
  8
cache
 62
256
370
-1
  6
ByLayer
 10
415.0
 20
9587.0
 30
0.0
 11
426.0
 21
9587.0
 31
0.0
  0
LINE
  5
17A
100
AcDbEntity
100
AcDbLine
  8
cache
 62
256
370
-1
  6
ByLayer
 10
415.0
 20
9696.0
 30
0.0
 11
426.0
 21
9696.0
 31
0.0
  0
LINE
  5
17B
100
AcDbEntity
100
AcDbLine
  8
cache
 62
256
370
-1
  6
ByLayer
 10
416.0
 20
10666.0
 30
0.0
 11
426.0
 21
10666.0
 31
0.0
  0
LINE
  5
17C
100
AcDbEntity
100
AcDbLine
  8
cache
 62
256
370
-1
  6
ByLayer
 10
416.0
 20
10557.0
 30
0.0
 11
426.0
 21
10557.0
 31
0.0
  0
LINE
  5
17D
100
AcDbEntity
100
AcDbLine
  8
cache
 62
256
370
-1
  6
ByLayer
 10
276.0
 20
10252.0
 30
0.0
 11
276.0
 21
10292.0
 31
0.0
  0
LINE
  5
17E
100
AcDbEntity
100
AcDbLine
  8
cache
 62
256
370
-1
  6
ByLayer
 10
276.0
 20
10252.0
 30
0.0
 11
246.0
 21
10252.0
 31
0.0
  0
LINE
  5
17F
100
AcDbEntity
100
AcDbLine
  8
cache
 62
256
370
-1
  6
ByLayer
 10
246.0
 20
10252.0
 30
0.0
 11
321.0
 21
10252.0
 31
0.0
  0
LINE
  5
180
100
AcDbEntity
100
AcDbLine
  8
cache
 62
256
370
-1
  6
ByLayer
 10
286.0
 20
10242.0
 30
0.0
 11
246.0
 21
10242.0
 31
0.0
  0
LINE
  5
181
100
AcDbEntity
100
AcDbLine
  8
cache
 62
256
370
-1
  6
ByLayer
 10
246.0
 20
10242.0
 30
0.0
 11
321.0
 21
10242.0
 31
0.0
  0
LINE
  5
182
100
AcDbEntity
100
AcDbLine
  8
cache
 62
256
370
-1
  6
ByLayer
 10
321.0
 20
10242.0
 30
0.0
 11
321.0
 21
10252.0
 31
0.0
  0
LINE
  5
183
100
AcDbEntity
100
AcDbLine
  8
cache
 62
256
370
-1
  6
ByLayer
 10
246.0
 20
10252.0
 30
0.0
 11
246.0
 21
10242.0
 31
0.0
  0
LINE
  5
184
100
AcDbEntity
100
AcDbLine
  8
cache
 62
256
370
-1
  6
ByLayer
 10
286.0
 20
10252.0
 30
0.0
 11
286.0
 21
10292.0
 31
0.0
  0
LINE
  5
185
100
AcDbEntity
100
AcDbLine
  8
cache
 62
256
370
-1
  6
ByLayer
 10
776.0
 20
10252.0
 30
0.0
 11
971.0
 21
10252.0
 31
0.0
  0
LINE
  5
186
100
AcDbEntity
100
AcDbLine
  8
cache
 62
256
370
-1
  6
ByLayer
 10
971.0
 20
10242.0
 30
0.0
 11
776.0
 21
10242.0
 31
0.0
  0
LINE
  5
187
100
AcDbEntity
100
AcDbLine
  8
cache
 62
256
370
-1
  6
ByLayer
 10
276.0
 20
10172.0
 30
0.0
 11
356.0
 21
10172.0
 31
0.0
  0
LINE
  5
188
100
AcDbEntity
100
AcDbLine
  8
cache
 62
256
370
-1
  6
ByLayer
 10
356.0
 20
10172.0
 30
0.0
 11
356.0
 21
9992.0
 31
0.0
  0
LINE
  5
189
100
AcDbEntity
100
AcDbLine
  8
cache
 62
256
370
-1
  6
ByLayer
 10
356.0
 20
9992.0
 30
0.0
 11
276.0
 21
9992.0
 31
0.0
  0
LINE
  5
18A
100
AcDbEntity
100
AcDbLine
  8
cache
 62
256
370
-1
  6
ByLayer
 10
276.0
 20
9992.0
 30
0.0
 11
276.0
 21
10172.0
 31
0.0
  0
LINE
  5
18B
100
AcDbEntity
100
AcDbLine
  8
cache
 62
256
370
-1
  6
ByLayer
 10
456.0
 20
10172.0
 30
0.0
 11
456.0
 21
10172.0
 31
0.0
  0
LINE
  5
18C
100
AcDbEntity
100
AcDbLine
  8
cache
 62
256
370
-1
  6
ByLayer
 10
536.0
 20
10172.0
 30
0.0
 11
536.0
 21
10172.0
 31
0.0
  0
LINE
  5
18D
100
AcDbEntity
100
AcDbLine
  8
cache
 62
256
370
-1
  6
ByLayer
 10
536.0
 20
9992.0
 30
0.0
 11
536.0
 21
9992.0
 31
0.0
  0
LINE
  5
18E
100
AcDbEntity
100
AcDbLine
  8
cache
 62
256
370
-1
  6
ByLayer
 10
456.0
 20
9992.0
 30
0.0
 11
456.0
 21
9992.0
 31
0.0
  0
LINE
  5
18F
100
AcDbEntity
100
AcDbLine
  8
cache
 62
256
370
-1
  6
ByLayer
 10
456.0
 20
10172.0
 30
0.0
 11
456.0
 21
10172.0
 31
0.0
  0
LINE
  5
190
100
AcDbEntity
100
AcDbLine
  8
cache
 62
256
370
-1
  6
ByLayer
 10
456.0
 20
10172.0
 30
0.0
 11
536.0
 21
10172.0
 31
0.0
  0
LINE
  5
191
100
AcDbEntity
100
AcDbLine
  8
cache
 62
256
370
-1
  6
ByLayer
 10
536.0
 20
10172.0
 30
0.0
 11
536.0
 21
9992.0
 31
0.0
  0
LINE
  5
192
100
AcDbEntity
100
AcDbLine
  8
cache
 62
256
370
-1
  6
ByLayer
 10
536.0
 20
9992.0
 30
0.0
 11
456.0
 21
9992.0
 31
0.0
  0
LINE
  5
193
100
AcDbEntity
100
AcDbLine
  8
cache
 62
256
370
-1
  6
ByLayer
 10
456.0
 20
9992.0
 30
0.0
 11
456.0
 21
10172.0
 31
0.0
  0
LINE
  5
194
100
AcDbEntity
100
AcDbLine
  8
noname
 62
256
370
-1
  6
ByLayer
 10
-1235.0
 20
11702.0
 30
0.0
 11
-1844.0
 21
11702.0
 31
0.0
  0
LINE
  5
195
100
AcDbEntity
100
AcDbLine
  8
noname
 62
256
370
-1
  6
ByLayer
 10
-1235.0
 20
11902.0
 30
0.0
 11
-1843.0
 21
11902.0
 31
0.0
  0
LINE
  5
196
100
AcDbEntity
100
AcDbLine
  8
noname
 62
256
370
-1
  6
ByLayer
 10
-1235.0
 20
12117.0
 30
0.0
 11
-1843.0
 21
12117.0
 31
0.0
  0
LINE
  5
197
100
AcDbEntity
100
AcDbLine
  8
noname
 62
256
370
-1
  6
ByLayer
 10
-1235.0
 20
12117.0
 30
0.0
 11
-1235.0
 21
11902.0
 31
0.0
  0
LINE
  5
198
100
AcDbEntity
100
AcDbLine
  8
cache
 62
256
370
-1
  6
ByLayer
 10
-1245.0
 20
11912.0
 30
0.0
 11
-1245.0
 21
12107.0
 31
0.0
  0
LINE
  5
199
100
AcDbEntity
100
AcDbLine
  8
cache
 62
256
370
-1
  6
ByLayer
 10
-1375.0
 20
11912.0
 30
0.0
 11
-1375.0
 21
12107.0
 31
0.0
  0
LINE
  5
19A
100
AcDbEntity
100
AcDbLine
  8
cache
 62
256
370
-1
  6
ByLayer
 10
-1385.0
 20
11912.0
 30
0.0
 11
-1385.0
 21
12107.0
 31
0.0
  0
LINE
  5
19B
100
AcDbEntity
100
AcDbLine
  8
cache
 62
256
370
-1
  6
ByLayer
 10
-1834.0
 20
12107.0
 30
0.0
 11
-1834.0
 21
11912.0
 31
0.0
  0
LINE
  5
19C
100
AcDbEntity
100
AcDbLine
  8
cache
 62
256
370
-1
  6
ByLayer
 10
-1834.0
 20
11912.0
 30
0.0
 11
-1834.0
 21
11912.0
 31
0.0
  0
LINE
  5
19D
100
AcDbEntity
100
AcDbLine
  8
noname
 62
256
370
-1
  6
ByLayer
 10
-1235.0
 20
11902.0
 30
0.0
 11
-1235.0
 21
11902.0
 31
0.0
  0
LINE
  5
19E
100
AcDbEntity
100
AcDbLine
  8
noname
 62
256
370
-1
  6
ByLayer
 10
-1235.0
 20
11902.0
 30
0.0
 11
-1843.0
 21
11902.0
 31
0.0
  0
LINE
  5
19F
100
AcDbEntity
100
AcDbLine
  8
noname
 62
256
370
-1
  6
ByLayer
 10
-1843.0
 20
11902.0
 30
0.0
 11
-1843.0
 21
12117.0
 31
0.0
  0
LINE
  5
1A0
100
AcDbEntity
100
AcDbLine
  8
cache
 62
256
370
-1
  6
ByLayer
 10
-1834.0
 20
11912.0
 30
0.0
 11
-1843.0
 21
11902.0
 31
0.0
  0
LINE
  5
1A1
100
AcDbEntity
100
AcDbLine
  8
cache
 62
256
370
-1
  6
ByLayer
 10
-1843.0
 20
12117.0
 30
0.0
 11
-1843.0
 21
12117.0
 31
0.0
  0
LINE
  5
1A2
100
AcDbEntity
100
AcDbLine
  8
cache
 62
256
370
-1
  6
ByLayer
 10
-1834.0
 20
12107.0
 30
0.0
 11
-1834.0
 21
12107.0
 31
0.0
  0
LINE
  5
1A3
100
AcDbEntity
100
AcDbLine
  8
cache
 62
256
370
-1
  6
ByLayer
 10
-1843.0
 20
12117.0
 30
0.0
 11
-1843.0
 21
12117.0
 31
0.0
  0
LINE
  5
1A4
100
AcDbEntity
100
AcDbLine
  8
cache
 62
256
370
-1
  6
ByLayer
 10
-1834.0
 20
12107.0
 30
0.0
 11
-1834.0
 21
12107.0
 31
0.0
  0
LINE
  5
1A5
100
AcDbEntity
100
AcDbLine
  8
cache
 62
256
370
-1
  6
ByLayer
 10
-1843.0
 20
12117.0
 30
0.0
 11
-1843.0
 21
12117.0
 31
0.0
  0
LINE
  5
1A6
100
AcDbEntity
100
AcDbLine
  8
cache
 62
256
370
-1
  6
ByLayer
 10
-1843.0
 20
12117.0
 30
0.0
 11
-1834.0
 21
12107.0
 31
0.0
  0
LINE
  5
1A7
100
AcDbEntity
100
AcDbLine
  8
cache
 62
256
370
-1
  6
ByLayer
 10
-1245.0
 20
12107.0
 30
0.0
 11
-1235.0
 21
12117.0
 31
0.0
  0
LINE
  5
1A8
100
AcDbEntity
100
AcDbLine
  8
cache
 62
256
370
-1
  6
ByLayer
 10
-1245.0
 20
11912.0
 30
0.0
 11
-1235.0
 21
11902.0
 31
0.0
  0
LINE
  5
1A9
100
AcDbEntity
100
AcDbLine
  8
cache
 62
256
370
-1
  6
ByLayer
 10
-1245.0
 20
11692.0
 30
0.0
 11
-1235.0
 21
11702.0
 31
0.0
  0
LINE
  5
1AA
100
AcDbEntity
100
AcDbLine
  8
cache
 62
256
370
-1
  6
ByLayer
 10
-1245.0
 20
12107.0
 30
0.0
 11
-1834.0
 21
12107.0
 31
0.0
  0
LINE
  5
1AB
100
AcDbEntity
100
AcDbLine
  8
cache
 62
256
370
-1
  6
ByLayer
 10
-1245.0
 20
11912.0
 30
0.0
 11
-1834.0
 21
11912.0
 31
0.0
  0
LINE
  5
1AC
100
AcDbEntity
100
AcDbLine
  8
cache
 62
256
370
-1
  6
ByLayer
 10
-1834.0
 20
11692.0
 30
0.0
 11
-1844.0
 21
11702.0
 31
0.0
  0
LINE
  5
1AD
100
AcDbEntity
100
AcDbLine
  8
cache
 62
256
370
-1
  6
ByLayer
 10
-1245.0
 20
11692.0
 30
0.0
 11
-1834.0
 21
11692.0
 31
0.0
  0
LINE
  5
1AE
100
AcDbEntity
100
AcDbLine
  8
axe
 62
256
370
-1
  6
ByLayer
 10
-1843.0
 20
11499.0
 30
0.0
 11
-1235.0
 21
11499.0
 31
0.0
  0
LINE
  5
1AF
100
AcDbEntity
100
AcDbLine
  8
axe
 62
256
370
-1
  6
ByLayer
 10
-1235.0
 20
11499.0
 30
0.0
 11
-1235.0
 21
11499.0
 31
0.0
  0
LINE
  5
1B0
100
AcDbEntity
100
AcDbLine
  8
axe
 62
256
370
-1
  6
ByLayer
 10
-1843.0
 20
11499.0
 30
0.0
 11
-1987.0
 21
11499.0
 31
0.0
  0
LINE
  5
1B1
100
AcDbEntity
100
AcDbLine
  8
axe
 62
256
370
-1
  6
ByLayer
 10
-1749.0
 20
11352.0
 30
0.0
 11
-1749.0
 21
11229.0
 31
0.0
  0
LINE
  5
1B2
100
AcDbEntity
100
AcDbLine
  8
axe
 62
256
370
-1
  6
ByLayer
 10
-1749.0
 20
11499.0
 30
0.0
 11
-1749.0
 21
11352.0
 31
0.0
  0
LINE
  5
1B3
100
AcDbEntity
100
AcDbLine
  8
axe
 62
256
370
-1
  6
ByLayer
 10
-1235.0
 20
12012.0
 30
0.0
 11
-1842.0
 21
12012.0
 31
0.0
  0
LINE
  5
1B4
100
AcDbEntity
100
AcDbLine
  8
axe
 62
256
370
-1
  6
ByLayer
 10
-1842.0
 20
12012.0
 30
0.0
 11
-1955.0
 21
12012.0
 31
0.0
  0
LINE
  5
1B5
100
AcDbEntity
100
AcDbLine
  8
axe
 62
256
370
-1
  6
ByLayer
 10
-1235.0
 20
12012.0
 30
0.0
 11
-1129.0
 21
12012.0
 31
0.0
  0
LINE
  5
1B6
100
AcDbEntity
100
AcDbLine
  8
axe
 62
256
370
-1
  6
ByLayer
 10
-1748.0
 20
11967.0
 30
0.0
 11
-1748.0
 21
12057.0
 31
0.0
  0
CIRCLE
  5
1B7
100
AcDbEntity
100
AcDbCircle
  8
noname
 62
256
370
-1
  6
ByLayer
 10
-1748.0
 20
12012.0
 30
0.0
 40
0.0
  0
CIRCLE
  5
1B8
100
AcDbEntity
100
AcDbCircle
  8
noname
 62
256
370
-1
  6
ByLayer
 10
-1748.0
 20
12012.0
 30
0.0
 40
0.0
  0
CIRCLE
  5
1B9
100
AcDbEntity
100
AcDbCircle
  8
noname
 62
256
370
-1
  6
ByLayer
 10
-1748.0
 20
12012.0
 30
0.0
 40
0.0
  0
CIRCLE
  5
1BA
100
AcDbEntity
100
AcDbCircle
  8
noname
 62
256
370
-1
  6
ByLayer
 10
-1748.0
 20
12012.0
 30
0.0
 40
0.0
  0
CIRCLE
  5
1BB
100
AcDbEntity
100
AcDbCircle
  8
noname
 62
256
370
-1
  6
ByLayer
 10
-1748.0
 20
12012.0
 30
0.0
 40
0.0
  0
CIRCLE
  5
1BC
100
AcDbEntity
100
AcDbCircle
  8
noname
 62
256
370
-1
  6
ByLayer
 10
-1843.0
 20
12012.0
 30
0.0
 40
0.0
  0
CIRCLE
  5
1BD
100
AcDbEntity
100
AcDbCircle
  8
noname
 62
256
370
-1
  6
ByLayer
 10
-1748.0
 20
12012.0
 30
0.0
 40
55.0
  0
LINE
  5
1BE
100
AcDbEntity
100
AcDbLine
  8
cache
 62
256
370
-1
  6
ByLayer
 10
-1385.0
 20
11561.0
 30
0.0
 11
-1375.0
 21
11561.0
 31
0.0
  0
LINE
  5
1BF
100
AcDbEntity
100
AcDbLine
  8
cache
 62
256
370
-1
  6
ByLayer
 10
-1385.0
 20
11561.0
 30
0.0
 11
-1375.0
 21
11561.0
 31
0.0
  0
LINE
  5
1C0
100
AcDbEntity
100
AcDbLine
  8
cache
 62
256
370
-1
  6
ByLayer
 10
-1385.0
 20
11561.0
 30
0.0
 11
-1375.0
 21
11561.0
 31
0.0
  0
LINE
  5
1C1
100
AcDbEntity
100
AcDbLine
  8
cache
 62
256
370
-1
  6
ByLayer
 10
-1385.0
 20
11561.0
 30
0.0
 11
-1375.0
 21
11561.0
 31
0.0
  0
LINE
  5
1C2
100
AcDbEntity
100
AcDbLine
  8
cache
 62
256
370
-1
  6
ByLayer
 10
-1385.0
 20
11561.0
 30
0.0
 11
-1375.0
 21
11561.0
 31
0.0
  0
LINE
  5
1C3
100
AcDbEntity
100
AcDbLine
  8
cache
 62
256
370
-1
  6
ByLayer
 10
-1375.0
 20
11561.0
 30
0.0
 11
-1385.0
 21
11561.0
 31
0.0
  0
LINE
  5
1C4
100
AcDbEntity
100
AcDbLine
  8
cache
 62
256
370
-1
  6
ByLayer
 10
-1385.0
 20
11561.0
 30
0.0
 11
-1385.0
 21
11561.0
 31
0.0
  0
LINE
  5
1C5
100
AcDbEntity
100
AcDbLine
  8
cache
 62
256
370
-1
  6
ByLayer
 10
-1385.0
 20
11436.0
 30
0.0
 11
-1375.0
 21
11436.0
 31
0.0
  0
LINE
  5
1C6
100
AcDbEntity
100
AcDbLine
  8
cache
 62
256
370
-1
  6
ByLayer
 10
-1804.0
 20
11352.0
 30
0.0
 11
-1804.0
 21
11362.0
 31
0.0
  0
CIRCLE
  5
1C7
100
AcDbEntity
100
AcDbCircle
  8
cache
 62
256
370
-1
  6
ByLayer
 10
-1310.0
 20
12057.0
 30
0.0
 40
40.0
  0
CIRCLE
  5
1C8
100
AcDbEntity
100
AcDbCircle
  8
cache
 62
256
370
-1
  6
ByLayer
 10
-1440.0
 20
12057.0
 30
0.0
 40
40.0
  0
CIRCLE
  5
1C9
100
AcDbEntity
100
AcDbCircle
  8
cache
 62
256
370
-1
  6
ByLayer
 10
-1476.0
 20
12093.0
 30
0.0
 40
2.0
  0
CIRCLE
  5
1CA
100
AcDbEntity
100
AcDbCircle
  8
cache
 62
256
370
-1
  6
ByLayer
 10
-1476.0
 20
12021.0
 30
0.0
 40
2.0
  0
CIRCLE
  5
1CB
100
AcDbEntity
100
AcDbCircle
  8
cache
 62
256
370
-1
  6
ByLayer
 10
-1404.0
 20
12021.0
 30
0.0
 40
2.0
  0
CIRCLE
  5
1CC
100
AcDbEntity
100
AcDbCircle
  8
cache
 62
256
370
-1
  6
ByLayer
 10
-1404.0
 20
12093.0
 30
0.0
 40
2.0
  0
CIRCLE
  5
1CD
100
AcDbEntity
100
AcDbCircle
  8
cache
 62
256
370
-1
  6
ByLayer
 10
-1346.0
 20
12093.0
 30
0.0
 40
2.0
  0
CIRCLE
  5
1CE
100
AcDbEntity
100
AcDbCircle
  8
cache
 62
256
370
-1
  6
ByLayer
 10
-1346.0
 20
12021.0
 30
0.0
 40
2.0
  0
CIRCLE
  5
1CF
100
AcDbEntity
100
AcDbCircle
  8
cache
 62
256
370
-1
  6
ByLayer
 10
-1274.0
 20
12021.0
 30
0.0
 40
2.0
  0
CIRCLE
  5
1D0
100
AcDbEntity
100
AcDbCircle
  8
cache
 62
256
370
-1
  6
ByLayer
 10
-1274.0
 20
12093.0
 30
0.0
 40
2.0
  0
LINE
  5
1D1
100
AcDbEntity
100
AcDbLine
  8
axe
 62
256
370
-1
  6
ByLayer
 10
-1440.0
 20
12093.0
 30
0.0
 11
-1440.0
 21
12021.0
 31
0.0
  0
LINE
  5
1D2
100
AcDbEntity
100
AcDbLine
  8
axe
 62
256
370
-1
  6
ByLayer
 10
-1404.0
 20
12057.0
 30
0.0
 11
-1476.0
 21
12057.0
 31
0.0
  0
LINE
  5
1D3
100
AcDbEntity
100
AcDbLine
  8
axe
 62
256
370
-1
  6
ByLayer
 10
-1310.0
 20
12093.0
 30
0.0
 11
-1310.0
 21
12021.0
 31
0.0
  0
LINE
  5
1D4
100
AcDbEntity
100
AcDbLine
  8
axe
 62
256
370
-1
  6
ByLayer
 10
-1274.0
 20
12057.0
 30
0.0
 11
-1346.0
 21
12057.0
 31
0.0
  0
LINE
  5
1D5
100
AcDbEntity
100
AcDbLine
  8
axe
 62
256
370
-1
  6
ByLayer
 10
-1476.0
 20
12094.0
 30
0.0
 11
-1476.0
 21
12091.0
 31
0.0
  0
LINE
  5
1D6
100
AcDbEntity
100
AcDbLine
  8
axe
 62
256
370
-1
  6
ByLayer
 10
-1404.0
 20
12093.0
 30
0.0
 11
-1404.0
 21
12092.0
 31
0.0
  0
LINE
  5
1D7
100
AcDbEntity
100
AcDbLine
  8
axe
 62
256
370
-1
  6
ByLayer
 10
-1403.0
 20
12093.0
 30
0.0
 11
-1404.0
 21
12093.0
 31
0.0
  0
LINE
  5
1D8
100
AcDbEntity
100
AcDbLine
  8
axe
 62
256
370
-1
  6
ByLayer
 10
-1346.0
 20
12094.0
 30
0.0
 11
-1346.0
 21
12092.0
 31
0.0
  0
LINE
  5
1D9
100
AcDbEntity
100
AcDbLine
  8
axe
 62
256
370
-1
  6
ByLayer
 10
-1345.0
 20
12093.0
 30
0.0
 11
-1347.0
 21
12093.0
 31
0.0
  0
LINE
  5
1DA
100
AcDbEntity
100
AcDbLine
  8
axe
 62
256
370
-1
  6
ByLayer
 10
-1274.0
 20
12094.0
 30
0.0
 11
-1274.0
 21
12091.0
 31
0.0
  0
LINE
  5
1DB
100
AcDbEntity
100
AcDbLine
  8
axe
 62
256
370
-1
  6
ByLayer
 10
-1272.0
 20
12093.0
 30
0.0
 11
-1275.0
 21
12093.0
 31
0.0
  0
LINE
  5
1DC
100
AcDbEntity
100
AcDbLine
  8
axe
 62
256
370
-1
  6
ByLayer
 10
-1274.0
 20
12022.0
 30
0.0
 11
-1274.0
 21
12019.0
 31
0.0
  0
LINE
  5
1DD
100
AcDbEntity
100
AcDbLine
  8
axe
 62
256
370
-1
  6
ByLayer
 10
-1272.0
 20
12021.0
 30
0.0
 11
-1275.0
 21
12021.0
 31
0.0
  0
LINE
  5
1DE
100
AcDbEntity
100
AcDbLine
  8
axe
 62
256
370
-1
  6
ByLayer
 10
-1346.0
 20
12022.0
 30
0.0
 11
-1346.0
 21
12019.0
 31
0.0
  0
LINE
  5
1DF
100
AcDbEntity
100
AcDbLine
  8
axe
 62
256
370
-1
  6
ByLayer
 10
-1344.0
 20
12021.0
 30
0.0
 11
-1347.0
 21
12021.0
 31
0.0
  0
LINE
  5
1E0
100
AcDbEntity
100
AcDbLine
  8
axe
 62
256
370
-1
  6
ByLayer
 10
-1404.0
 20
12022.0
 30
0.0
 11
-1404.0
 21
12019.0
 31
0.0
  0
LINE
  5
1E1
100
AcDbEntity
100
AcDbLine
  8
axe
 62
256
370
-1
  6
ByLayer
 10
-1402.0
 20
12021.0
 30
0.0
 11
-1405.0
 21
12021.0
 31
0.0
  0
LINE
  5
1E2
100
AcDbEntity
100
AcDbLine
  8
axe
 62
256
370
-1
  6
ByLayer
 10
-1476.0
 20
12022.0
 30
0.0
 11
-1476.0
 21
12019.0
 31
0.0
  0
LINE
  5
1E3
100
AcDbEntity
100
AcDbLine
  8
axe
 62
256
370
-1
  6
ByLayer
 10
-1474.0
 20
12021.0
 30
0.0
 11
-1477.0
 21
12021.0
 31
0.0
  0
LINE
  5
1E4
100
AcDbEntity
100
AcDbLine
  8
axe
 62
256
370
-1
  6
ByLayer
 10
-1440.0
 20
11740.0
 30
0.0
 11
-1440.0
 21
11642.0
 31
0.0
  0
LINE
  5
1E5
100
AcDbEntity
100
AcDbLine
  8
axe
 62
256
370
-1
  6
ByLayer
 10
-1310.0
 20
11739.0
 30
0.0
 11
-1310.0
 21
11645.0
 31
0.0
  0
LINE
  5
1E6
100
AcDbEntity
100
AcDbLine
  8
cache
 62
256
370
-1
  6
ByLayer
 10
-1480.0
 20
11702.0
 30
0.0
 11
-1480.0
 21
11692.0
 31
0.0
  0
LINE
  5
1E7
100
AcDbEntity
100
AcDbLine
  8
cache
 62
256
370
-1
  6
ByLayer
 10
-1400.0
 20
11702.0
 30
0.0
 11
-1400.0
 21
11692.0
 31
0.0
  0
LINE
  5
1E8
100
AcDbEntity
100
AcDbLine
  8
cache
 62
256
370
-1
  6
ByLayer
 10
-1350.0
 20
11702.0
 30
0.0
 11
-1350.0
 21
11692.0
 31
0.0
  0
LINE
  5
1E9
100
AcDbEntity
100
AcDbLine
  8
cache
 62
256
370
-1
  6
ByLayer
 10
-1270.0
 20
11702.0
 30
0.0
 11
-1270.0
 21
11692.0
 31
0.0
  0
LINE
  5
1EA
100
AcDbEntity
100
AcDbLine
  8
axe
 62
256
370
-1
  6
ByLayer
 10
-1476.0
 20
11715.0
 30
0.0
 11
-1476.0
 21
11676.0
 31
0.0
  0
LINE
  5
1EB
100
AcDbEntity
100
AcDbLine
  8
axe
 62
256
370
-1
  6
ByLayer
 10
-1404.0
 20
11715.0
 30
0.0
 11
-1404.0
 21
11677.0
 31
0.0
  0
LINE
  5
1EC
100
AcDbEntity
100
AcDbLine
  8
axe
 62
256
370
-1
  6
ByLayer
 10
-1346.0
 20
11716.0
 30
0.0
 11
-1346.0
 21
11678.0
 31
0.0
  0
LINE
  5
1ED
100
AcDbEntity
100
AcDbLine
  8
axe
 62
256
370
-1
  6
ByLayer
 10
-1274.0
 20
11719.0
 30
0.0
 11
-1274.0
 21
11675.0
 31
0.0
  0
LINE
  5
1EE
100
AcDbEntity
100
AcDbLine
  8
cache
 62
256
370
-1
  6
ByLayer
 10
-1478.0
 20
11702.0
 30
0.0
 11
-1478.0
 21
11692.0
 31
0.0
  0
LINE
  5
1EF
100
AcDbEntity
100
AcDbLine
  8
cache
 62
256
370
-1
  6
ByLayer
 10
-1474.0
 20
11702.0
 30
0.0
 11
-1474.0
 21
11692.0
 31
0.0
  0
LINE
  5
1F0
100
AcDbEntity
100
AcDbLine
  8
cache
 62
256
370
-1
  6
ByLayer
 10
-1406.0
 20
11702.0
 30
0.0
 11
-1406.0
 21
11692.0
 31
0.0
  0
LINE
  5
1F1
100
AcDbEntity
100
AcDbLine
  8
cache
 62
256
370
-1
  6
ByLayer
 10
-1402.0
 20
11702.0
 30
0.0
 11
-1402.0
 21
11692.0
 31
0.0
  0
LINE
  5
1F2
100
AcDbEntity
100
AcDbLine
  8
cache
 62
256
370
-1
  6
ByLayer
 10
-1348.0
 20
11702.0
 30
0.0
 11
-1348.0
 21
11692.0
 31
0.0
  0
LINE
  5
1F3
100
AcDbEntity
100
AcDbLine
  8
cache
 62
256
370
-1
  6
ByLayer
 10
-1344.0
 20
11702.0
 30
0.0
 11
-1344.0
 21
11692.0
 31
0.0
  0
LINE
  5
1F4
100
AcDbEntity
100
AcDbLine
  8
cache
 62
256
370
-1
  6
ByLayer
 10
-1276.0
 20
11702.0
 30
0.0
 11
-1276.0
 21
11692.0
 31
0.0
  0
LINE
  5
1F5
100
AcDbEntity
100
AcDbLine
  8
cache
 62
256
370
-1
  6
ByLayer
 10
-1272.0
 20
11702.0
 30
0.0
 11
-1272.0
 21
11692.0
 31
0.0
  0
LINE
  5
1F6
100
AcDbEntity
100
AcDbLine
  8
cache
 62
256
370
-1
  6
ByLayer
 10
-1793.0
 20
11702.0
 30
0.0
 11
-1793.0
 21
11692.0
 31
0.0
  0
LINE
  5
1F7
100
AcDbEntity
100
AcDbLine
  8
cache
 62
256
370
-1
  6
ByLayer
 10
-1781.0
 20
11702.0
 30
0.0
 11
-1781.0
 21
11692.0
 31
0.0
  0
LINE
  5
1F8
100
AcDbEntity
100
AcDbLine
  8
cache
 62
256
370
-1
  6
ByLayer
 10
-1793.0
 20
12052.0
 30
0.0
 11
-1793.0
 21
12072.0
 31
0.0
  0
LINE
  5
1F9
100
AcDbEntity
100
AcDbLine
  8
cache
 62
256
370
-1
  6
ByLayer
 10
-1793.0
 20
12072.0
 30
0.0
 11
-1781.0
 21
12072.0
 31
0.0
  0
LINE
  5
1FA
100
AcDbEntity
100
AcDbLine
  8
cache
 62
256
370
-1
  6
ByLayer
 10
-1781.0
 20
12072.0
 30
0.0
 11
-1781.0
 21
12056.0
 31
0.0
  0
LINE
  5
1FB
100
AcDbEntity
100
AcDbLine
  8
cache
 62
256
370
-1
  6
ByLayer
 10
-1785.0
 20
12052.0
 30
0.0
 11
-1793.0
 21
12052.0
 31
0.0
  0
LINE
  5
1FC
100
AcDbEntity
100
AcDbLine
  8
cache
 62
256
370
-1
  6
ByLayer
 10
-1755.0
 20
12066.0
 30
0.0
 11
-1755.0
 21
12071.0
 31
0.0
  0
LINE
  5
1FD
100
AcDbEntity
100
AcDbLine
  8
cache
 62
256
370
-1
  6
ByLayer
 10
-1755.0
 20
12071.0
 30
0.0
 11
-1727.0
 21
12071.0
 31
0.0
  0
LINE
  5
1FE
100
AcDbEntity
100
AcDbLine
  8
cache
 62
256
370
-1
  6
ByLayer
 10
-1727.0
 20
12071.0
 30
0.0
 11
-1727.0
 21
12062.0
 31
0.0
  0
LINE
  5
1FF
100
AcDbEntity
100
AcDbLine
  8
cache
 62
256
370
-1
  6
ByLayer
 10
-1755.0
 20
11692.0
 30
0.0
 11
-1755.0
 21
11702.0
 31
0.0
  0
LINE
  5
200
100
AcDbEntity
100
AcDbLine
  8
cache
 62
256
370
-1
  6
ByLayer
 10
-1727.0
 20
11702.0
 30
0.0
 11
-1727.0
 21
11692.0
 31
0.0
  0
LINE
  5
201
100
AcDbEntity
100
AcDbLine
  8
cache
 62
256
370
-1
  6
ByLayer
 10
-1821.0
 20
11702.0
 30
0.0
 11
-1821.0
 21
11692.0
 31
0.0
  0
LINE
  5
202
100
AcDbEntity
100
AcDbLine
  8
cache
 62
256
370
-1
  6
ByLayer
 10
-1626.0
 20
11702.0
 30
0.0
 11
-1626.0
 21
11692.0
 31
0.0
  0
LINE
  5
203
100
AcDbEntity
100
AcDbLine
  8
cache
 62
256
370
-1
  6
ByLayer
 10
-1821.0
 20
11939.0
 30
0.0
 11
-1821.0
 21
11922.0
 31
0.0
  0
LINE
  5
204
100
AcDbEntity
100
AcDbLine
  8
cache
 62
256
370
-1
  6
ByLayer
 10
-1821.0
 20
11922.0
 30
0.0
 11
-1626.0
 21
11922.0
 31
0.0
  0
LINE
  5
205
100
AcDbEntity
100
AcDbLine
  8
cache
 62
256
370
-1
  6
ByLayer
 10
-1626.0
 20
11922.0
 30
0.0
 11
-1626.0
 21
11939.0
 31
0.0
  0
LINE
  5
206
100
AcDbEntity
100
AcDbLine
  8
cache
 62
256
370
-1
  6
ByLayer
 10
-1626.0
 20
11939.0
 30
0.0
 11
-1821.0
 21
11939.0
 31
0.0
  0
LINE
  5
207
100
AcDbEntity
100
AcDbLine
  8
cache
 62
256
370
-1
  6
ByLayer
 10
-1385.0
 20
12066.0
 30
0.0
 11
-1375.0
 21
12066.0
 31
0.0
  0
LINE
  5
208
100
AcDbEntity
100
AcDbLine
  8
cache
 62
256
370
-1
  6
ByLayer
 10
-1385.0
 20
11957.0
 30
0.0
 11
-1375.0
 21
11957.0
 31
0.0
  0
LINE
  5
209
100
AcDbEntity
100
AcDbLine
  8
cache
 62
256
370
-1
  6
ByLayer
 10
-1525.0
 20
11652.0
 30
0.0
 11
-1525.0
 21
11692.0
 31
0.0
  0
LINE
  5
20A
100
AcDbEntity
100
AcDbLine
  8
cache
 62
256
370
-1
  6
ByLayer
 10
-1525.0
 20
11652.0
 30
0.0
 11
-1555.0
 21
11652.0
 31
0.0
  0
LINE
  5
20B
100
AcDbEntity
100
AcDbLine
  8
cache
 62
256
370
-1
  6
ByLayer
 10
-1555.0
 20
11652.0
 30
0.0
 11
-1480.0
 21
11652.0
 31
0.0
  0
LINE
  5
20C
100
AcDbEntity
100
AcDbLine
  8
cache
 62
256
370
-1
  6
ByLayer
 10
-1515.0
 20
11642.0
 30
0.0
 11
-1555.0
 21
11642.0
 31
0.0
  0
LINE
  5
20D
100
AcDbEntity
100
AcDbLine
  8
cache
 62
256
370
-1
  6
ByLayer
 10
-1555.0
 20
11642.0
 30
0.0
 11
-1480.0
 21
11642.0
 31
0.0
  0
LINE
  5
20E
100
AcDbEntity
100
AcDbLine
  8
cache
 62
256
370
-1
  6
ByLayer
 10
-1480.0
 20
11642.0
 30
0.0
 11
-1480.0
 21
11652.0
 31
0.0
  0
LINE
  5
20F
100
AcDbEntity
100
AcDbLine
  8
cache
 62
256
370
-1
  6
ByLayer
 10
-1555.0
 20
11652.0
 30
0.0
 11
-1555.0
 21
11642.0
 31
0.0
  0
LINE
  5
210
100
AcDbEntity
100
AcDbLine
  8
cache
 62
256
370
-1
  6
ByLayer
 10
-1515.0
 20
11652.0
 30
0.0
 11
-1515.0
 21
11692.0
 31
0.0
  0
LINE
  5
211
100
AcDbEntity
100
AcDbLine
  8
cache
 62
256
370
-1
  6
ByLayer
 10
-1525.0
 20
11572.0
 30
0.0
 11
-1445.0
 21
11572.0
 31
0.0
  0
LINE
  5
212
100
AcDbEntity
100
AcDbLine
  8
cache
 62
256
370
-1
  6
ByLayer
 10
-1445.0
 20
11572.0
 30
0.0
 11
-1445.0
 21
11392.0
 31
0.0
  0
LINE
  5
213
100
AcDbEntity
100
AcDbLine
  8
cache
 62
256
370
-1
  6
ByLayer
 10
-1445.0
 20
11392.0
 30
0.0
 11
-1525.0
 21
11392.0
 31
0.0
  0
LINE
  5
214
100
AcDbEntity
100
AcDbLine
  8
cache
 62
256
370
-1
  6
ByLayer
 10
-1525.0
 20
11392.0
 30
0.0
 11
-1525.0
 21
11572.0
 31
0.0
  0
LINE
  5
215
100
AcDbEntity
100
AcDbLine
  8
cache
 62
256
370
-1
  6
ByLayer
 10
-1345.0
 20
11572.0
 30
0.0
 11
-1345.0
 21
11572.0
 31
0.0
  0
LINE
  5
216
100
AcDbEntity
100
AcDbLine
  8
cache
 62
256
370
-1
  6
ByLayer
 10
-1265.0
 20
11572.0
 30
0.0
 11
-1265.0
 21
11572.0
 31
0.0
  0
LINE
  5
217
100
AcDbEntity
100
AcDbLine
  8
cache
 62
256
370
-1
  6
ByLayer
 10
-1265.0
 20
11392.0
 30
0.0
 11
-1265.0
 21
11392.0
 31
0.0
  0
LINE
  5
218
100
AcDbEntity
100
AcDbLine
  8
cache
 62
256
370
-1
  6
ByLayer
 10
-1345.0
 20
11392.0
 30
0.0
 11
-1345.0
 21
11392.0
 31
0.0
  0
LINE
  5
219
100
AcDbEntity
100
AcDbLine
  8
cache
 62
256
370
-1
  6
ByLayer
 10
-1345.0
 20
11572.0
 30
0.0
 11
-1345.0
 21
11572.0
 31
0.0
  0
LINE
  5
21A
100
AcDbEntity
100
AcDbLine
  8
cache
 62
256
370
-1
  6
ByLayer
 10
-1345.0
 20
11572.0
 30
0.0
 11
-1265.0
 21
11572.0
 31
0.0
  0
LINE
  5
21B
100
AcDbEntity
100
AcDbLine
  8
cache
 62
256
370
-1
  6
ByLayer
 10
-1265.0
 20
11572.0
 30
0.0
 11
-1265.0
 21
11392.0
 31
0.0
  0
LINE
  5
21C
100
AcDbEntity
100
AcDbLine
  8
cache
 62
256
370
-1
  6
ByLayer
 10
-1265.0
 20
11392.0
 30
0.0
 11
-1345.0
 21
11392.0
 31
0.0
  0
LINE
  5
21D
100
AcDbEntity
100
AcDbLine
  8
cache
 62
256
370
-1
  6
ByLayer
 10
-1345.0
 20
11392.0
 30
0.0
 11
-1345.0
 21
11572.0
 31
0.0
  0
LINE
  5
21E
100
AcDbEntity
100
AcDbLine
  8
cache
 62
256
370
-1
  6
ByLayer
 10
-1785.0
 20
12052.0
 30
0.0
 11
-1781.0
 21
12052.0
 31
0.0
  0
LINE
  5
21F
100
AcDbEntity
100
AcDbLine
  8
cache
 62
256
370
-1
  6
ByLayer
 10
-1781.0
 20
12052.0
 30
0.0
 11
-1781.0
 21
12056.0
 31
0.0
  0
LINE
  5
220
100
AcDbEntity
100
AcDbLine
  8
cache
 62
256
370
-1
  6
ByLayer
 10
-1755.0
 20
12066.0
 30
0.0
 11
-1755.0
 21
12053.0
 31
0.0
  0
LINE
  5
221
100
AcDbEntity
100
AcDbLine
  8
cache
 62
256
370
-1
  6
ByLayer
 10
-1755.0
 20
12053.0
 30
0.0
 11
-1727.0
 21
12053.0
 31
0.0
  0
LINE
  5
222
100
AcDbEntity
100
AcDbLine
  8
cache
 62
256
370
-1
  6
ByLayer
 10
-1727.0
 20
12053.0
 30
0.0
 11
-1727.0
 21
12062.0
 31
0.0
  0
CIRCLE
  5
223
100
AcDbEntity
100
AcDbCircle
  8
optic
 62
256
370
-1
  6
ByLayer
 10
-1748.0
 20
12012.0
 30
0.0
 40
55.0
  0
CIRCLE
  5
224
100
AcDbEntity
100
AcDbCircle
  8
optic
 62
256
370
-1
  6
ByLayer
 10
-1748.0
 20
12012.0
 30
0.0
 40
45.0
  0
LINE
  5
225
100
AcDbEntity
100
AcDbLine
  8
axe
 62
256
370
-1
  6
ByLayer
 10
-1693.0
 20
12012.0
 30
0.0
 11
-1693.0
 21
12012.0
 31
0.0
  0
LINE
  5
226
100
AcDbEntity
100
AcDbLine
  8
axe
 62
256
370
-1
  6
ByLayer
 10
-1748.0
 20
12012.0
 30
0.0
 11
-1748.0
 21
12012.0
 31
0.0
  0
LINE
  5
227
100
AcDbEntity
100
AcDbLine
  8
axe
 62
256
370
-1
  6
ByLayer
 10
-1748.0
 20
12012.0
 30
0.0
 11
-1748.0
 21
12012.0
 31
0.0
  0
CIRCLE
  5
228
100
AcDbEntity
100
AcDbCircle
  8
vantilo
 62
256
370
-1
  6
DOT
 10
-1440.0
 20
12057.0
 30
0.0
 40
39.0
  0
CIRCLE
  5
229
100
AcDbEntity
100
AcDbCircle
  8
vantilo
 62
256
370
-1
  6
DOT
 10
-1476.0
 20
12093.0
 30
0.0
 40
2.0
  0
CIRCLE
  5
22A
100
AcDbEntity
100
AcDbCircle
  8
vantilo
 62
256
370
-1
  6
DOT
 10
-1404.0
 20
12093.0
 30
0.0
 40
2.0
  0
CIRCLE
  5
22B
100
AcDbEntity
100
AcDbCircle
  8
vantilo
 62
256
370
-1
  6
DOT
 10
-1404.0
 20
12021.0
 30
0.0
 40
2.0
  0
CIRCLE
  5
22C
100
AcDbEntity
100
AcDbCircle
  8
vantilo
 62
256
370
-1
  6
DOT
 10
-1476.0
 20
12021.0
 30
0.0
 40
2.0
  0
LINE
  5
22D
100
AcDbEntity
100
AcDbLine
  8
vantilo
 62
256
370
-1
  6
DOT
 10
-1480.0
 20
12097.0
 30
0.0
 11
-1400.0
 21
12097.0
 31
0.0
  0
LINE
  5
22E
100
AcDbEntity
100
AcDbLine
  8
vantilo
 62
256
370
-1
  6
DOT
 10
-1400.0
 20
12097.0
 30
0.0
 11
-1400.0
 21
12017.0
 31
0.0
  0
LINE
  5
22F
100
AcDbEntity
100
AcDbLine
  8
vantilo
 62
256
370
-1
  6
DOT
 10
-1400.0
 20
12017.0
 30
0.0
 11
-1480.0
 21
12017.0
 31
0.0
  0
LINE
  5
230
100
AcDbEntity
100
AcDbLine
  8
vantilo
 62
256
370
-1
  6
DOT
 10
-1480.0
 20
12017.0
 30
0.0
 11
-1480.0
 21
12097.0
 31
0.0
  0
CIRCLE
  5
231
100
AcDbEntity
100
AcDbCircle
  8
vantilo
 62
256
370
-1
  6
DOT
 10
-1440.0
 20
12057.0
 30
0.0
 40
17.0
  0
LINE
  5
232
100
AcDbEntity
100
AcDbLine
  8
vantilo
 62
256
370
-1
  6
DOT
 10
-1445.0
 20
12073.0
 30
0.0
 11
-1450.0
 21
12092.0
 31
0.0
  0
LINE
  5
233
100
AcDbEntity
100
AcDbLine
  8
vantilo
 62
256
370
-1
  6
DOT
 10
-1434.0
 20
12073.0
 30
0.0
 11
-1430.0
 21
12092.0
 31
0.0
  0
ARC
  5
234
100
AcDbEntity
  8
vantilo
 62
256
370
-1
  6
DOT
100
AcDbCircle
 10
-1440.0
 20
12057.0
 30
0.0
 40
37.0
100
AcDbArc
 50
74.0
 51
105.0
  0
LINE
  5
235
100
AcDbEntity
100
AcDbLine
  8
vantilo
 62
256
370
-1
  6
DOT
 10
-1445.0
 20
12073.0
 30
0.0
 11
-1450.0
 21
12092.0
 31
0.0
  0
LINE
  5
236
100
AcDbEntity
100
AcDbLine
  8
vantilo
 62
256
370
-1
  6
DOT
 10
-1434.0
 20
12073.0
 30
0.0
 11
-1430.0
 21
12092.0
 31
0.0
  0
ARC
  5
237
100
AcDbEntity
  8
vantilo
 62
256
370
-1
  6
DOT
100
AcDbCircle
 10
-1440.0
 20
12057.0
 30
0.0
 40
37.0
100
AcDbArc
 50
74.0
 51
105.0
  0
LINE
  5
238
100
AcDbEntity
100
AcDbLine
  8
vantilo
 62
256
370
-1
  6
DOT
 10
-1445.0
 20
12073.0
 30
0.0
 11
-1450.0
 21
12092.0
 31
0.0
  0
LINE
  5
239
100
AcDbEntity
100
AcDbLine
  8
vantilo
 62
256
370
-1
  6
DOT
 10
-1434.0
 20
12073.0
 30
0.0
 11
-1430.0
 21
12092.0
 31
0.0
  0
ARC
  5
23A
100
AcDbEntity
  8
vantilo
 62
256
370
-1
  6
DOT
100
AcDbCircle
 10
-1440.0
 20
12057.0
 30
0.0
 40
37.0
100
AcDbArc
 50
74.0
 51
105.0
  0
LINE
  5
23B
100
AcDbEntity
100
AcDbLine
  8
vantilo
 62
256
370
-1
  6
DOT
 10
-1445.0
 20
12073.0
 30
0.0
 11
-1450.0
 21
12092.0
 31
0.0
  0
LINE
  5
23C
100
AcDbEntity
100
AcDbLine
  8
vantilo
 62
256
370
-1
  6
DOT
 10
-1434.0
 20
12073.0
 30
0.0
 11
-1430.0
 21
12092.0
 31
0.0
  0
ARC
  5
23D
100
AcDbEntity
  8
vantilo
 62
256
370
-1
  6
DOT
100
AcDbCircle
 10
-1440.0
 20
12057.0
 30
0.0
 40
37.0
100
AcDbArc
 50
74.0
 51
105.0
  0
LINE
  5
23E
100
AcDbEntity
100
AcDbLine
  8
vantilo
 62
256
370
-1
  6
DOT
 10
-1445.0
 20
12073.0
 30
0.0
 11
-1450.0
 21
12092.0
 31
0.0
  0
LINE
  5
23F
100
AcDbEntity
100
AcDbLine
  8
vantilo
 62
256
370
-1
  6
DOT
 10
-1434.0
 20
12073.0
 30
0.0
 11
-1430.0
 21
12092.0
 31
0.0
  0
ARC
  5
240
100
AcDbEntity
  8
vantilo
 62
256
370
-1
  6
DOT
100
AcDbCircle
 10
-1440.0
 20
12057.0
 30
0.0
 40
37.0
100
AcDbArc
 50
74.0
 51
105.0
  0
LINE
  5
241
100
AcDbEntity
100
AcDbLine
  8
vantilo
 62
256
370
-1
  6
DOT
 10
-1445.0
 20
12073.0
 30
0.0
 11
-1450.0
 21
12092.0
 31
0.0
  0
LINE
  5
242
100
AcDbEntity
100
AcDbLine
  8
vantilo
 62
256
370
-1
  6
DOT
 10
-1434.0
 20
12073.0
 30
0.0
 11
-1430.0
 21
12092.0
 31
0.0
  0
ARC
  5
243
100
AcDbEntity
  8
vantilo
 62
256
370
-1
  6
DOT
100
AcDbCircle
 10
-1440.0
 20
12057.0
 30
0.0
 40
37.0
100
AcDbArc
 50
74.0
 51
105.0
  0
LINE
  5
244
100
AcDbEntity
100
AcDbLine
  8
vantilo
 62
256
370
-1
  6
DOT
 10
-1445.0
 20
12073.0
 30
0.0
 11
-1450.0
 21
12092.0
 31
0.0
  0
LINE
  5
245
100
AcDbEntity
100
AcDbLine
  8
vantilo
 62
256
370
-1
  6
DOT
 10
-1434.0
 20
12073.0
 30
0.0
 11
-1430.0
 21
12092.0
 31
0.0
  0
ARC
  5
246
100
AcDbEntity
  8
vantilo
 62
256
370
-1
  6
DOT
100
AcDbCircle
 10
-1440.0
 20
12057.0
 30
0.0
 40
37.0
100
AcDbArc
 50
74.0
 51
105.0
  0
LINE
  5
247
100
AcDbEntity
100
AcDbLine
  8
vantilo
 62
256
370
-1
  6
DOT
 10
-1445.0
 20
12073.0
 30
0.0
 11
-1450.0
 21
12092.0
 31
0.0
  0
LINE
  5
248
100
AcDbEntity
100
AcDbLine
  8
vantilo
 62
256
370
-1
  6
DOT
 10
-1434.0
 20
12073.0
 30
0.0
 11
-1430.0
 21
12092.0
 31
0.0
  0
ARC
  5
249
100
AcDbEntity
  8
vantilo
 62
256
370
-1
  6
DOT
100
AcDbCircle
 10
-1440.0
 20
12057.0
 30
0.0
 40
37.0
100
AcDbArc
 50
74.0
 51
105.0
  0
LINE
  5
24A
100
AcDbEntity
100
AcDbLine
  8
vantilo
 62
256
370
-1
  6
DOT
 10
-1445.0
 20
12073.0
 30
0.0
 11
-1450.0
 21
12092.0
 31
0.0
  0
LINE
  5
24B
100
AcDbEntity
100
AcDbLine
  8
vantilo
 62
256
370
-1
  6
DOT
 10
-1434.0
 20
12073.0
 30
0.0
 11
-1430.0
 21
12092.0
 31
0.0
  0
ARC
  5
24C
100
AcDbEntity
  8
vantilo
 62
256
370
-1
  6
DOT
100
AcDbCircle
 10
-1440.0
 20
12057.0
 30
0.0
 40
37.0
100
AcDbArc
 50
74.0
 51
105.0
  0
LINE
  5
24D
100
AcDbEntity
100
AcDbLine
  8
vantilo
 62
256
370
-1
  6
DOT
 10
-1445.0
 20
12073.0
 30
0.0
 11
-1450.0
 21
12092.0
 31
0.0
  0
LINE
  5
24E
100
AcDbEntity
100
AcDbLine
  8
vantilo
 62
256
370
-1
  6
DOT
 10
-1434.0
 20
12073.0
 30
0.0
 11
-1430.0
 21
12092.0
 31
0.0
  0
ARC
  5
24F
100
AcDbEntity
  8
vantilo
 62
256
370
-1
  6
DOT
100
AcDbCircle
 10
-1440.0
 20
12057.0
 30
0.0
 40
37.0
100
AcDbArc
 50
74.0
 51
105.0
  0
LINE
  5
250
100
AcDbEntity
100
AcDbLine
  8
vantilo
 62
256
370
-1
  6
DOT
 10
-1445.0
 20
12073.0
 30
0.0
 11
-1450.0
 21
12092.0
 31
0.0
  0
LINE
  5
251
100
AcDbEntity
100
AcDbLine
  8
vantilo
 62
256
370
-1
  6
DOT
 10
-1434.0
 20
12073.0
 30
0.0
 11
-1430.0
 21
12092.0
 31
0.0
  0
ARC
  5
252
100
AcDbEntity
  8
vantilo
 62
256
370
-1
  6
DOT
100
AcDbCircle
 10
-1440.0
 20
12057.0
 30
0.0
 40
37.0
100
AcDbArc
 50
74.0
 51
105.0
  0
LINE
  5
253
100
AcDbEntity
100
AcDbLine
  8
vantilo
 62
256
370
-1
  6
DOT
 10
-1445.0
 20
12073.0
 30
0.0
 11
-1450.0
 21
12092.0
 31
0.0
  0
LINE
  5
254
100
AcDbEntity
100
AcDbLine
  8
vantilo
 62
256
370
-1
  6
DOT
 10
-1434.0
 20
12073.0
 30
0.0
 11
-1430.0
 21
12092.0
 31
0.0
  0
ARC
  5
255
100
AcDbEntity
  8
vantilo
 62
256
370
-1
  6
DOT
100
AcDbCircle
 10
-1440.0
 20
12057.0
 30
0.0
 40
37.0
100
AcDbArc
 50
74.0
 51
105.0
  0
LINE
  5
256
100
AcDbEntity
100
AcDbLine
  8
vantilo
 62
256
370
-1
  6
DOT
 10
-1445.0
 20
12073.0
 30
0.0
 11
-1450.0
 21
12092.0
 31
0.0
  0
LINE
  5
257
100
AcDbEntity
100
AcDbLine
  8
vantilo
 62
256
370
-1
  6
DOT
 10
-1434.0
 20
12073.0
 30
0.0
 11
-1430.0
 21
12092.0
 31
0.0
  0
ARC
  5
258
100
AcDbEntity
  8
vantilo
 62
256
370
-1
  6
DOT
100
AcDbCircle
 10
-1440.0
 20
12057.0
 30
0.0
 40
37.0
100
AcDbArc
 50
74.0
 51
105.0
  0
LINE
  5
259
100
AcDbEntity
100
AcDbLine
  8
vantilo
 62
256
370
-1
  6
DOT
 10
-1445.0
 20
12073.0
 30
0.0
 11
-1450.0
 21
12092.0
 31
0.0
  0
LINE
  5
25A
100
AcDbEntity
100
AcDbLine
  8
vantilo
 62
256
370
-1
  6
DOT
 10
-1434.0
 20
12073.0
 30
0.0
 11
-1430.0
 21
12092.0
 31
0.0
  0
ARC
  5
25B
100
AcDbEntity
  8
vantilo
 62
256
370
-1
  6
DOT
100
AcDbCircle
 10
-1440.0
 20
12057.0
 30
0.0
 40
37.0
100
AcDbArc
 50
74.0
 51
105.0
  0
LINE
  5
25C
100
AcDbEntity
100
AcDbLine
  8
vantilo
 62
256
370
-1
  6
DOT
 10
-1445.0
 20
12073.0
 30
0.0
 11
-1450.0
 21
12092.0
 31
0.0
  0
LINE
  5
25D
100
AcDbEntity
100
AcDbLine
  8
vantilo
 62
256
370
-1
  6
DOT
 10
-1434.0
 20
12073.0
 30
0.0
 11
-1430.0
 21
12092.0
 31
0.0
  0
ARC
  5
25E
100
AcDbEntity
  8
vantilo
 62
256
370
-1
  6
DOT
100
AcDbCircle
 10
-1440.0
 20
12057.0
 30
0.0
 40
37.0
100
AcDbArc
 50
74.0
 51
105.0
  0
LINE
  5
25F
100
AcDbEntity
100
AcDbLine
  8
vantilo
 62
256
370
-1
  6
DOT
 10
-1456.0
 20
12062.0
 30
0.0
 11
-1474.0
 21
12071.0
 31
0.0
  0
LINE
  5
260
100
AcDbEntity
100
AcDbLine
  8
vantilo
 62
256
370
-1
  6
DOT
 10
-1448.0
 20
12071.0
 30
0.0
 11
-1461.0
 21
12087.0
 31
0.0
  0
ARC
  5
261
100
AcDbEntity
  8
vantilo
 62
256
370
-1
  6
DOT
100
AcDbCircle
 10
-1440.0
 20
12057.0
 30
0.0
 40
37.0
100
AcDbArc
 50
125.0000000000000142
 51
157.0
  0
LINE
  5
262
100
AcDbEntity
100
AcDbLine
  8
vantilo
 62
256
370
-1
  6
DOT
 10
-1454.0
 20
12047.0
 30
0.0
 11
-1472.0
 21
12039.0
 31
0.0
  0
LINE
  5
263
100
AcDbEntity
100
AcDbLine
  8
vantilo
 62
256
370
-1
  6
DOT
 10
-1456.0
 20
12059.0
 30
0.0
 11
-1477.0
 21
12058.0
 31
0.0
  0
ARC
  5
264
100
AcDbEntity
  8
vantilo
 62
256
370
-1
  6
DOT
100
AcDbCircle
 10
-1440.0
 20
12057.0
 30
0.0
 40
37.0
100
AcDbArc
 50
177.0
 51
208.0
  0
LINE
  5
265
100
AcDbEntity
100
AcDbLine
  8
vantilo
 62
256
370
-1
  6
DOT
 10
-1441.0
 20
12040.0
 30
0.0
 11
-1446.0
 21
12020.0
 31
0.0
  0
LINE
  5
266
100
AcDbEntity
100
AcDbLine
  8
vantilo
 62
256
370
-1
  6
DOT
 10
-1452.0
 20
12045.0
 30
0.0
 11
-1464.0
 21
12029.0
 31
0.0
  0
ARC
  5
267
100
AcDbEntity
  8
vantilo
 62
256
370
-1
  6
DOT
100
AcDbCircle
 10
-1440.0
 20
12057.0
 30
0.0
 40
37.0
100
AcDbArc
 50
228.0
 51
260.0
  0
LINE
  5
268
100
AcDbEntity
100
AcDbLine
  8
vantilo
 62
256
370
-1
  6
DOT
 10
-1427.0
 20
12045.0
 30
0.0
 11
-1415.0
 21
12029.0
 31
0.0
  0
LINE
  5
269
100
AcDbEntity
100
AcDbLine
  8
vantilo
 62
256
370
-1
  6
DOT
 10
-1438.0
 20
12040.0
 30
0.0
 11
-1433.0
 21
12020.0
 31
0.0
  0
ARC
  5
26A
100
AcDbEntity
  8
vantilo
 62
256
370
-1
  6
DOT
100
AcDbCircle
 10
-1440.0
 20
12057.0
 30
0.0
 40
37.0
100
AcDbArc
 50
280.0
 51
311.0
  0
LINE
  5
26B
100
AcDbEntity
100
AcDbLine
  8
vantilo
 62
256
370
-1
  6
DOT
 10
-1423.0
 20
12059.0
 30
0.0
 11
-1403.0
 21
12059.0
 31
0.0
  0
LINE
  5
26C
100
AcDbEntity
100
AcDbLine
  8
vantilo
 62
256
370
-1
  6
DOT
 10
-1425.0
 20
12047.0
 30
0.0
 11
-1407.0
 21
12039.0
 31
0.0
  0
ARC
  5
26D
100
AcDbEntity
  8
vantilo
 62
256
370
-1
  6
DOT
100
AcDbCircle
 10
-1440.0
 20
12057.0
 30
0.0
 40
37.0
100
AcDbArc
 50
331.0
 51
3.0
  0
LINE
  5
26E
100
AcDbEntity
100
AcDbLine
  8
vantilo
 62
256
370
-1
  6
DOT
 10
-1431.0
 20
12071.0
 30
0.0
 11
-1418.0
 21
12087.0
 31
0.0
  0
LINE
  5
26F
100
AcDbEntity
100
AcDbLine
  8
vantilo
 62
256
370
-1
  6
DOT
 10
-1424.0
 20
12062.0
 30
0.0
 11
-1406.0
 21
12071.0
 31
0.0
  0
ARC
  5
270
100
AcDbEntity
  8
vantilo
 62
256
370
-1
  6
DOT
100
AcDbCircle
 10
-1440.0
 20
12057.0
 30
0.0
 40
37.0
100
AcDbArc
 50
23.0
 51
54.0
  0
CIRCLE
  5
271
100
AcDbEntity
100
AcDbCircle
  8
vantilo
 62
256
370
-1
  6
DOT
 10
-1310.0
 20
12057.0
 30
0.0
 40
39.0
  0
CIRCLE
  5
272
100
AcDbEntity
100
AcDbCircle
  8
vantilo
 62
256
370
-1
  6
DOT
 10
-1346.0
 20
12093.0
 30
0.0
 40
2.0
  0
CIRCLE
  5
273
100
AcDbEntity
100
AcDbCircle
  8
vantilo
 62
256
370
-1
  6
DOT
 10
-1274.0
 20
12093.0
 30
0.0
 40
2.0
  0
CIRCLE
  5
274
100
AcDbEntity
100
AcDbCircle
  8
vantilo
 62
256
370
-1
  6
DOT
 10
-1274.0
 20
12021.0
 30
0.0
 40
2.0
  0
CIRCLE
  5
275
100
AcDbEntity
100
AcDbCircle
  8
vantilo
 62
256
370
-1
  6
DOT
 10
-1346.0
 20
12021.0
 30
0.0
 40
2.0
  0
LINE
  5
276
100
AcDbEntity
100
AcDbLine
  8
vantilo
 62
256
370
-1
  6
DOT
 10
-1350.0
 20
12097.0
 30
0.0
 11
-1270.0
 21
12097.0
 31
0.0
  0
LINE
  5
277
100
AcDbEntity
100
AcDbLine
  8
vantilo
 62
256
370
-1
  6
DOT
 10
-1270.0
 20
12097.0
 30
0.0
 11
-1270.0
 21
12017.0
 31
0.0
  0
LINE
  5
278
100
AcDbEntity
100
AcDbLine
  8
vantilo
 62
256
370
-1
  6
DOT
 10
-1270.0
 20
12017.0
 30
0.0
 11
-1350.0
 21
12017.0
 31
0.0
  0
LINE
  5
279
100
AcDbEntity
100
AcDbLine
  8
vantilo
 62
256
370
-1
  6
DOT
 10
-1350.0
 20
12017.0
 30
0.0
 11
-1350.0
 21
12097.0
 31
0.0
  0
CIRCLE
  5
27A
100
AcDbEntity
100
AcDbCircle
  8
vantilo
 62
256
370
-1
  6
DOT
 10
-1310.0
 20
12057.0
 30
0.0
 40
17.0
  0
LINE
  5
27B
100
AcDbEntity
100
AcDbLine
  8
vantilo
 62
256
370
-1
  6
DOT
 10
-1315.0
 20
12073.0
 30
0.0
 11
-1320.0
 21
12092.0
 31
0.0
  0
LINE
  5
27C
100
AcDbEntity
100
AcDbLine
  8
vantilo
 62
256
370
-1
  6
DOT
 10
-1304.0
 20
12073.0
 30
0.0
 11
-1300.0
 21
12092.0
 31
0.0
  0
ARC
  5
27D
100
AcDbEntity
  8
vantilo
 62
256
370
-1
  6
DOT
100
AcDbCircle
 10
-1310.0
 20
12057.0
 30
0.0
 40
37.0
100
AcDbArc
 50
74.0
 51
105.0
  0
LINE
  5
27E
100
AcDbEntity
100
AcDbLine
  8
vantilo
 62
256
370
-1
  6
DOT
 10
-1315.0
 20
12073.0
 30
0.0
 11
-1320.0
 21
12092.0
 31
0.0
  0
LINE
  5
27F
100
AcDbEntity
100
AcDbLine
  8
vantilo
 62
256
370
-1
  6
DOT
 10
-1304.0
 20
12073.0
 30
0.0
 11
-1300.0
 21
12092.0
 31
0.0
  0
ARC
  5
280
100
AcDbEntity
  8
vantilo
 62
256
370
-1
  6
DOT
100
AcDbCircle
 10
-1310.0
 20
12057.0
 30
0.0
 40
37.0
100
AcDbArc
 50
74.0
 51
105.0
  0
LINE
  5
281
100
AcDbEntity
100
AcDbLine
  8
vantilo
 62
256
370
-1
  6
DOT
 10
-1315.0
 20
12073.0
 30
0.0
 11
-1320.0
 21
12092.0
 31
0.0
  0
LINE
  5
282
100
AcDbEntity
100
AcDbLine
  8
vantilo
 62
256
370
-1
  6
DOT
 10
-1304.0
 20
12073.0
 30
0.0
 11
-1300.0
 21
12092.0
 31
0.0
  0
ARC
  5
283
100
AcDbEntity
  8
vantilo
 62
256
370
-1
  6
DOT
100
AcDbCircle
 10
-1310.0
 20
12057.0
 30
0.0
 40
37.0
100
AcDbArc
 50
74.0
 51
105.0
  0
LINE
  5
284
100
AcDbEntity
100
AcDbLine
  8
vantilo
 62
256
370
-1
  6
DOT
 10
-1315.0
 20
12073.0
 30
0.0
 11
-1320.0
 21
12092.0
 31
0.0
  0
LINE
  5
285
100
AcDbEntity
100
AcDbLine
  8
vantilo
 62
256
370
-1
  6
DOT
 10
-1304.0
 20
12073.0
 30
0.0
 11
-1300.0
 21
12092.0
 31
0.0
  0
ARC
  5
286
100
AcDbEntity
  8
vantilo
 62
256
370
-1
  6
DOT
100
AcDbCircle
 10
-1310.0
 20
12057.0
 30
0.0
 40
37.0
100
AcDbArc
 50
74.0
 51
105.0
  0
LINE
  5
287
100
AcDbEntity
100
AcDbLine
  8
vantilo
 62
256
370
-1
  6
DOT
 10
-1315.0
 20
12073.0
 30
0.0
 11
-1320.0
 21
12092.0
 31
0.0
  0
LINE
  5
288
100
AcDbEntity
100
AcDbLine
  8
vantilo
 62
256
370
-1
  6
DOT
 10
-1304.0
 20
12073.0
 30
0.0
 11
-1300.0
 21
12092.0
 31
0.0
  0
ARC
  5
289
100
AcDbEntity
  8
vantilo
 62
256
370
-1
  6
DOT
100
AcDbCircle
 10
-1310.0
 20
12057.0
 30
0.0
 40
37.0
100
AcDbArc
 50
74.0
 51
105.0
  0
LINE
  5
28A
100
AcDbEntity
100
AcDbLine
  8
vantilo
 62
256
370
-1
  6
DOT
 10
-1315.0
 20
12073.0
 30
0.0
 11
-1320.0
 21
12092.0
 31
0.0
  0
LINE
  5
28B
100
AcDbEntity
100
AcDbLine
  8
vantilo
 62
256
370
-1
  6
DOT
 10
-1304.0
 20
12073.0
 30
0.0
 11
-1300.0
 21
12092.0
 31
0.0
  0
ARC
  5
28C
100
AcDbEntity
  8
vantilo
 62
256
370
-1
  6
DOT
100
AcDbCircle
 10
-1310.0
 20
12057.0
 30
0.0
 40
37.0
100
AcDbArc
 50
74.0
 51
105.0
  0
LINE
  5
28D
100
AcDbEntity
100
AcDbLine
  8
vantilo
 62
256
370
-1
  6
DOT
 10
-1315.0
 20
12073.0
 30
0.0
 11
-1320.0
 21
12092.0
 31
0.0
  0
LINE
  5
28E
100
AcDbEntity
100
AcDbLine
  8
vantilo
 62
256
370
-1
  6
DOT
 10
-1304.0
 20
12073.0
 30
0.0
 11
-1300.0
 21
12092.0
 31
0.0
  0
ARC
  5
28F
100
AcDbEntity
  8
vantilo
 62
256
370
-1
  6
DOT
100
AcDbCircle
 10
-1310.0
 20
12057.0
 30
0.0
 40
37.0
100
AcDbArc
 50
74.0
 51
105.0
  0
LINE
  5
290
100
AcDbEntity
100
AcDbLine
  8
vantilo
 62
256
370
-1
  6
DOT
 10
-1315.0
 20
12073.0
 30
0.0
 11
-1320.0
 21
12092.0
 31
0.0
  0
LINE
  5
291
100
AcDbEntity
100
AcDbLine
  8
vantilo
 62
256
370
-1
  6
DOT
 10
-1304.0
 20
12073.0
 30
0.0
 11
-1300.0
 21
12092.0
 31
0.0
  0
ARC
  5
292
100
AcDbEntity
  8
vantilo
 62
256
370
-1
  6
DOT
100
AcDbCircle
 10
-1310.0
 20
12057.0
 30
0.0
 40
37.0
100
AcDbArc
 50
74.0
 51
105.0
  0
LINE
  5
293
100
AcDbEntity
100
AcDbLine
  8
vantilo
 62
256
370
-1
  6
DOT
 10
-1315.0
 20
12073.0
 30
0.0
 11
-1320.0
 21
12092.0
 31
0.0
  0
LINE
  5
294
100
AcDbEntity
100
AcDbLine
  8
vantilo
 62
256
370
-1
  6
DOT
 10
-1304.0
 20
12073.0
 30
0.0
 11
-1300.0
 21
12092.0
 31
0.0
  0
ARC
  5
295
100
AcDbEntity
  8
vantilo
 62
256
370
-1
  6
DOT
100
AcDbCircle
 10
-1310.0
 20
12057.0
 30
0.0
 40
37.0
100
AcDbArc
 50
74.0
 51
105.0
  0
LINE
  5
296
100
AcDbEntity
100
AcDbLine
  8
vantilo
 62
256
370
-1
  6
DOT
 10
-1315.0
 20
12073.0
 30
0.0
 11
-1320.0
 21
12092.0
 31
0.0
  0
LINE
  5
297
100
AcDbEntity
100
AcDbLine
  8
vantilo
 62
256
370
-1
  6
DOT
 10
-1304.0
 20
12073.0
 30
0.0
 11
-1300.0
 21
12092.0
 31
0.0
  0
ARC
  5
298
100
AcDbEntity
  8
vantilo
 62
256
370
-1
  6
DOT
100
AcDbCircle
 10
-1310.0
 20
12057.0
 30
0.0
 40
37.0
100
AcDbArc
 50
74.0
 51
105.0
  0
LINE
  5
299
100
AcDbEntity
100
AcDbLine
  8
vantilo
 62
256
370
-1
  6
DOT
 10
-1315.0
 20
12073.0
 30
0.0
 11
-1320.0
 21
12092.0
 31
0.0
  0
LINE
  5
29A
100
AcDbEntity
100
AcDbLine
  8
vantilo
 62
256
370
-1
  6
DOT
 10
-1304.0
 20
12073.0
 30
0.0
 11
-1300.0
 21
12092.0
 31
0.0
  0
ARC
  5
29B
100
AcDbEntity
  8
vantilo
 62
256
370
-1
  6
DOT
100
AcDbCircle
 10
-1310.0
 20
12057.0
 30
0.0
 40
37.0
100
AcDbArc
 50
74.0
 51
105.0
  0
LINE
  5
29C
100
AcDbEntity
100
AcDbLine
  8
vantilo
 62
256
370
-1
  6
DOT
 10
-1315.0
 20
12073.0
 30
0.0
 11
-1320.0
 21
12092.0
 31
0.0
  0
LINE
  5
29D
100
AcDbEntity
100
AcDbLine
  8
vantilo
 62
256
370
-1
  6
DOT
 10
-1304.0
 20
12073.0
 30
0.0
 11
-1300.0
 21
12092.0
 31
0.0
  0
ARC
  5
29E
100
AcDbEntity
  8
vantilo
 62
256
370
-1
  6
DOT
100
AcDbCircle
 10
-1310.0
 20
12057.0
 30
0.0
 40
37.0
100
AcDbArc
 50
74.0
 51
105.0
  0
LINE
  5
29F
100
AcDbEntity
100
AcDbLine
  8
vantilo
 62
256
370
-1
  6
DOT
 10
-1315.0
 20
12073.0
 30
0.0
 11
-1320.0
 21
12092.0
 31
0.0
  0
LINE
  5
2A0
100
AcDbEntity
100
AcDbLine
  8
vantilo
 62
256
370
-1
  6
DOT
 10
-1304.0
 20
12073.0
 30
0.0
 11
-1300.0
 21
12092.0
 31
0.0
  0
ARC
  5
2A1
100
AcDbEntity
  8
vantilo
 62
256
370
-1
  6
DOT
100
AcDbCircle
 10
-1310.0
 20
12057.0
 30
0.0
 40
37.0
100
AcDbArc
 50
74.0
 51
105.0
  0
LINE
  5
2A2
100
AcDbEntity
100
AcDbLine
  8
vantilo
 62
256
370
-1
  6
DOT
 10
-1315.0
 20
12073.0
 30
0.0
 11
-1320.0
 21
12092.0
 31
0.0
  0
LINE
  5
2A3
100
AcDbEntity
100
AcDbLine
  8
vantilo
 62
256
370
-1
  6
DOT
 10
-1304.0
 20
12073.0
 30
0.0
 11
-1300.0
 21
12092.0
 31
0.0
  0
ARC
  5
2A4
100
AcDbEntity
  8
vantilo
 62
256
370
-1
  6
DOT
100
AcDbCircle
 10
-1310.0
 20
12057.0
 30
0.0
 40
37.0
100
AcDbArc
 50
74.0
 51
105.0
  0
LINE
  5
2A5
100
AcDbEntity
100
AcDbLine
  8
vantilo
 62
256
370
-1
  6
DOT
 10
-1315.0
 20
12073.0
 30
0.0
 11
-1320.0
 21
12092.0
 31
0.0
  0
LINE
  5
2A6
100
AcDbEntity
100
AcDbLine
  8
vantilo
 62
256
370
-1
  6
DOT
 10
-1304.0
 20
12073.0
 30
0.0
 11
-1300.0
 21
12092.0
 31
0.0
  0
ARC
  5
2A7
100
AcDbEntity
  8
vantilo
 62
256
370
-1
  6
DOT
100
AcDbCircle
 10
-1310.0
 20
12057.0
 30
0.0
 40
37.0
100
AcDbArc
 50
74.0
 51
105.0
  0
LINE
  5
2A8
100
AcDbEntity
100
AcDbLine
  8
vantilo
 62
256
370
-1
  6
DOT
 10
-1326.0
 20
12062.0
 30
0.0
 11
-1344.0
 21
12071.0
 31
0.0
  0
LINE
  5
2A9
100
AcDbEntity
100
AcDbLine
  8
vantilo
 62
256
370
-1
  6
DOT
 10
-1318.0
 20
12071.0
 30
0.0
 11
-1331.0
 21
12087.0
 31
0.0
  0
ARC
  5
2AA
100
AcDbEntity
  8
vantilo
 62
256
370
-1
  6
DOT
100
AcDbCircle
 10
-1310.0
 20
12057.0
 30
0.0
 40
37.0
100
AcDbArc
 50
125.0000000000000142
 51
157.0
  0
LINE
  5
2AB
100
AcDbEntity
100
AcDbLine
  8
vantilo
 62
256
370
-1
  6
DOT
 10
-1324.0
 20
12047.0
 30
0.0
 11
-1342.0
 21
12039.0
 31
0.0
  0
LINE
  5
2AC
100
AcDbEntity
100
AcDbLine
  8
vantilo
 62
256
370
-1
  6
DOT
 10
-1326.0
 20
12059.0
 30
0.0
 11
-1347.0
 21
12058.0
 31
0.0
  0
ARC
  5
2AD
100
AcDbEntity
  8
vantilo
 62
256
370
-1
  6
DOT
100
AcDbCircle
 10
-1310.0
 20
12057.0
 30
0.0
 40
37.0
100
AcDbArc
 50
177.0
 51
208.0
  0
LINE
  5
2AE
100
AcDbEntity
100
AcDbLine
  8
vantilo
 62
256
370
-1
  6
DOT
 10
-1311.0
 20
12040.0
 30
0.0
 11
-1316.0
 21
12020.0
 31
0.0
  0
LINE
  5
2AF
100
AcDbEntity
100
AcDbLine
  8
vantilo
 62
256
370
-1
  6
DOT
 10
-1322.0
 20
12045.0
 30
0.0
 11
-1334.0
 21
12029.0
 31
0.0
  0
ARC
  5
2B0
100
AcDbEntity
  8
vantilo
 62
256
370
-1
  6
DOT
100
AcDbCircle
 10
-1310.0
 20
12057.0
 30
0.0
 40
37.0
100
AcDbArc
 50
228.0
 51
260.0
  0
LINE
  5
2B1
100
AcDbEntity
100
AcDbLine
  8
vantilo
 62
256
370
-1
  6
DOT
 10
-1297.0
 20
12045.0
 30
0.0
 11
-1285.0
 21
12029.0
 31
0.0
  0
LINE
  5
2B2
100
AcDbEntity
100
AcDbLine
  8
vantilo
 62
256
370
-1
  6
DOT
 10
-1308.0
 20
12040.0
 30
0.0
 11
-1303.0
 21
12020.0
 31
0.0
  0
ARC
  5
2B3
100
AcDbEntity
  8
vantilo
 62
256
370
-1
  6
DOT
100
AcDbCircle
 10
-1310.0
 20
12057.0
 30
0.0
 40
37.0
100
AcDbArc
 50
280.0
 51
311.0
  0
LINE
  5
2B4
100
AcDbEntity
100
AcDbLine
  8
vantilo
 62
256
370
-1
  6
DOT
 10
-1293.0
 20
12059.0
 30
0.0
 11
-1273.0
 21
12059.0
 31
0.0
  0
LINE
  5
2B5
100
AcDbEntity
100
AcDbLine
  8
vantilo
 62
256
370
-1
  6
DOT
 10
-1295.0
 20
12047.0
 30
0.0
 11
-1277.0
 21
12039.0
 31
0.0
  0
ARC
  5
2B6
100
AcDbEntity
  8
vantilo
 62
256
370
-1
  6
DOT
100
AcDbCircle
 10
-1310.0
 20
12057.0
 30
0.0
 40
37.0
100
AcDbArc
 50
331.0
 51
3.0
  0
LINE
  5
2B7
100
AcDbEntity
100
AcDbLine
  8
vantilo
 62
256
370
-1
  6
DOT
 10
-1301.0
 20
12071.0
 30
0.0
 11
-1288.0
 21
12087.0
 31
0.0
  0
LINE
  5
2B8
100
AcDbEntity
100
AcDbLine
  8
vantilo
 62
256
370
-1
  6
DOT
 10
-1294.0
 20
12062.0
 30
0.0
 11
-1276.0
 21
12071.0
 31
0.0
  0
ARC
  5
2B9
100
AcDbEntity
  8
vantilo
 62
256
370
-1
  6
DOT
100
AcDbCircle
 10
-1310.0
 20
12057.0
 30
0.0
 40
37.0
100
AcDbArc
 50
23.0
 51
54.0
  0
LINE
  5
2BA
100
AcDbEntity
100
AcDbLine
  8
optic
 62
256
370
-1
  6
DOT
 10
-1794.0
 20
11352.0
 30
0.0
 11
-1704.0
 21
11352.0
 31
0.0
  0
LINE
  5
2BB
100
AcDbEntity
100
AcDbLine
  8
noname
 62
256
370
-1
  6
ByLayer
 10
-1794.0
 20
11352.0
 30
0.0
 11
-1704.0
 21
11352.0
 31
0.0
  0
LINE
  5
2BC
100
AcDbEntity
100
AcDbLine
  8
vantilo
 62
256
370
-1
  6
DOT
 10
-1480.0
 20
11692.0
 30
0.0
 11
-1400.0
 21
11692.0
 31
0.0
  0
LINE
  5
2BD
100
AcDbEntity
100
AcDbLine
  8
vantilo
 62
256
370
-1
  6
DOT
 10
-1400.0
 20
11692.0
 30
0.0
 11
-1400.0
 21
11667.0
 31
0.0
  0
LINE
  5
2BE
100
AcDbEntity
100
AcDbLine
  8
vantilo
 62
256
370
-1
  6
DOT
 10
-1400.0
 20
11667.0
 30
0.0
 11
-1480.0
 21
11667.0
 31
0.0
  0
LINE
  5
2BF
100
AcDbEntity
100
AcDbLine
  8
vantilo
 62
256
370
-1
  6
DOT
 10
-1480.0
 20
11667.0
 30
0.0
 11
-1480.0
 21
11692.0
 31
0.0
  0
LINE
  5
2C0
100
AcDbEntity
100
AcDbLine
  8
vantilo
 62
256
370
-1
  6
DOT
 10
-1478.0
 20
11692.0
 30
0.0
 11
-1478.0
 21
11667.0
 31
0.0
  0
LINE
  5
2C1
100
AcDbEntity
100
AcDbLine
  8
vantilo
 62
256
370
-1
  6
DOT
 10
-1474.0
 20
11692.0
 30
0.0
 11
-1474.0
 21
11667.0
 31
0.0
  0
LINE
  5
2C2
100
AcDbEntity
100
AcDbLine
  8
vantilo
 62
256
370
-1
  6
DOT
 10
-1406.0
 20
11692.0
 30
0.0
 11
-1406.0
 21
11667.0
 31
0.0
  0
LINE
  5
2C3
100
AcDbEntity
100
AcDbLine
  8
vantilo
 62
256
370
-1
  6
DOT
 10
-1402.0
 20
11692.0
 30
0.0
 11
-1402.0
 21
11667.0
 31
0.0
  0
LINE
  5
2C4
100
AcDbEntity
100
AcDbLine
  8
vantilo
 62
256
370
-1
  6
DOT
 10
-1479.0
 20
11692.0
 30
0.0
 11
-1479.0
 21
11667.0
 31
0.0
  0
LINE
  5
2C5
100
AcDbEntity
100
AcDbLine
  8
vantilo
 62
256
370
-1
  6
DOT
 10
-1401.0
 20
11692.0
 30
0.0
 11
-1401.0
 21
11667.0
 31
0.0
  0
LINE
  5
2C6
100
AcDbEntity
100
AcDbLine
  8
vantilo
 62
256
370
-1
  6
DOT
 10
-1457.0
 20
11669.0
 30
0.0
 11
-1423.0
 21
11669.0
 31
0.0
  0
LINE
  5
2C7
100
AcDbEntity
100
AcDbLine
  8
vantilo
 62
256
370
-1
  6
DOT
 10
-1457.0
 20
11687.0
 30
0.0
 11
-1423.0
 21
11687.0
 31
0.0
  0
LINE
  5
2C8
100
AcDbEntity
100
AcDbLine
  8
vantilo
 62
256
370
-1
  6
DOT
 10
-1457.0
 20
11687.0
 30
0.0
 11
-1457.0
 21
11687.0
 31
0.0
  0
LINE
  5
2C9
100
AcDbEntity
100
AcDbLine
  8
vantilo
 62
256
370
-1
  6
DOT
 10
-1457.0
 20
11687.0
 30
0.0
 11
-1457.0
 21
11669.0
 31
0.0
  0
LINE
  5
2CA
100
AcDbEntity
100
AcDbLine
  8
vantilo
 62
256
370
-1
  6
DOT
 10
-1423.0
 20
11687.0
 30
0.0
 11
-1423.0
 21
11669.0
 31
0.0
  0
LINE
  5
2CB
100
AcDbEntity
100
AcDbLine
  8
vantilo
 62
256
370
-1
  6
DOT
 10
-1350.0
 20
11692.0
 30
0.0
 11
-1270.0
 21
11692.0
 31
0.0
  0
LINE
  5
2CC
100
AcDbEntity
100
AcDbLine
  8
vantilo
 62
256
370
-1
  6
DOT
 10
-1270.0
 20
11692.0
 30
0.0
 11
-1270.0
 21
11667.0
 31
0.0
  0
LINE
  5
2CD
100
AcDbEntity
100
AcDbLine
  8
vantilo
 62
256
370
-1
  6
DOT
 10
-1270.0
 20
11667.0
 30
0.0
 11
-1350.0
 21
11667.0
 31
0.0
  0
LINE
  5
2CE
100
AcDbEntity
100
AcDbLine
  8
vantilo
 62
256
370
-1
  6
DOT
 10
-1350.0
 20
11667.0
 30
0.0
 11
-1350.0
 21
11692.0
 31
0.0
  0
LINE
  5
2CF
100
AcDbEntity
100
AcDbLine
  8
vantilo
 62
256
370
-1
  6
DOT
 10
-1348.0
 20
11692.0
 30
0.0
 11
-1348.0
 21
11667.0
 31
0.0
  0
LINE
  5
2D0
100
AcDbEntity
100
AcDbLine
  8
vantilo
 62
256
370
-1
  6
DOT
 10
-1344.0
 20
11692.0
 30
0.0
 11
-1344.0
 21
11667.0
 31
0.0
  0
LINE
  5
2D1
100
AcDbEntity
100
AcDbLine
  8
vantilo
 62
256
370
-1
  6
DOT
 10
-1276.0
 20
11692.0
 30
0.0
 11
-1276.0
 21
11667.0
 31
0.0
  0
LINE
  5
2D2
100
AcDbEntity
100
AcDbLine
  8
vantilo
 62
256
370
-1
  6
DOT
 10
-1272.0
 20
11692.0
 30
0.0
 11
-1272.0
 21
11667.0
 31
0.0
  0
LINE
  5
2D3
100
AcDbEntity
100
AcDbLine
  8
vantilo
 62
256
370
-1
  6
DOT
 10
-1349.0
 20
11692.0
 30
0.0
 11
-1349.0
 21
11667.0
 31
0.0
  0
LINE
  5
2D4
100
AcDbEntity
100
AcDbLine
  8
vantilo
 62
256
370
-1
  6
DOT
 10
-1271.0
 20
11692.0
 30
0.0
 11
-1271.0
 21
11667.0
 31
0.0
  0
LINE
  5
2D5
100
AcDbEntity
100
AcDbLine
  8
vantilo
 62
256
370
-1
  6
DOT
 10
-1327.0
 20
11669.0
 30
0.0
 11
-1293.0
 21
11669.0
 31
0.0
  0
LINE
  5
2D6
100
AcDbEntity
100
AcDbLine
  8
vantilo
 62
256
370
-1
  6
DOT
 10
-1327.0
 20
11687.0
 30
0.0
 11
-1293.0
 21
11687.0
 31
0.0
  0
LINE
  5
2D7
100
AcDbEntity
100
AcDbLine
  8
vantilo
 62
256
370
-1
  6
DOT
 10
-1327.0
 20
11687.0
 30
0.0
 11
-1327.0
 21
11687.0
 31
0.0
  0
LINE
  5
2D8
100
AcDbEntity
100
AcDbLine
  8
vantilo
 62
256
370
-1
  6
DOT
 10
-1327.0
 20
11687.0
 30
0.0
 11
-1327.0
 21
11669.0
 31
0.0
  0
LINE
  5
2D9
100
AcDbEntity
100
AcDbLine
  8
vantilo
 62
256
370
-1
  6
DOT
 10
-1293.0
 20
11687.0
 30
0.0
 11
-1293.0
 21
11669.0
 31
0.0
  0
LINE
  5
2DA
100
AcDbEntity
100
AcDbLine
  8
construction
 62
256
370
-1
  6
ByLayer
 10
400.0
 20
10655.0
 30
0.0
 11
400.0
 21
10657.0
 31
0.0
  0
LINE
  5
2DB
100
AcDbEntity
100
AcDbLine
  8
noname
 62
256
370
-1
  6
ByLayer
 10
565.9999999999998863
 20
10922.0
 30
0.0
 11
-43.0000000000001776
 21
10922.0
 31
0.0
  0
LINE
  5
2DC
100
AcDbEntity
100
AcDbLine
  8
cache
 62
256
370
-1
  6
ByLayer
 10
555.9999999999998863
 20
10932.0
 30
0.0
 11
565.9999999999998863
 21
10922.0
 31
0.0
  0
LINE
  5
2DD
100
AcDbEntity
100
AcDbLine
  8
cache
 62
256
370
-1
  6
ByLayer
 10
-33.0000000000000853
 20
10932.0
 30
0.0
 11
-43.0000000000001776
 21
10922.0
 31
0.0
  0
LINE
  5
2DE
100
AcDbEntity
100
AcDbLine
  8
cache
 62
256
370
-1
  6
ByLayer
 10
555.9999999999998863
 20
10932.0
 30
0.0
 11
-33.0000000000000853
 21
10932.0
 31
0.0
  0
LINE
  5
2DF
100
AcDbEntity
100
AcDbLine
  8
axe
 62
256
370
-1
  6
ByLayer
 10
-42.0000000000000924
 20
11125.0
 30
0.0
 11
565.9999999999997726
 21
11125.0
 31
0.0
  0
LINE
  5
2E0
100
AcDbEntity
100
AcDbLine
  8
axe
 62
256
370
-1
  6
ByLayer
 10
565.9999999999997726
 20
11125.0
 30
0.0
 11
565.9999999999997726
 21
11125.0
 31
0.0
  0
LINE
  5
2E1
100
AcDbEntity
100
AcDbLine
  8
axe
 62
256
370
-1
  6
ByLayer
 10
-42.0000000000000924
 20
11125.0
 30
0.0
 11
-186.0000000000003979
 21
11125.0
 31
0.0
  0
LINE
  5
2E2
100
AcDbEntity
100
AcDbLine
  8
axe
 62
256
370
-1
  6
ByLayer
 10
52.0000000000000426
 20
11272.0
 30
0.0
 11
51.9999999999997442
 21
11395.0
 31
0.0
  0
LINE
  5
2E3
100
AcDbEntity
100
AcDbLine
  8
axe
 62
256
370
-1
  6
ByLayer
 10
52.0000000000001279
 20
11125.0
 30
0.0
 11
52.0000000000000426
 21
11272.0
 31
0.0
  0
LINE
  5
2E4
100
AcDbEntity
100
AcDbLine
  8
cache
 62
256
370
-1
  6
ByLayer
 10
415.9999999999998295
 20
11063.0
 30
0.0
 11
426.0000000000001137
 21
11063.0
 31
0.0
  0
LINE
  5
2E5
100
AcDbEntity
100
AcDbLine
  8
cache
 62
256
370
-1
  6
ByLayer
 10
415.9999999999998295
 20
11063.0
 30
0.0
 11
426.0000000000001137
 21
11063.0
 31
0.0
  0
LINE
  5
2E6
100
AcDbEntity
100
AcDbLine
  8
cache
 62
256
370
-1
  6
ByLayer
 10
415.9999999999998295
 20
11063.0
 30
0.0
 11
426.0000000000001137
 21
11063.0
 31
0.0
  0
LINE
  5
2E7
100
AcDbEntity
100
AcDbLine
  8
cache
 62
256
370
-1
  6
ByLayer
 10
415.9999999999998295
 20
11063.0
 30
0.0
 11
426.0000000000001137
 21
11063.0
 31
0.0
  0
LINE
  5
2E8
100
AcDbEntity
100
AcDbLine
  8
cache
 62
256
370
-1
  6
ByLayer
 10
415.9999999999998295
 20
11063.0
 30
0.0
 11
426.0000000000001137
 21
11063.0
 31
0.0
  0
LINE
  5
2E9
100
AcDbEntity
100
AcDbLine
  8
cache
 62
256
370
-1
  6
ByLayer
 10
426.0000000000001137
 20
11063.0
 30
0.0
 11
415.9999999999998295
 21
11063.0
 31
0.0
  0
LINE
  5
2EA
100
AcDbEntity
100
AcDbLine
  8
cache
 62
256
370
-1
  6
ByLayer
 10
415.9999999999998295
 20
11063.0
 30
0.0
 11
415.9999999999998295
 21
11063.0
 31
0.0
  0
LINE
  5
2EB
100
AcDbEntity
100
AcDbLine
  8
cache
 62
256
370
-1
  6
ByLayer
 10
416.0
 20
11188.0
 30
0.0
 11
425.9999999999998863
 21
11188.0
 31
0.0
  0
LINE
  5
2EC
100
AcDbEntity
100
AcDbLine
  8
axe
 62
256
370
-1
  6
ByLayer
 10
360.9999999999999432
 20
10884.0
 30
0.0
 11
361.0
 21
10982.0
 31
0.0
  0
LINE
  5
2ED
100
AcDbEntity
100
AcDbLine
  8
axe
 62
256
370
-1
  6
ByLayer
 10
490.9999999999998863
 20
10885.0
 30
0.0
 11
490.9999999999997726
 21
10979.0
 31
0.0
  0
LINE
  5
2EE
100
AcDbEntity
100
AcDbLine
  8
cache
 62
256
370
-1
  6
ByLayer
 10
320.9999999999998863
 20
10922.0
 30
0.0
 11
321.0
 21
10932.0
 31
0.0
  0
LINE
  5
2EF
100
AcDbEntity
100
AcDbLine
  8
cache
 62
256
370
-1
  6
ByLayer
 10
400.9999999999998863
 20
10922.0
 30
0.0
 11
401.0000000000000568
 21
10932.0
 31
0.0
  0
LINE
  5
2F0
100
AcDbEntity
100
AcDbLine
  8
cache
 62
256
370
-1
  6
ByLayer
 10
450.9999999999999432
 20
10922.0
 30
0.0
 11
450.9999999999998863
 21
10932.0
 31
0.0
  0
LINE
  5
2F1
100
AcDbEntity
100
AcDbLine
  8
cache
 62
256
370
-1
  6
ByLayer
 10
530.9999999999998863
 20
10922.0
 30
0.0
 11
530.9999999999998863
 21
10932.0
 31
0.0
  0
LINE
  5
2F2
100
AcDbEntity
100
AcDbLine
  8
axe
 62
256
370
-1
  6
ByLayer
 10
324.9999999999998295
 20
10909.0
 30
0.0
 11
324.9999999999997726
 21
10948.0
 31
0.0
  0
LINE
  5
2F3
100
AcDbEntity
100
AcDbLine
  8
axe
 62
256
370
-1
  6
ByLayer
 10
396.9999999999999432
 20
10909.0
 30
0.0
 11
397.0
 21
10947.0
 31
0.0
  0
LINE
  5
2F4
100
AcDbEntity
100
AcDbLine
  8
axe
 62
256
370
-1
  6
ByLayer
 10
455.0
 20
10908.0
 30
0.0
 11
454.9999999999998295
 21
10946.0
 31
0.0
  0
LINE
  5
2F5
100
AcDbEntity
100
AcDbLine
  8
axe
 62
256
370
-1
  6
ByLayer
 10
526.9999999999998863
 20
10905.0
 30
0.0
 11
527.0
 21
10949.0
 31
0.0
  0
LINE
  5
2F6
100
AcDbEntity
100
AcDbLine
  8
cache
 62
256
370
-1
  6
ByLayer
 10
323.0000000000000568
 20
10922.0
 30
0.0
 11
323.0
 21
10932.0
 31
0.0
  0
LINE
  5
2F7
100
AcDbEntity
100
AcDbLine
  8
cache
 62
256
370
-1
  6
ByLayer
 10
327.0000000000000568
 20
10922.0
 30
0.0
 11
327.0000000000000568
 21
10932.0
 31
0.0
  0
LINE
  5
2F8
100
AcDbEntity
100
AcDbLine
  8
cache
 62
256
370
-1
  6
ByLayer
 10
394.9999999999997726
 20
10922.0
 30
0.0
 11
394.9999999999998863
 21
10932.0
 31
0.0
  0
LINE
  5
2F9
100
AcDbEntity
100
AcDbLine
  8
cache
 62
256
370
-1
  6
ByLayer
 10
399.0000000000000568
 20
10922.0
 30
0.0
 11
398.9999999999999432
 21
10932.0
 31
0.0
  0
LINE
  5
2FA
100
AcDbEntity
100
AcDbLine
  8
cache
 62
256
370
-1
  6
ByLayer
 10
453.0
 20
10922.0
 30
0.0
 11
452.9999999999998863
 21
10932.0
 31
0.0
  0
LINE
  5
2FB
100
AcDbEntity
100
AcDbLine
  8
cache
 62
256
370
-1
  6
ByLayer
 10
456.9999999999998295
 20
10922.0
 30
0.0
 11
456.9999999999997726
 21
10932.0
 31
0.0
  0
LINE
  5
2FC
100
AcDbEntity
100
AcDbLine
  8
cache
 62
256
370
-1
  6
ByLayer
 10
525.0
 20
10922.0
 30
0.0
 11
525.0
 21
10932.0
 31
0.0
  0
LINE
  5
2FD
100
AcDbEntity
100
AcDbLine
  8
cache
 62
256
370
-1
  6
ByLayer
 10
528.9999999999997726
 20
10922.0
 30
0.0
 11
529.0
 21
10932.0
 31
0.0
  0
LINE
  5
2FE
100
AcDbEntity
100
AcDbLine
  8
cache
 62
256
370
-1
  6
ByLayer
 10
7.9999999999999076
 20
10922.0
 30
0.0
 11
7.9999999999998366
 21
10932.0
 31
0.0
  0
LINE
  5
2FF
100
AcDbEntity
100
AcDbLine
  8
cache
 62
256
370
-1
  6
ByLayer
 10
19.9999999999998508
 20
10922.0
 30
0.0
 11
19.9999999999998934
 21
10932.0
 31
0.0
  0
LINE
  5
300
100
AcDbEntity
100
AcDbLine
  8
cache
 62
256
370
-1
  6
ByLayer
 10
45.999999999999801
 20
10932.0
 30
0.0
 11
45.9999999999999005
 21
10922.0
 31
0.0
  0
LINE
  5
301
100
AcDbEntity
100
AcDbLine
  8
cache
 62
256
370
-1
  6
ByLayer
 10
73.9999999999999574
 20
10922.0
 30
0.0
 11
74.0000000000000853
 21
10932.0
 31
0.0
  0
LINE
  5
302
100
AcDbEntity
100
AcDbLine
  8
cache
 62
256
370
-1
  6
ByLayer
 10
-20.0000000000000497
 20
10922.0
 30
0.0
 11
-20.0000000000002487
 21
10932.0
 31
0.0
  0
LINE
  5
303
100
AcDbEntity
100
AcDbLine
  8
cache
 62
256
370
-1
  6
ByLayer
 10
175.0000000000000284
 20
10922.0
 30
0.0
 11
175.0
 21
10932.0
 31
0.0
  0
LINE
  5
304
100
AcDbEntity
100
AcDbLine
  8
cache
 62
256
370
-1
  6
ByLayer
 10
276.0
 20
10972.0
 30
0.0
 11
276.0000000000000568
 21
10932.0
 31
0.0
  0
LINE
  5
305
100
AcDbEntity
100
AcDbLine
  8
cache
 62
256
370
-1
  6
ByLayer
 10
276.0
 20
10972.0
 30
0.0
 11
245.9999999999998295
 21
10972.0
 31
0.0
  0
LINE
  5
306
100
AcDbEntity
100
AcDbLine
  8
cache
 62
256
370
-1
  6
ByLayer
 10
245.9999999999998295
 20
10972.0
 30
0.0
 11
321.0
 21
10972.0
 31
0.0
  0
LINE
  5
307
100
AcDbEntity
100
AcDbLine
  8
cache
 62
256
370
-1
  6
ByLayer
 10
285.9999999999997726
 20
10982.0
 30
0.0
 11
245.9999999999998295
 21
10982.0
 31
0.0
  0
LINE
  5
308
100
AcDbEntity
100
AcDbLine
  8
cache
 62
256
370
-1
  6
ByLayer
 10
245.9999999999998295
 20
10982.0
 30
0.0
 11
320.9999999999997158
 21
10982.0
 31
0.0
  0
LINE
  5
309
100
AcDbEntity
100
AcDbLine
  8
cache
 62
256
370
-1
  6
ByLayer
 10
320.9999999999997158
 20
10982.0
 30
0.0
 11
321.0
 21
10972.0
 31
0.0
  0
LINE
  5
30A
100
AcDbEntity
100
AcDbLine
  8
cache
 62
256
370
-1
  6
ByLayer
 10
245.9999999999998295
 20
10972.0
 30
0.0
 11
245.9999999999998295
 21
10982.0
 31
0.0
  0
LINE
  5
30B
100
AcDbEntity
100
AcDbLine
  8
cache
 62
256
370
-1
  6
ByLayer
 10
286.0000000000000568
 20
10972.0
 30
0.0
 11
286.0
 21
10932.0
 31
0.0
  0
LINE
  5
30C
100
AcDbEntity
100
AcDbLine
  8
noname
 62
256
370
-1
  6
ByLayer
 10
276.0
 20
11232.0
 30
0.0
 11
355.9999999999997158
 21
11232.0
 31
0.0
  0
LINE
  5
30D
100
AcDbEntity
100
AcDbLine
  8
noname
 62
256
370
-1
  6
ByLayer
 10
355.9999999999997158
 20
11232.0
 30
0.0
 11
355.9999999999998863
 21
11052.0
 31
0.0
  0
LINE
  5
30E
100
AcDbEntity
100
AcDbLine
  8
noname
 62
256
370
-1
  6
ByLayer
 10
355.9999999999998863
 20
11052.0
 30
0.0
 11
275.9999999999997158
 21
11052.0
 31
0.0
  0
LINE
  5
30F
100
AcDbEntity
100
AcDbLine
  8
noname
 62
256
370
-1
  6
ByLayer
 10
275.9999999999997158
 20
11052.0
 30
0.0
 11
276.0
 21
11232.0
 31
0.0
  0
LINE
  5
310
100
AcDbEntity
100
AcDbLine
  8
noname
 62
256
370
-1
  6
ByLayer
 10
455.9999999999996589
 20
11232.0
 30
0.0
 11
535.9999999999998863
 21
11232.0
 31
0.0
  0
LINE
  5
311
100
AcDbEntity
100
AcDbLine
  8
noname
 62
256
370
-1
  6
ByLayer
 10
535.9999999999998863
 20
11232.0
 30
0.0
 11
535.9999999999997726
 21
11052.0
 31
0.0
  0
LINE
  5
312
100
AcDbEntity
100
AcDbLine
  8
noname
 62
256
370
-1
  6
ByLayer
 10
535.9999999999997726
 20
11052.0
 30
0.0
 11
456.0000000000000568
 21
11052.0
 31
0.0
  0
LINE
  5
313
100
AcDbEntity
100
AcDbLine
  8
noname
 62
256
370
-1
  6
ByLayer
 10
456.0000000000000568
 20
11052.0
 30
0.0
 11
455.9999999999996589
 21
11232.0
 31
0.0
  0
DIMENSION
  5
314
100
AcDbEntity
  8
cote
 62
256
370
-1
  6
ByLayer
100
AcDbDimension
 10
232.9682076535224553
 20
11052.0
 30
0.0
 11
231.9682076535225974
 21
11142.0
 31
0.0
 70
1
 71
5
 72
0
 41
1.0
 42
0.0
  1

  3
Standard
100
AcDbAlignedDimension
 13
276.0
 23
11232.0
 33
0.0
 14
275.9999999999997158
 24
11052.0
 34
0.0
  0
DIMENSION
  5
315
100
AcDbEntity
  8
cote
 62
256
370
-1
  6
ByLayer
100
AcDbDimension
 10
355.9999999999998863
 20
11019.120519990719913
 30
0.0
 11
315.9999999999997726
 21
11020.120519990719913
 31
0.0
 70
0
 71
5
 72
0
 41
1.0
 42
0.0
  1

  3
Standard
100
AcDbAlignedDimension
 13
275.9999999999997158
 23
11052.0
 33
0.0
 14
355.9999999999998863
 24
11052.0
 34
0.0
 50
0.0
100
AcDbRotatedDimension
  0
DIMENSION
  5
316
100
AcDbEntity
  8
cote
 62
256
370
-1
  6
ByLayer
100
AcDbDimension
 10
566.0
 20
11311.3646621359675919
 30
0.0
 11
551.0
 21
11312.3646621359675919
 31
0.0
 70
0
 71
5
 72
0
 41
1.0
 42
0.0
  1

  3
Standard
100
AcDbAlignedDimension
 13
535.9999999999998863
 23
11232.0
 33
0.0
 14
566.0
 24
11272.0
 34
0.0
 50
0.0
100
AcDbRotatedDimension
  0
DIMENSION
  5
317
100
AcDbEntity
  8
cote
 62
256
370
-1
  6
ByLayer
100
AcDbDimension
 10
355.9999999999997158
 20
11312.0539171881973743
 30
0.0
 11
405.9999999999996589
 21
11313.0539171881973743
 31
0.0
 70
0
 71
5
 72
0
 41
1.0
 42
0.0
  1

  3
Standard
100
AcDbAlignedDimension
 13
455.9999999999996589
 23
11232.0
 33
0.0
 14
355.9999999999997158
 24
11232.0
 34
0.0
 50
0.0
100
AcDbRotatedDimension
  0
DIMENSION
  5
318
100
AcDbEntity
  8
cote
 62
256
370
-1
  6
ByLayer
100
AcDbDimension
 10
53.0
 20
10612.0
 30
0.0
 11
73.7007277103851663
 21
10630.1309093059480801
 31
0.0
 70
4
 71
5
 72
0
 41
1.0
 42
0.0
  1

  3
Standard
100
AcDbRadialDimension
 15
95.6636522598675185
 25
10646.710413075172255
 35
0.0
 40
0.0
  0
DIMENSION
  5
319
100
AcDbEntity
  8
cote
 62
256
370
-1
  6
ByLayer
100
AcDbDimension
 10
326.9996365043054425
 20
9561.0381293935060967
 30
0.0
 11
324.9809353032469517
 21
9561.9998182521521812
 31
0.0
 70
3
 71
5
 72
0
 41
1.0
 42
0.0
  1

  3
Standard
100
AcDbDiametricDimension
 15
323.0003634956945575
 25
9560.9618706064939033
 35
0.0
 40
0.0
  0
DIMENSION
  5
31A
100
AcDbEntity
  8
cote
 62
256
370
-1
  6
ByLayer
100
AcDbDimension
 10
361.0
 20
9597.0
 30
0.0
 11
345.0245485540981463
 21
9609.074143907526377
 31
0.0
 70
4
 71
5
 72
0
 41
1.0
 42
0.0
  1

  3
Standard
100
AcDbRadialDimension
 15
327.9243717879737119
 25
9619.4945064044495666
 35
0.0
 40
0.0
  0
DIMENSION
  5
31B
100
AcDbEntity
  8
cote
 62
256
370
-1
  6
ByLayer
100
AcDbDimension
 10
527.0
 20
9512.9443494419720082
 30
0.0
 11
546.5
 21
9513.9443494419720082
 31
0.0
 70
0
 71
5
 72
0
 41
1.0
 42
0.0
  1

  3
Standard
100
AcDbAlignedDimension
 13
566.0
 23
9537.0
 33
0.0
 14
527.0
 24
9561.0
 34
0.0
 50
0.0
100
AcDbRotatedDimension
  0
DIMENSION
  5
31C
100
AcDbEntity
  8
cote
 62
256
370
-1
  6
ByLayer
100
AcDbDimension
 10
491.0
 20
9512.9212218809716433
 30
0.0
 11
509.0
 21
9513.9212218809716433
 31
0.0
 70
0
 71
5
 72
0
 41
1.0
 42
0.0
  1

  3
Standard
100
AcDbAlignedDimension
 13
527.0
 23
9561.0
 33
0.0
 14
491.0
 24
9597.0
 34
0.0
 50
0.0
100
AcDbRotatedDimension
  0
DIMENSION
  5
31D
100
AcDbEntity
  8
cote
 62
256
370
-1
  6
ByLayer
100
AcDbDimension
 10
361.0
 20
9512.9443494429233397
 30
0.0
 11
426.0
 21
9513.9443494429233397
 31
0.0
 70
0
 71
5
 72
0
 41
1.0
 42
0.0
  1

  3
Standard
100
AcDbAlignedDimension
 13
491.0
 23
9597.0
 33
0.0
 14
361.0
 24
9597.0
 34
0.0
 50
0.0
100
AcDbRotatedDimension
  0
DIMENSION
  5
31E
100
AcDbEntity
  8
cote
 62
256
370
-1
  6
ByLayer
100
AcDbDimension
 10
598.5160031136122143
 20
9597.0
 30
0.0
 11
597.5160031136122143
 21
9567.0
 31
0.0
 70
0
 71
5
 72
0
 41
1.0
 42
0.0
  1

  3
Standard
100
AcDbAlignedDimension
 13
566.0
 23
9537.0
 33
0.0
 14
491.0
 24
9597.0
 34
0.0
 50
90.0
100
AcDbRotatedDimension
  0
DIMENSION
  5
31F
100
AcDbEntity
  8
cote
 62
256
370
-1
  6
ByLayer
100
AcDbDimension
 10
20.0
 20
9616.486488706426826
 30
0.0
 11
14.0
 21
9617.486488706426826
 31
0.0
 70
0
 71
5
 72
0
 41
1.0
 42
0.0
  1

  3
Standard
100
AcDbAlignedDimension
 13
8.0
 23
9602.0
 33
0.0
 14
20.0
 24
9602.0
 34
0.0
 50
0.0
100
AcDbRotatedDimension
  0
DIMENSION
  5
320
100
AcDbEntity
  8
cote
 62
256
370
-1
  6
ByLayer
100
AcDbDimension
 10
74.0
 20
9616.0453654729990376
 30
0.0
 11
60.0
 21
9617.0453654729990376
 31
0.0
 70
0
 71
5
 72
0
 41
1.0
 42
0.0
  1

  3
Standard
100
AcDbAlignedDimension
 13
46.0
 23
9601.0
 33
0.0
 14
74.0
 24
9601.0
 34
0.0
 50
0.0
100
AcDbRotatedDimension
  0
DIMENSION
  5
321
100
AcDbEntity
  8
cote
 62
256
370
-1
  6
ByLayer
100
AcDbDimension
 10
86.9012769850993578
 20
9601.0
 30
0.0
 11
85.9012769850993578
 21
9592.0
 31
0.0
 70
0
 71
5
 72
0
 41
1.0
 42
0.0
  1

  3
Standard
100
AcDbAlignedDimension
 13
74.0
 23
9583.0
 33
0.0
 14
74.0
 24
9601.0
 34
0.0
 50
90.0
100
AcDbRotatedDimension
  0
DIMENSION
  5
322
100
AcDbEntity
  8
cote
 62
256
370
-1
  6
ByLayer
100
AcDbDimension
 10
31.7608728067368205
 20
9582.0
 30
0.0
 11
30.7608728067368205
 21
9592.0
 31
0.0
 70
0
 71
5
 72
0
 41
1.0
 42
0.0
  1

  3
Standard
100
AcDbAlignedDimension
 13
20.0
 23
9602.0
 33
0.0
 14
20.0
 24
9582.0
 34
0.0
 50
90.0
100
AcDbRotatedDimension
  0
DIMENSION
  5
323
100
AcDbEntity
  8
cote
 62
256
370
-1
  6
ByLayer
100
AcDbDimension
 10
7.9999999999999947
 20
9478.8560398772333428
 30
0.0
 11
-16.9999999999999964
 21
9479.8560398772333428
 31
0.0
 70
0
 71
5
 72
0
 41
1.0
 42
0.0
  1

  3
Standard
100
AcDbAlignedDimension
 13
-42.0
 23
9537.0
 33
0.0
 14
8.0
 24
9582.0
 34
0.0
 50
0.0
100
AcDbRotatedDimension
  0
DIMENSION
  5
324
100
AcDbEntity
  8
cote
 62
256
370
-1
  6
ByLayer
100
AcDbDimension
 10
45.9999999999999929
 20
9478.8560398772333428
 30
0.0
 11
27.0000000000000036
 21
9479.8560398772333428
 31
0.0
 70
0
 71
5
 72
0
 41
1.0
 42
0.0
  1

  3
Standard
100
AcDbAlignedDimension
 13
8.0
 23
9582.0
 33
0.0
 14
46.0
 24
9583.0
 34
0.0
 50
0.0
100
AcDbRotatedDimension
  0
DIMENSION
  5
325
100
AcDbEntity
  8
cote
 62
256
370
-1
  6
ByLayer
100
AcDbDimension
 10
-78.4846456913146824
 20
9582.0
 30
0.0
 11
-79.4846456913146824
 21
9559.5
 31
0.0
 70
0
 71
5
 72
0
 41
1.0
 42
0.0
  1

  3
Standard
100
AcDbAlignedDimension
 13
-42.0
 23
9537.0
 33
0.0
 14
8.0
 24
9582.0
 34
0.0
 50
90.0
100
AcDbRotatedDimension
  0
DIMENSION
  5
326
100
AcDbEntity
  8
cote
 62
256
370
-1
  6
ByLayer
100
AcDbDimension
 10
73.402906042236765
 20
9537.0
 30
0.0
 11
72.402906042236765
 21
9560.0
 31
0.0
 70
0
 71
5
 72
0
 41
1.0
 42
0.0
  1

  3
Standard
100
AcDbAlignedDimension
 13
46.0
 23
9583.0
 33
0.0
 14
-42.0
 24
9537.0
 34
0.0
 50
90.0
100
AcDbRotatedDimension
  0
DIMENSION
  5
327
100
AcDbEntity
  8
cote
 62
256
370
-1
  6
ByLayer
100
AcDbDimension
 10
175.0
 20
9704.2700121585294255
 30
0.0
 11
77.5
 21
9705.2700121585294255
 31
0.0
 70
0
 71
5
 72
0
 41
1.0
 42
0.0
  1

  3
Standard
100
AcDbAlignedDimension
 13
-20.0
 23
9715.0
 33
0.0
 14
175.0
 24
9715.0
 34
0.0
 50
0.0
100
AcDbRotatedDimension
  0
DIMENSION
  5
328
100
AcDbEntity
  8
cote
 62
256
370
-1
  6
ByLayer
100
AcDbDimension
 10
186.5951277395817272
 20
9715.0
 30
0.0
 11
185.5951277395817272
 21
9723.5
 31
0.0
 70
0
 71
5
 72
0
 41
1.0
 42
0.0
  1

  3
Standard
100
AcDbAlignedDimension
 13
175.0
 23
9732.0
 33
0.0
 14
175.0
 24
9715.0
 34
0.0
 50
90.0
100
AcDbRotatedDimension
  0
DIMENSION
  5
329
100
AcDbEntity
  8
cote
 62
256
370
-1
  6
ByLayer
100
AcDbDimension
 10
-19.9999999999999964
 20
9784.6073754302378802
 30
0.0
 11
-31.0
 21
9785.6073754302378802
 31
0.0
 70
0
 71
5
 72
0
 41
1.0
 42
0.0
  1

  3
Standard
100
AcDbAlignedDimension
 13
-42.0
 23
9752.0
 33
0.0
 14
-20.0
 24
9732.0
 34
0.0
 50
0.0
100
AcDbRotatedDimension
  0
DIMENSION
  5
32A
100
AcDbEntity
  8
cote
 62
256
370
-1
  6
ByLayer
100
AcDbDimension
 10
-77.7479698914923745
 20
9732.0
 30
0.0
 11
-78.7479698914923745
 21
9742.0
 31
0.0
 70
0
 71
5
 72
0
 41
1.0
 42
0.0
  1

  3
Standard
100
AcDbAlignedDimension
 13
-42.0
 23
9752.0
 33
0.0
 14
-20.0
 24
9732.0
 34
0.0
 50
90.0
100
AcDbRotatedDimension
  0
DIMENSION
  5
32B
100
AcDbEntity
  8
cote
 62
256
370
-1
  6
ByLayer
100
AcDbDimension
 10
556.0
 20
10373.8270165643098153
 30
0.0
 11
421.0
 21
10374.8270165643098153
 31
0.0
 70
0
 71
5
 72
0
 41
1.0
 42
0.0
  1

  3
Standard
100
AcDbAlignedDimension
 13
286.0
 23
10292.0
 33
0.0
 14
556.0
 24
10292.0
 34
0.0
 50
0.0
100
AcDbRotatedDimension
  0
DIMENSION
  5
32C
100
AcDbEntity
  8
cote
 62
256
370
-1
  6
ByLayer
100
AcDbDimension
 10
776.0
 20
10036.0
 30
0.0
 11
798.5
 21
10037.0
 31
0.0
 70
0
 71
5
 72
0
 41
1.0
 42
0.0
  1

  3
Standard
100
AcDbAlignedDimension
 13
821.0
 23
10036.0
 33
0.0
 14
776.0
 24
10036.0
 34
0.0
 50
0.0
100
AcDbRotatedDimension
  0
LINE
  5
32D
100
AcDbEntity
100
AcDbLine
  8
noname
 62
256
370
-1
  6
ByLayer
 10
-2043.0
 20
11902.0
 30
0.0
 11
-2651.0
 21
11902.0
 31
0.0
  0
LINE
  5
32E
100
AcDbEntity
100
AcDbLine
  8
noname
 62
256
370
-1
  6
ByLayer
 10
-2043.0
 20
12117.0
 30
0.0
 11
-2651.0
 21
12117.0
 31
0.0
  0
LINE
  5
32F
100
AcDbEntity
100
AcDbLine
  8
noname
 62
256
370
-1
  6
ByLayer
 10
-2043.0
 20
12117.0
 30
0.0
 11
-2043.0
 21
11902.0
 31
0.0
  0
LINE
  5
330
100
AcDbEntity
100
AcDbLine
  8
noname
 62
256
370
-1
  6
ByLayer
 10
-2043.0
 20
11902.0
 30
0.0
 11
-2043.0
 21
11902.0
 31
0.0
  0
LINE
  5
331
100
AcDbEntity
100
AcDbLine
  8
noname
 62
256
370
-1
  6
ByLayer
 10
-2043.0
 20
11902.0
 30
0.0
 11
-2651.0
 21
11902.0
 31
0.0
  0
LINE
  5
332
100
AcDbEntity
100
AcDbLine
  8
noname
 62
256
370
-1
  6
ByLayer
 10
-2651.0
 20
11902.0
 30
0.0
 11
-2651.0
 21
12117.0
 31
0.0
  0
LINE
  5
333
100
AcDbEntity
100
AcDbLine
  8
axe
 62
256
370
-1
  6
ByLayer
 10
-2043.0
 20
12012.0
 30
0.0
 11
-2650.0
 21
12012.0
 31
0.0
  0
LINE
  5
334
100
AcDbEntity
100
AcDbLine
  8
axe
 62
256
370
-1
  6
ByLayer
 10
-2650.0
 20
12012.0
 30
0.0
 11
-2763.0
 21
12012.0
 31
0.0
  0
LINE
  5
335
100
AcDbEntity
100
AcDbLine
  8
axe
 62
256
370
-1
  6
ByLayer
 10
-2043.0
 20
12012.0
 30
0.0
 11
-1937.0
 21
12012.0
 31
0.0
  0
LINE
  5
336
100
AcDbEntity
100
AcDbLine
  8
axe
 62
256
370
-1
  6
ByLayer
 10
-2556.0
 20
11967.0
 30
0.0
 11
-2556.0
 21
12057.0
 31
0.0
  0
CIRCLE
  5
337
100
AcDbEntity
100
AcDbCircle
  8
noname
 62
256
370
-1
  6
ByLayer
 10
-2556.0
 20
12012.0
 30
0.0
 40
0.0
  0
CIRCLE
  5
338
100
AcDbEntity
100
AcDbCircle
  8
noname
 62
256
370
-1
  6
ByLayer
 10
-2556.0
 20
12012.0
 30
0.0
 40
0.0
  0
CIRCLE
  5
339
100
AcDbEntity
100
AcDbCircle
  8
noname
 62
256
370
-1
  6
ByLayer
 10
-2556.0
 20
12012.0
 30
0.0
 40
0.0
  0
CIRCLE
  5
33A
100
AcDbEntity
100
AcDbCircle
  8
noname
 62
256
370
-1
  6
ByLayer
 10
-2556.0
 20
12012.0
 30
0.0
 40
0.0
  0
CIRCLE
  5
33B
100
AcDbEntity
100
AcDbCircle
  8
noname
 62
256
370
-1
  6
ByLayer
 10
-2556.0
 20
12012.0
 30
0.0
 40
0.0
  0
CIRCLE
  5
33C
100
AcDbEntity
100
AcDbCircle
  8
noname
 62
256
370
-1
  6
ByLayer
 10
-2651.0
 20
12012.0
 30
0.0
 40
0.0
  0
CIRCLE
  5
33D
100
AcDbEntity
100
AcDbCircle
  8
noname
 62
256
370
-1
  6
ByLayer
 10
-2556.0
 20
12012.0
 30
0.0
 40
55.0
  0
LINE
  5
33E
100
AcDbEntity
100
AcDbLine
  8
axe
 62
256
370
-1
  6
ByLayer
 10
-2248.0
 20
12093.0
 30
0.0
 11
-2248.0
 21
12021.0
 31
0.0
  0
LINE
  5
33F
100
AcDbEntity
100
AcDbLine
  8
axe
 62
256
370
-1
  6
ByLayer
 10
-2212.0
 20
12057.0
 30
0.0
 11
-2284.0
 21
12057.0
 31
0.0
  0
LINE
  5
340
100
AcDbEntity
100
AcDbLine
  8
axe
 62
256
370
-1
  6
ByLayer
 10
-2118.0
 20
12093.0
 30
0.0
 11
-2118.0
 21
12021.0
 31
0.0
  0
LINE
  5
341
100
AcDbEntity
100
AcDbLine
  8
axe
 62
256
370
-1
  6
ByLayer
 10
-2082.0
 20
12057.0
 30
0.0
 11
-2154.0
 21
12057.0
 31
0.0
  0
LINE
  5
342
100
AcDbEntity
100
AcDbLine
  8
axe
 62
256
370
-1
  6
ByLayer
 10
-2284.0
 20
12094.0
 30
0.0
 11
-2284.0
 21
12091.0
 31
0.0
  0
LINE
  5
343
100
AcDbEntity
100
AcDbLine
  8
axe
 62
256
370
-1
  6
ByLayer
 10
-2212.0
 20
12093.0
 30
0.0
 11
-2212.0
 21
12092.0
 31
0.0
  0
LINE
  5
344
100
AcDbEntity
100
AcDbLine
  8
axe
 62
256
370
-1
  6
ByLayer
 10
-2211.0
 20
12093.0
 30
0.0
 11
-2212.0
 21
12093.0
 31
0.0
  0
LINE
  5
345
100
AcDbEntity
100
AcDbLine
  8
axe
 62
256
370
-1
  6
ByLayer
 10
-2154.0
 20
12094.0
 30
0.0
 11
-2154.0
 21
12092.0
 31
0.0
  0
LINE
  5
346
100
AcDbEntity
100
AcDbLine
  8
axe
 62
256
370
-1
  6
ByLayer
 10
-2153.0
 20
12093.0
 30
0.0
 11
-2155.0
 21
12093.0
 31
0.0
  0
LINE
  5
347
100
AcDbEntity
100
AcDbLine
  8
axe
 62
256
370
-1
  6
ByLayer
 10
-2082.0
 20
12094.0
 30
0.0
 11
-2082.0
 21
12091.0
 31
0.0
  0
LINE
  5
348
100
AcDbEntity
100
AcDbLine
  8
axe
 62
256
370
-1
  6
ByLayer
 10
-2080.0
 20
12093.0
 30
0.0
 11
-2083.0
 21
12093.0
 31
0.0
  0
LINE
  5
349
100
AcDbEntity
100
AcDbLine
  8
axe
 62
256
370
-1
  6
ByLayer
 10
-2082.0
 20
12022.0
 30
0.0
 11
-2082.0
 21
12019.0
 31
0.0
  0
LINE
  5
34A
100
AcDbEntity
100
AcDbLine
  8
axe
 62
256
370
-1
  6
ByLayer
 10
-2080.0
 20
12021.0
 30
0.0
 11
-2083.0
 21
12021.0
 31
0.0
  0
LINE
  5
34B
100
AcDbEntity
100
AcDbLine
  8
axe
 62
256
370
-1
  6
ByLayer
 10
-2154.0
 20
12022.0
 30
0.0
 11
-2154.0
 21
12019.0
 31
0.0
  0
LINE
  5
34C
100
AcDbEntity
100
AcDbLine
  8
axe
 62
256
370
-1
  6
ByLayer
 10
-2152.0
 20
12021.0
 30
0.0
 11
-2155.0
 21
12021.0
 31
0.0
  0
LINE
  5
34D
100
AcDbEntity
100
AcDbLine
  8
axe
 62
256
370
-1
  6
ByLayer
 10
-2212.0
 20
12022.0
 30
0.0
 11
-2212.0
 21
12019.0
 31
0.0
  0
LINE
  5
34E
100
AcDbEntity
100
AcDbLine
  8
axe
 62
256
370
-1
  6
ByLayer
 10
-2210.0
 20
12021.0
 30
0.0
 11
-2213.0
 21
12021.0
 31
0.0
  0
LINE
  5
34F
100
AcDbEntity
100
AcDbLine
  8
axe
 62
256
370
-1
  6
ByLayer
 10
-2284.0
 20
12022.0
 30
0.0
 11
-2284.0
 21
12019.0
 31
0.0
  0
LINE
  5
350
100
AcDbEntity
100
AcDbLine
  8
axe
 62
256
370
-1
  6
ByLayer
 10
-2282.0
 20
12021.0
 30
0.0
 11
-2285.0
 21
12021.0
 31
0.0
  0
CIRCLE
  5
351
100
AcDbEntity
100
AcDbCircle
  8
optic
 62
256
370
-1
  6
ByLayer
 10
-2556.0
 20
12012.0
 30
0.0
 40
55.0
  0
CIRCLE
  5
352
100
AcDbEntity
100
AcDbCircle
  8
optic
 62
256
370
-1
  6
ByLayer
 10
-2556.0
 20
12012.0
 30
0.0
 40
45.0
  0
LINE
  5
353
100
AcDbEntity
100
AcDbLine
  8
axe
 62
256
370
-1
  6
ByLayer
 10
-2501.0
 20
12012.0
 30
0.0
 11
-2501.0
 21
12012.0
 31
0.0
  0
LINE
  5
354
100
AcDbEntity
100
AcDbLine
  8
axe
 62
256
370
-1
  6
ByLayer
 10
-2556.0
 20
12012.0
 30
0.0
 11
-2556.0
 21
12012.0
 31
0.0
  0
LINE
  5
355
100
AcDbEntity
100
AcDbLine
  8
axe
 62
256
370
-1
  6
ByLayer
 10
-2556.0
 20
12012.0
 30
0.0
 11
-2556.0
 21
12012.0
 31
0.0
  0
LINE
  5
356
100
AcDbEntity
100
AcDbLine
  8
construction
 62
256
370
-1
  6
ByLayer
 10
-43.0
 20
9942.0
 30
0.0
 11
566.0
 21
9942.0
 31
0.0
  0
LINE
  5
357
100
AcDbEntity
100
AcDbLine
  8
construction
 62
256
370
-1
  6
ByLayer
 10
981.0
 20
9942.0
 30
0.0
 11
766.0
 21
9942.0
 31
0.0
  0
LINE
  5
358
100
AcDbEntity
100
AcDbLine
  8
construction
 62
256
370
-1
  6
ByLayer
 10
-43.0000000000001279
 20
11282.0
 30
0.0
 11
566.0
 21
11282.0
 31
0.0
  0
LINE
  5
359
100
AcDbEntity
100
AcDbLine
  8
construction
 62
256
370
-1
  6
ByLayer
 10
-1844.0
 20
11342.0
 30
0.0
 11
-1235.0
 21
11342.0
 31
0.0
  0
LINE
  5
35A
100
AcDbEntity
100
AcDbLine
  8
noname
 62
256
370
-1
  6
ByLayer
 10
-1844.0
 20
11342.0
 30
0.0
 11
-1235.0
 21
11342.0
 31
0.0
  0
LINE
  5
35B
100
AcDbEntity
100
AcDbLine
  8
cache
 62
256
370
-1
  6
ByLayer
 10
-1844.0
 20
11342.0
 30
0.0
 11
-1834.0
 21
11352.0
 31
0.0
  0
LINE
  5
35C
100
AcDbEntity
100
AcDbLine
  8
cache
 62
256
370
-1
  6
ByLayer
 10
-1235.0
 20
11342.0
 30
0.0
 11
-1245.0
 21
11352.0
 31
0.0
  0
LINE
  5
35D
100
AcDbEntity
100
AcDbLine
  8
cache
 62
256
370
-1
  6
ByLayer
 10
-1834.0
 20
11352.0
 30
0.0
 11
-1245.0
 21
11352.0
 31
0.0
  0
LINE
  5
35E
100
AcDbEntity
100
AcDbLine
  8
cache
 62
256
370
-1
  6
ByLayer
 10
-1693.0
 20
11342.0
 30
0.0
 11
-1693.0
 21
11352.0
 31
0.0
  0
LINE
  5
35F
100
AcDbEntity
100
AcDbLine
  8
optic
 62
256
370
-1
  6
DOT
 10
-1804.0
 20
11400.0
 30
0.0
 11
-1804.0
 21
11322.0
 31
0.0
  0
LINE
  5
360
100
AcDbEntity
100
AcDbLine
  8
optic
 62
256
370
-1
  6
DOT
 10
-1804.0
 20
11322.0
 30
0.0
 11
-1694.0
 21
11322.0
 31
0.0
  0
LINE
  5
361
100
AcDbEntity
100
AcDbLine
  8
optic
 62
256
370
-1
  6
DOT
 10
-1694.0
 20
11322.0
 30
0.0
 11
-1694.0
 21
11400.0
 31
0.0
  0
LINE
  5
362
100
AcDbEntity
100
AcDbLine
  8
optic
 62
256
370
-1
  6
DOT
 10
-1694.0
 20
11400.0
 30
0.0
 11
-1804.0
 21
11400.0
 31
0.0
  0
LINE
  5
363
100
AcDbEntity
100
AcDbLine
  8
optic
 62
256
370
-1
  6
DOT
 10
-1794.0
 20
11322.0
 30
0.0
 11
-1794.0
 21
11342.0
 31
0.0
  0
LINE
  5
364
100
AcDbEntity
100
AcDbLine
  8
optic
 62
256
370
-1
  6
DOT
 10
-1704.0
 20
11342.0
 30
0.0
 11
-1704.0
 21
11322.0
 31
0.0
  0
LINE
  5
365
100
AcDbEntity
100
AcDbLine
  8
cache
 62
256
370
-1
  6
ByLayer
 10
-1385.0
 20
11352.0
 30
0.0
 11
-1385.0
 21
11692.0
 31
0.0
  0
LINE
  5
366
100
AcDbEntity
100
AcDbLine
  8
cache
 62
256
370
-1
  6
ByLayer
 10
-1375.0
 20
11352.0
 30
0.0
 11
-1375.0
 21
11692.0
 31
0.0
  0
LINE
  5
367
100
AcDbEntity
100
AcDbLine
  8
noname
 62
256
370
-1
  6
ByLayer
 10
-1235.0
 20
11342.0
 30
0.0
 11
-1235.0
 21
11702.0
 31
0.0
  0
LINE
  5
368
100
AcDbEntity
100
AcDbLine
  8
cache
 62
256
370
-1
  6
ByLayer
 10
-1245.0
 20
11352.0
 30
0.0
 11
-1245.0
 21
11692.0
 31
0.0
  0
LINE
  5
369
100
AcDbEntity
100
AcDbLine
  8
cache
 62
256
370
-1
  6
ByLayer
 10
-1834.0
 20
11692.0
 30
0.0
 11
-1834.0
 21
11352.0
 31
0.0
  0
LINE
  5
36A
100
AcDbEntity
100
AcDbLine
  8
noname
 62
256
370
-1
  6
ByLayer
 10
-1844.0
 20
11702.0
 30
0.0
 11
-1844.0
 21
11342.0
 31
0.0
  0
LINE
  5
36B
100
AcDbEntity
100
AcDbLine
  8
noname
 62
256
370
-1
  6
ByLayer
 10
-43.0000000000001279
 20
11282.0
 30
0.0
 11
566.0
 21
11282.0
 31
0.0
  0
LINE
  5
36C
100
AcDbEntity
100
AcDbLine
  8
cache
 62
256
370
-1
  6
ByLayer
 10
-43.0000000000001279
 20
11282.0
 30
0.0
 11
-33.0000000000002842
 21
11272.0
 31
0.0
  0
LINE
  5
36D
100
AcDbEntity
100
AcDbLine
  8
cache
 62
256
370
-1
  6
ByLayer
 10
566.0
 20
11282.0
 30
0.0
 11
556.0
 21
11272.0
 31
0.0
  0
LINE
  5
36E
100
AcDbEntity
100
AcDbLine
  8
cache
 62
256
370
-1
  6
ByLayer
 10
-33.0000000000002842
 20
11272.0
 30
0.0
 11
556.0
 21
11272.0
 31
0.0
  0
LINE
  5
36F
100
AcDbEntity
100
AcDbLine
  8
cache
 62
256
370
-1
  6
ByLayer
 10
-3.0000000000001563
 20
11282.0
 30
0.0
 11
-3.0000000000002771
 21
11272.0
 31
0.0
  0
LINE
  5
370
100
AcDbEntity
100
AcDbLine
  8
cache
 62
256
370
-1
  6
ByLayer
 10
106.9999999999999147
 20
11282.0
 30
0.0
 11
106.9999999999999432
 21
11272.0
 31
0.0
  0
LINE
  5
371
100
AcDbEntity
100
AcDbLine
  8
cache
 62
256
370
-1
  6
ByLayer
 10
415.9999999999996589
 20
11272.0
 30
0.0
 11
416.0000000000000568
 21
10932.0
 31
0.0
  0
LINE
  5
372
100
AcDbEntity
100
AcDbLine
  8
cache
 62
256
370
-1
  6
ByLayer
 10
425.9999999999997158
 20
11272.0
 30
0.0
 11
426.0
 21
10932.0
 31
0.0
  0
DIMENSION
  5
373
100
AcDbEntity
  8
cote
 62
256
370
-1
  6
ByLayer
100
AcDbDimension
 10
617.5725267975033148
 20
11272.0
 30
0.0
 11
616.5725267975033148
 21
11257.0
 31
0.0
 70
0
 71
5
 72
0
 41
1.0
 42
0.0
  1

  3
Standard
100
AcDbAlignedDimension
 13
535.9999999999998863
 23
11232.0
 33
0.0
 14
566.0
 24
11282.0
 34
0.0
 50
90.0
100
AcDbRotatedDimension
  0
LINE
  5
374
100
AcDbEntity
100
AcDbLine
  8
noname
 62
256
370
-1
  6
ByLayer
 10
566.0
 20
11282.0
 30
0.0
 11
565.9999999999998863
 21
10922.0
 31
0.0
  0
LINE
  5
375
100
AcDbEntity
100
AcDbLine
  8
cache
 62
256
370
-1
  6
ByLayer
 10
556.0
 20
11272.0
 30
0.0
 11
555.9999999999998863
 21
10932.0
 31
0.0
  0
LINE
  5
376
100
AcDbEntity
100
AcDbLine
  8
cache
 62
256
370
-1
  6
ByLayer
 10
-33.0000000000000853
 20
10932.0
 30
0.0
 11
-33.0000000000002842
 21
11272.0
 31
0.0
  0
LINE
  5
377
100
AcDbEntity
100
AcDbLine
  8
noname
 62
256
370
-1
  6
ByLayer
 10
-43.0000000000001776
 20
10922.0
 30
0.0
 11
-43.0000000000001279
 21
11282.0
 31
0.0
  0
LINE
  5
378
100
AcDbEntity
100
AcDbLine
  8
noname
 62
256
370
-1
  6
ByLayer
 10
-43.0
 20
9942.0
 30
0.0
 11
566.0
 21
9942.0
 31
0.0
  0
LINE
  5
379
100
AcDbEntity
100
AcDbLine
  8
noname
 62
256
370
-1
  6
ByLayer
 10
981.0
 20
9942.0
 30
0.0
 11
766.0
 21
9942.0
 31
0.0
  0
LINE
  5
37A
100
AcDbEntity
100
AcDbLine
  8
cache
 62
256
370
-1
  6
ByLayer
 10
-43.0
 20
9942.0
 30
0.0
 11
-33.0
 21
9952.0
 31
0.0
  0
LINE
  5
37B
100
AcDbEntity
100
AcDbLine
  8
cache
 62
256
370
-1
  6
ByLayer
 10
566.0
 20
9942.0
 30
0.0
 11
556.0
 21
9952.0
 31
0.0
  0
LINE
  5
37C
100
AcDbEntity
100
AcDbLine
  8
cache
 62
256
370
-1
  6
ByLayer
 10
776.0
 20
9952.0
 30
0.0
 11
766.0
 21
9942.0
 31
0.0
  0
LINE
  5
37D
100
AcDbEntity
100
AcDbLine
  8
cache
 62
256
370
-1
  6
ByLayer
 10
-33.0
 20
9952.0
 30
0.0
 11
556.0
 21
9952.0
 31
0.0
  0
LINE
  5
37E
100
AcDbEntity
100
AcDbLine
  8
cache
 62
256
370
-1
  6
ByLayer
 10
971.0
 20
9952.0
 30
0.0
 11
981.0
 21
9942.0
 31
0.0
  0
LINE
  5
37F
100
AcDbEntity
100
AcDbLine
  8
cache
 62
256
370
-1
  6
ByLayer
 10
971.0
 20
9952.0
 30
0.0
 11
776.0
 21
9952.0
 31
0.0
  0
LINE
  5
380
100
AcDbEntity
100
AcDbLine
  8
cache
 62
256
370
-1
  6
ByLayer
 10
-3.0
 20
9942.0
 30
0.0
 11
-3.0
 21
9952.0
 31
0.0
  0
LINE
  5
381
100
AcDbEntity
100
AcDbLine
  8
cache
 62
256
370
-1
  6
ByLayer
 10
107.0
 20
9942.0
 30
0.0
 11
107.0
 21
9952.0
 31
0.0
  0
LINE
  5
382
100
AcDbEntity
100
AcDbLine
  8
cache
 62
256
370
-1
  6
ByLayer
 10
-33.0
 20
10292.0
 30
0.0
 11
-33.0
 21
9952.0
 31
0.0
  0
LINE
  5
383
100
AcDbEntity
100
AcDbLine
  8
cache
 62
256
370
-1
  6
ByLayer
 10
416.0
 20
9952.0
 30
0.0
 11
416.0
 21
10292.0
 31
0.0
  0
LINE
  5
384
100
AcDbEntity
100
AcDbLine
  8
cache
 62
256
370
-1
  6
ByLayer
 10
426.0
 20
9952.0
 30
0.0
 11
426.0
 21
10292.0
 31
0.0
  0
DIMENSION
  5
385
100
AcDbEntity
  8
cote
 62
256
370
-1
  6
ByLayer
100
AcDbDimension
 10
426.0
 20
9849.0
 30
0.0
 11
496.0
 21
9850.0
 31
0.0
 70
0
 71
5
 72
1
 41
1.0
 42
0.0
  1

  3
Standard
100
AcDbAlignedDimension
 13
566.0
 23
9952.0
 33
0.0
 14
426.0
 24
9952.0
 34
0.0
 50
0.0
100
AcDbRotatedDimension
  0
LINE
  5
386
100
AcDbEntity
100
AcDbLine
  8
noname
 62
256
370
-1
  6
ByLayer
 10
566.0
 20
9942.0
 30
0.0
 11
566.0
 21
10302.0
 31
0.0
  0
LINE
  5
387
100
AcDbEntity
100
AcDbLine
  8
cache
 62
256
370
-1
  6
ByLayer
 10
556.0
 20
9952.0
 30
0.0
 11
556.0
 21
10292.0
 31
0.0
  0
DIMENSION
  5
388
100
AcDbEntity
  8
cote
 62
256
370
-1
  6
ByLayer
100
AcDbDimension
 10
821.0
 20
9952.0
 30
0.0
 11
820.0
 21
9994.0
 31
0.0
 70
0
 71
5
 72
0
 41
1.0
 42
0.0
  1

  3
Standard
100
AcDbAlignedDimension
 13
821.0
 23
10036.0
 33
0.0
 14
821.0
 24
9952.0
 34
0.0
 50
90.0
100
AcDbRotatedDimension
  0
LINE
  5
389
100
AcDbEntity
100
AcDbLine
  8
noname
 62
256
370
-1
  6
ByLayer
 10
766.0
 20
9942.0
 30
0.0
 11
766.0
 21
10302.0
 31
0.0
  0
LINE
  5
38A
100
AcDbEntity
100
AcDbLine
  8
cache
 62
256
370
-1
  6
ByLayer
 10
776.0
 20
9952.0
 30
0.0
 11
776.0
 21
10292.0
 31
0.0
  0
DIMENSION
  5
38B
100
AcDbEntity
  8
cote
 62
256
370
-1
  6
ByLayer
100
AcDbDimension
 10
1171.0
 20
10302.0
 30
0.0
 11
1170.0
 21
10122.0
 31
0.0
 70
0
 71
5
 72
0
 41
1.0
 42
0.0
  1

  3
Standard
100
AcDbAlignedDimension
 13
981.0
 23
9942.0
 33
0.0
 14
981.0
 24
10302.0
 34
0.0
 50
90.0
100
AcDbRotatedDimension
  0
LINE
  5
38C
100
AcDbEntity
100
AcDbLine
  8
noname
 62
256
370
-1
  6
ByLayer
 10
981.0
 20
9942.0
 30
0.0
 11
981.0
 21
10302.0
 31
0.0
  0
LINE
  5
38D
100
AcDbEntity
100
AcDbLine
  8
cache
 62
256
370
-1
  6
ByLayer
 10
971.0
 20
9952.0
 30
0.0
 11
971.0
 21
10292.0
 31
0.0
  0
DIMENSION
  5
38E
100
AcDbEntity
  8
cote
 62
256
370
-1
  6
ByLayer
100
AcDbDimension
 10
-212.8163265306122582
 20
10099.0
 30
0.0
 11
-213.8163265306122867
 21
10020.5
 31
0.0
 70
1
 71
5
 72
1
 41
1.0
 42
0.0
  1

  3
Standard
100
AcDbAlignedDimension
 13
-43.0000000000000284
 23
9942.0
 33
0.0
 14
-43.0
 24
10099.0
 34
0.0
  0
LINE
  5
38F
100
AcDbEntity
100
AcDbLine
  8
noname
 62
256
370
-1
  6
ByLayer
 10
-43.0
 20
10302.0
 30
0.0
 11
-43.0
 21
9942.0
 31
0.0
  0
ENDSEC
  0
SECTION
  2
OBJECTS
  0
DICTIONARY
  5
C
100
AcDbDictionary
280
0
281
1
  3
ACAD_GROUP
350
D
  3
ACAD_LAYOUT
350
1A
  3
ACAD_MLINESTYLE
350
17
  3
ACAD_PLOTSETTINGS
350
19
  3
ACAD_PLOTSTYLENAME
350
E
  3
AcDbVariableDictionary
350
390
  0
DICTIONARY
  5
D
100
AcDbDictionary
280
0
281
1
  0
ACDBDICTIONARYWDFLT
  5
E
100
AcDbDictionary
281
1
  3
Normal
350
F
100
AcDbDictionaryWithDefault
340
F
  0
ACDBPLACEHOLDER
  5
F
  0
DICTIONARY
  5
17
100
AcDbDictionary
280
0
281
1
  3
Standard
350
18
  0
MLINESTYLE
  5
18
100
AcDbMlineStyle
  2
STANDARD
 70
0
  3

 62
256
 51
90.0
 52
90.0
 71
2
 49
0.5
 62
256
  6
BYLAYER
 49
-0.5
 62
256
  6
BYLAYER
  0
DICTIONARY
  5
19
100
AcDbDictionary
280
0
281
1
  0
DICTIONARY
  5
1A
100
AcDbDictionary
281
1
  3
Layout1
350
1E
  3
Layout2
350
26
  3
Model
350
22
  0
LAYOUT
  5
1E
100
AcDbPlotSettings
  1

  2
C:\Program Files\AutoCAD 2002\plotters\DWF ePlot (optimized for plotting).pc3
  4

  6

 40
0.0
 41
0.0
 42
0.0
 43
0.0
 44
0.0
 45
0.0
 46
0.0
 47
0.0
 48
0.0
 49
0.0
140
0.0
141
0.0
142
1.0
143
1.0
 70
688
 72
0
 73
0
 74
5
  7

 75
16
147
1.0
148
0.0
149
0.0
100
AcDbLayout
  1
Layout1
 70
1
 71
1
 10
0.0
 20
0.0
 11
420.0
 21
297.0
 12
0.0
 22
0.0
 32
0.0
 14
100000000000000000000.0
 24
100000000000000000000.0
 34
100000000000000000000.0
 15
-100000000000000000000.0
 25
-100000000000000000000.0
 35
-100000000000000000000.0
146
0.0
 13
0.0
 23
0.0
 33
0.0
 16
1.0
 26
0.0
 36
0.0
 17
0.0
 27
1.0
 37
0.0
 76
0
330
1B
  0
LAYOUT
  5
22
100
AcDbPlotSettings
  1

  2
C:\Program Files\AutoCAD 2002\plotters\DWF ePlot (optimized for plotting).pc3
  4

  6

 40
0.0
 41
0.0
 42
0.0
 43
0.0
 44
0.0
 45
0.0
 46
0.0
 47
0.0
 48
0.0
 49
0.0
140
0.0
141
0.0
142
1.0
143
1.0
 70
1712
 72
0
 73
0
 74
0
  7

 75
0
147
1.0
148
0.0
149
0.0
100
AcDbLayout
  1
Model
 70
1
 71
0
 10
0.0
 20
0.0
 11
12.0
 21
9.0
 12
0.0
 22
0.0
 32
0.0
 14
0.0
 24
0.0
 34
0.0
 15
0.0
 25
0.0
 35
0.0
146
0.0
 13
0.0
 23
0.0
 33
0.0
 16
1.0
 26
0.0
 36
0.0
 17
0.0
 27
1.0
 37
0.0
 76
0
330
1F
  0
LAYOUT
  5
26
100
AcDbPlotSettings
  1

  2
C:\Program Files\AutoCAD 2002\plotters\DWF ePlot (optimized for plotting).pc3
  4

  6

 40
0.0
 41
0.0
 42
0.0
 43
0.0
 44
0.0
 45
0.0
 46
0.0
 47
0.0
 48
0.0
 49
0.0
140
0.0
141
0.0
142
1.0
143
1.0
 70
688
 72
0
 73
0
 74
5
  7

 75
16
147
1.0
148
0.0
149
0.0
100
AcDbLayout
  1
Layout2
 70
1
 71
2
 10
0.0
 20
0.0
 11
12.0
 21
9.0
 12
0.0
 22
0.0
 32
0.0
 14
0.0
 24
0.0
 34
0.0
 15
0.0
 25
0.0
 35
0.0
146
0.0
 13
0.0
 23
0.0
 33
0.0
 16
1.0
 26
0.0
 36
0.0
 17
0.0
 27
1.0
 37
0.0
 76
0
330
23
  0
DICTIONARY
  5
390
100
AcDbDictionary
281
1
  3
DIMASSOC
350
392
  3
HIDETEXT
350
391
  0
DICTIONARYVAR
  5
391
100
DictionaryVariables
280
0
  1
2
  0
DICTIONARYVAR
  5
392
100
DictionaryVariables
280
0
  1
1
  0
ENDSEC
  0
EOF
