999
dxflib 2.0.4.8
  0
SECTION
  2
HEADER
  9
$ACADVER
  1
AC1015
  9
$HANDSEED
  5
FFFF
  9
$USERR4
 40
0.0
  9
$DIMTDEC
 70
2
  9
$DIMTAD
 70
1
  9
$CMLSTYLE
  2
Standard
  9
$VISRETAIN
 70
1
  9
$TILEMODE
 70
1
  9
$SHADEDIF
 70
70
  9
$USERR5
 40
0.0
  9
$UCSYDIR
 10
0.0
 20
1.0
 30
0.0
  9
$CHAMFERA
 40
0.0
  9
$MENU
  1
.
  9
$DIMALTZ
 70
0
  9
$CLAYER
  8
CARTE
  9
$OLESTARTUP
290
0
  9
$UCSXDIR
 10
1.0
 20
0.0
 30
0.0
  9
$CHAMFERB
 40
0.0
  9
$DIMADEC
 70
0
  9
$DIMUPT
 70
0
  9
$DIMASZ
 40
2.5
  9
$TRACEWID
 40
1.0
  9
$REGENMODE
 70
1
  9
$ORTHOMODE
 70
0
  9
$EXTMIN
 10
551.8405582168929868
 20
930.7906386582966434
 30
0.0
  9
$ENDCAPS
280
0
  9
$MEASUREMENT
 70
1
  9
$CMLJUST
 70
0
  9
$PUCSYDIR
 10
0.0
 20
1.0
 30
0.0
  9
$ANGBASE
 50
0.0
  9
$USRTIMER
 70
1
  9
$CHAMFERC
 40
0.0
  9
$SKETCHINC
 40
1.0
  9
$DIMGAP
 40
0.625
  9
$DIMTFAC
 40
1.0
  9
$DIMSAH
 70
0
  9
$DIMALT
 70
0
  9
$DIMSHO
 70
1
  9
$VERSIONGUID
  2
{E3B7008D-84B2-4C22-BD59-B9A3F775D9B5}
  9
$LWDISPLAY
290
0
  9
$PUCSXDIR
 10
1.0
 20
0.0
 30
0.0
  9
$SURFTYPE
 70
6
  9
$SPLFRAME
 70
0
  9
$CHAMFERD
 40
0.0
  9
$DIMALTRND
 40
0.0
  9
$DIMALTTD
 70
3
  9
$DIMTSZ
 40
0.0
  9
$LIMMIN
 10
0.0
 20
0.0
  9
$CELWEIGHT
370
-1
  9
$SURFTAB1
 70
6
  9
$SPLINESEGS
 70
8
  9
$AUPREC
 70
0
  9
$LUNITS
 70
2
  9
$DWGCODEPAGE
  3
ANSI_1252
  9
$PSTYLEMODE
290
1
  9
$UNITMODE
 70
0
  9
$USERI1
 70
0
  9
$UCSORTHOVIEW
 70
0
  9
$SURFTAB2
 70
6
  9
$TDUUPDATE
 40
2454560.9127075118012726
  9
$TDUCREATE
 40
2454481.7984312609769404
  9
$SKPOLY
 70
0
  9
$ELEVATION
 40
0.0
  9
$DIMDSEP
 70
44
  9
$DIMCEN
 40
2.5
  9
$DIMRND
 40
0.0
  9
$INSBASE
 10
0.0
 20
0.0
 30
0.0
  9
$INSUNITS
 70
4
  9
$USERI2
 70
0
  9
$UCSORGRIGHT
 10
0.0
 20
0.0
 30
0.0
  9
$UCSORG
 10
0.0
 20
0.0
 30
0.0
  9
$PELEVATION
 40
0.0
  9
$DIMEXO
 40
0.625
  9
$TEXTSIZE
 40
2.5
  9
$FILLMODE
 70
1
  9
$EXTMAX
 10
856.6522328842927436
 20
1184.0791728883089036
 30
0.0
  9
$JOINSTYLE
280
0
  9
$USERI3
 70
0
  9
$PUCSORGBOTTOM
 10
0.0
 20
0.0
 30
0.0
  9
$SURFU
 70
6
  9
$ANGDIR
 70
0
  9
$TDUSRTIMER
 40
0.1447205903
  9
$DIMLWD
 70
-2
  9
$DIMTZIN
 70
8
  9
$DIMTOLJ
 70
0
  9
$DIMZIN
 70
8
  9
$DIMDLE
 40
0.0
  9
$DIMSCALE
 40
1.0
  9
$WORLDVIEW
 70
1
  9
$USERI4
 70
0
  9
$SURFV
 70
6
  9
$DIMLWE
 70
-2
  9
$DIMLUNIT
 70
2
  9
$DIMATFIT
 70
3
  9
$DIMALTTZ
 70
0
  9
$DIMJUST
 70
0
  9
$QTEXTMODE
 70
0
  9
$LIMMAX
 10
420.0
 20
297.0
  9
$ACADMAINTVER
 70
20
  9
$GRIDMODE
 70
1
  9
$EXTNAMES
290
1
  9
$PROXYGRAPHICS
 70
1
  9
$USERI5
 70
0
  9
$UCSORGTOP
 10
0.0
 20
0.0
 30
0.0
  9
$PDMODE
 70
0
  9
$LIMCHECK
 70
0
  9
$THICKNESS
 40
0.0
  9
$DIMAZIN
 70
0
  9
$DIMSE1
 70
0
  9
$DIMLIM
 70
0
  9
$DIMTXT
 40
2.5
  9
$ATTMODE
 70
1
  9
$XEDIT
290
1
  9
$PEXTMAX
 10
0.0
 20
0.0
 30
0.0
  9
$PEXTMIN
 10
0.0
 20
0.0
 30
0.0
  9
$PUCSORG
 10
0.0
 20
0.0
 30
0.0
  9
$SPLINETYPE
 70
6
  9
$TDINDWG
 40
0.1447302083
  9
$LUPREC
 70
4
  9
$DIMSOXD
 70
0
  9
$DIMLFAC
 40
1.0
  9
$DIMSE2
 70
0
  9
$DIMTOH
 70
0
  9
$CELTYPE
  6
ByLayer
  9
$PSVPSCALE
 40
0.0
  9
$FINGERPRINTGUID
  2
{F643565D-4E8B-4F95-A333-AD1139C4F707}
  9
$PLIMCHECK
 70
0
  9
$PUCSORGRIGHT
 10
0.0
 20
0.0
 30
0.0
  9
$PLINEWID
 40
0.0
  9
$DIMFRAC
 70
0
  9
$DIMSTYLE
  2
ISO-25
  9
$DIMTVP
 40
0.0
  9
$DIMASO
 70
1
  9
$DIMTM
 40
0.0
  9
$DIMDLI
 40
3.75
  9
$DISPSILH
 70
0
  9
$CECOLOR
 62
256
  9
$TREEDEPTH
 70
3020
  9
$PLIMMAX
 10
12.0
 20
9.0
  9
$PLIMMIN
 10
0.0
 20
0.0
  9
$MAXACTVP
 70
64
  9
$UCSORGBACK
 10
0.0
 20
0.0
 30
0.0
  9
$UCSORGLEFT
 10
0.0
 20
0.0
 30
0.0
  9
$TDUPDATE
 40
2454560.9960408448241651
  9
$FILLETRAD
 40
0.0
  9
$DIMALTU
 70
2
  9
$DIMDEC
 70
2
  9
$DIMCLRT
 70
0
  9
$DIMALTD
 70
3
  9
$DIMTIH
 70
0
  9
$LTSCALE
 40
1.0
  9
$CEPSNTYPE
380
0
  9
$CMLSCALE
 40
20.0
  9
$PINSBASE
 10
0.0
 20
0.0
 30
0.0
  9
$USERR1
 40
0.0
  9
$PUCSORTHOVIEW
 70
0
  9
$PDSIZE
 40
0.0
  9
$DIMTXSTY
  7
Standard
  9
$DIMCLRD
 70
0
  9
$DIMEXE
 40
1.25
  9
$CELTSCALE
 40
1.0
  9
$PSLTSCALE
 70
1
  9
$PLINEGEN
 70
0
  9
$SHADEDGE
 70
3
  9
$USERR2
 40
0.0
  9
$PUCSORGTOP
 10
0.0
 20
0.0
 30
0.0
  9
$UCSORGFRONT
 10
0.0
 20
0.0
 30
0.0
  9
$TDCREATE
 40
2454481.8817645949311554
  9
$DIMTMOVE
 70
0
  9
$DIMAUNIT
 70
0
  9
$DIMSD1
 70
0
  9
$DIMCLRE
 70
0
  9
$DIMTOFL
 70
1
  9
$DIMALTF
 40
0.03937007874016
  9
$DIMTOL
 70
0
  9
$DIMTP
 40
0.0
  9
$TEXTSTYLE
  7
Standard
  9
$USERR3
 40
0.0
  9
$PUCSORGBACK
 10
0.0
 20
0.0
 30
0.0
  9
$PUCSORGFRONT
 10
0.0
 20
0.0
 30
0.0
  9
$PUCSORGLEFT
 10
0.0
 20
0.0
 30
0.0
  9
$UCSORGBOTTOM
 10
0.0
 20
0.0
 30
0.0
  9
$AUNITS
 70
0
  9
$DIMSD2
 70
0
  9
$DIMTIX
 70
0
  9
$MIRRTEXT
 70
0
  0
ENDSEC
  0
SECTION
  2
TABLES
  0
TABLE
  2
VPORT
  5
8
100
AcDbSymbolTable
 70
1
  0
VPORT
  5
30
100
AcDbSymbolTableRecord
100
AcDbViewportTableRecord
  2
*Active
 70
0
 10
0.0
 20
0.0
 11
1.0
 21
1.0
 12
286.3055555555554861
 22
148.5
 13
0.0
 23
0.0
 14
10.0
 24
10.0
 15
10.0
 25
10.0
 16
0.0
 26
0.0
 36
1.0
 17
0.0
 27
0.0
 37
0.0
 40
297.0
 41
1.92798353909465
 42
50.0
 43
0.0
 44
0.0
 50
0.0
 51
0.0
 71
0
 72
100
 73
1
 74
3
 75
1
 76
1
 77
0
 78
0
281
0
 65
1
110
0.0
120
0.0
130
0.0
111
1.0
121
0.0
131
0.0
112
0.0
122
1.0
132
0.0
 79
0
146
0.0
  0
ENDTAB
  0
TABLE
  2
LTYPE
  5
5
100
AcDbSymbolTable
 70
21
  0
LTYPE
  5
14
100
AcDbSymbolTableRecord
100
AcDbLinetypeTableRecord
  2
ByBlock
 70
0
  3

 72
65
 73
0
 40
0.0
  0
LTYPE
  5
15
100
AcDbSymbolTableRecord
100
AcDbLinetypeTableRecord
  2
ByLayer
 70
0
  3

 72
65
 73
0
 40
0.0
  0
LTYPE
  5
16
100
AcDbSymbolTableRecord
100
AcDbLinetypeTableRecord
  2
CONTINUOUS
 70
0
  3
Solid line
 72
65
 73
0
 40
0.0
  0
LTYPE
  5
31
100
AcDbSymbolTableRecord
100
AcDbLinetypeTableRecord
  2
DOT
 70
0
  3
Dot . . . . . . . . . . . . . . . . . . . . . .
 72
65
 73
2
 40
6.3499999999999996
 49
0.0
 74
0
 49
-6.3499999999999996
 74
0
  0
LTYPE
  5
32
100
AcDbSymbolTableRecord
100
AcDbLinetypeTableRecord
  2
DOT2
 70
0
  3
Dot (.5x) .....................................
 72
65
 73
2
 40
3.1749999999999998
 49
0.0
 74
0
 49
-3.1749999999999998
 74
0
  0
LTYPE
  5
33
100
AcDbSymbolTableRecord
100
AcDbLinetypeTableRecord
  2
DOTX2
 70
0
  3
Dot (2x) .  .  .  .  .  .  .  .  .  .  .  .  .
 72
65
 73
2
 40
12.6999999999999993
 49
0.0
 74
0
 49
-12.6999999999999993
 74
0
  0
LTYPE
  5
34
100
AcDbSymbolTableRecord
100
AcDbLinetypeTableRecord
  2
DASHED
 70
0
  3
Dashed __ __ __ __ __ __ __ __ __ __ __ __ __ _
 72
65
 73
2
 40
19.0500000000000007
 49
12.6999999999999993
 74
0
 49
-6.3499999999999996
 74
0
  0
LTYPE
  5
35
100
AcDbSymbolTableRecord
100
AcDbLinetypeTableRecord
  2
DASHED2
 70
0
  3
Dashed (.5x) _ _ _ _ _ _ _ _ _ _ _ _ _ _ _ _ _
 72
65
 73
2
 40
9.5250000000000004
 49
6.3499999999999996
 74
0
 49
-3.1749999999999998
 74
0
  0
LTYPE
  5
36
100
AcDbSymbolTableRecord
100
AcDbLinetypeTableRecord
  2
DASHEDX2
 70
0
  3
Dashed (2x) ____  ____  ____  ____  ____  ___
 72
65
 73
2
 40
38.1000000000000014
 49
25.3999999999999986
 74
0
 49
-12.6999999999999993
 74
0
  0
LTYPE
  5
37
100
AcDbSymbolTableRecord
100
AcDbLinetypeTableRecord
  2
DASHDOT
 70
0
  3
Dash dot __ . __ . __ . __ . __ . __ . __ . __
 72
65
 73
4
 40
25.3999999999999986
 49
12.6999999999999993
 74
0
 49
-6.3499999999999996
 74
0
 49
0.0
 74
0
 49
-6.3499999999999996
 74
0
  0
LTYPE
  5
38
100
AcDbSymbolTableRecord
100
AcDbLinetypeTableRecord
  2
DASHDOT2
 70
0
  3
Dash dot (.5x) _._._._._._._._._._._._._._._.
 72
65
 73
4
 40
12.6999999999999993
 49
6.3499999999999996
 74
0
 49
-3.1749999999999998
 74
0
 49
0.0
 74
0
 49
-3.1749999999999998
 74
0
  0
LTYPE
  5
39
100
AcDbSymbolTableRecord
100
AcDbLinetypeTableRecord
  2
DASHDOTX2
 70
0
  3
Dash dot (2x) ____  .  ____  .  ____  .  ___
 72
65
 73
4
 40
50.7999999999999972
 49
25.3999999999999986
 74
0
 49
-12.6999999999999993
 74
0
 49
0.0
 74
0
 49
-12.6999999999999993
 74
0
  0
LTYPE
  5
3A
100
AcDbSymbolTableRecord
100
AcDbLinetypeTableRecord
  2
DIVIDE
 70
0
  3
Divide ____ . . ____ . . ____ . . ____ . . ____
 72
65
 73
6
 40
31.75
 49
12.6999999999999993
 74
0
 49
-6.3499999999999996
 74
0
 49
0.0
 74
0
 49
-6.3499999999999996
 74
0
 49
0.0
 74
0
 49
-6.3499999999999996
 74
0
  0
LTYPE
  5
3B
100
AcDbSymbolTableRecord
100
AcDbLinetypeTableRecord
  2
DIVIDE2
 70
0
  3
Divide (.5x) __..__..__..__..__..__..__..__.._
 72
65
 73
6
 40
15.875
 49
6.3499999999999996
 74
0
 49
-3.1749999999999998
 74
0
 49
0.0
 74
0
 49
-3.1749999999999998
 74
0
 49
0.0
 74
0
 49
-3.1749999999999998
 74
0
  0
LTYPE
  5
3C
100
AcDbSymbolTableRecord
100
AcDbLinetypeTableRecord
  2
DIVIDEX2
 70
0
  3
Divide (2x) ________  .  .  ________  .  .  _
 72
65
 73
6
 40
63.5
 49
25.3999999999999986
 74
0
 49
-12.6999999999999993
 74
0
 49
0.0
 74
0
 49
-12.6999999999999993
 74
0
 49
0.0
 74
0
 49
-12.6999999999999993
 74
0
  0
LTYPE
  5
3D
100
AcDbSymbolTableRecord
100
AcDbLinetypeTableRecord
  2
CENTER
 70
0
  3
Center ____ _ ____ _ ____ _ ____ _ ____ _ ____
 72
65
 73
4
 40
50.7999999999999972
 49
31.75
 74
0
 49
-6.3499999999999996
 74
0
 49
6.3499999999999996
 74
0
 49
-6.3499999999999996
 74
0
  0
LTYPE
  5
3E
100
AcDbSymbolTableRecord
100
AcDbLinetypeTableRecord
  2
CENTER2
 70
0
  3
Center (.5x) ___ _ ___ _ ___ _ ___ _ ___ _ ___
 72
65
 73
4
 40
28.5749999999999993
 49
19.0500000000000007
 74
0
 49
-3.1749999999999998
 74
0
 49
3.1749999999999998
 74
0
 49
-3.1749999999999998
 74
0
  0
LTYPE
  5
3F
100
AcDbSymbolTableRecord
100
AcDbLinetypeTableRecord
  2
CENTERX2
 70
0
  3
Center (2x) ________  __  ________  __  _____
 72
65
 73
4
 40
101.5999999999999943
 49
63.5
 74
0
 49
-12.6999999999999993
 74
0
 49
12.6999999999999993
 74
0
 49
-12.6999999999999993
 74
0
  0
LTYPE
  5
40
100
AcDbSymbolTableRecord
100
AcDbLinetypeTableRecord
  2
BORDER
 70
0
  3
Border __ __ . __ __ . __ __ . __ __ . __ __ .
 72
65
 73
6
 40
44.4500000000000028
 49
12.6999999999999993
 74
0
 49
-6.3499999999999996
 74
0
 49
12.6999999999999993
 74
0
 49
-6.3499999999999996
 74
0
 49
0.0
 74
0
 49
-6.3499999999999996
 74
0
  0
LTYPE
  5
41
100
AcDbSymbolTableRecord
100
AcDbLinetypeTableRecord
  2
BORDER2
 70
0
  3
Border (.5x) __.__.__.__.__.__.__.__.__.__.__.
 72
65
 73
6
 40
22.2250000000000014
 49
6.3499999999999996
 74
0
 49
-3.1749999999999998
 74
0
 49
6.3499999999999996
 74
0
 49
-3.1749999999999998
 74
0
 49
0.0
 74
0
 49
-3.1749999999999998
 74
0
  0
LTYPE
  5
42
100
AcDbSymbolTableRecord
100
AcDbLinetypeTableRecord
  2
BORDERX2
 70
0
  3
Border (2x) ____  ____  .  ____  ____  .  ___
 72
65
 73
6
 40
88.9000000000000057
 49
25.3999999999999986
 74
0
 49
-12.6999999999999993
 74
0
 49
25.3999999999999986
 74
0
 49
-12.6999999999999993
 74
0
 49
0.0
 74
0
 49
-12.6999999999999993
 74
0
  0
ENDTAB
  0
TABLE
  2
LAYER
  5
2
100
AcDbSymbolTable
 70
2
  0
LAYER
  5
10
100
AcDbSymbolTableRecord
100
AcDbLayerTableRecord
  2
0
 70
0
 62
7
  6
CONTINUOUS
370
-3
390
F
  0
LAYER
  5
43
100
AcDbSymbolTableRecord
100
AcDbLayerTableRecord
  2
ALU
 70
0
 62
161
  6
CONTINUOUS
370
-3
390
F
  0
ENDTAB
  0
TABLE
  2
STYLE
  5
3
100
AcDbSymbolTable
 70
1
  0
STYLE
  5
11
100
AcDbSymbolTableRecord
100
AcDbTextStyleTableRecord
  2
Standard
 70
0
 40
0.0
 41
0.75
 50
0.0
 71
0
 42
2.5
  3
txt
  4

  0
ENDTAB
  0
TABLE
  2
VIEW
  5
6
100
AcDbSymbolTable
 70
0
  0
ENDTAB
  0
TABLE
  2
UCS
  5
7
100
AcDbSymbolTable
 70
0
  0
ENDTAB
  0
TABLE
  2
APPID
  5
9
100
AcDbSymbolTable
 70
1
  0
APPID
  5
12
100
AcDbSymbolTableRecord
100
AcDbRegAppTableRecord
  2
ACAD
 70
0
  0
ENDTAB
  0
TABLE
  2
DIMSTYLE
  5
A
100
AcDbSymbolTable
 70
1
100
AcDbDimStyleTable
 71
0
  0
DIMSTYLE
105
27
100
AcDbSymbolTableRecord
100
AcDbDimStyleTableRecord
  2
Standard
 41
2.5
 42
0.625
 43
3.75
 44
1.25
 70
0
 73
0
 74
0
 77
1
 78
8
140
2.5
141
2.5
143
0.03937007874016
147
0.625
171
3
172
1
271
2
272
2
274
3
278
44
283
0
284
8
340
11
  0
ENDTAB
  0
TABLE
  2
BLOCK_RECORD
  5
1
100
AcDbSymbolTable
 70
1
  0
BLOCK_RECORD
  5
1F
100
AcDbSymbolTableRecord
100
AcDbBlockTableRecord
  2
*Model_Space
340
22
  0
BLOCK_RECORD
  5
1B
100
AcDbSymbolTableRecord
100
AcDbBlockTableRecord
  2
*Paper_Space
340
1E
  0
BLOCK_RECORD
  5
23
100
AcDbSymbolTableRecord
100
AcDbBlockTableRecord
  2
*Paper_Space0
340
26
  0
BLOCK_RECORD
  5
44
100
AcDbSymbolTableRecord
100
AcDbBlockTableRecord
  2
alus
340
0
  0
ENDTAB
  0
ENDSEC
  0
SECTION
  2
BLOCKS
  0
BLOCK
  5
20
100
AcDbEntity
  8
0
100
AcDbBlockBegin
  2
*Model_Space
 70
0
 10
0.0
 20
0.0
 30
0.0
  3
*Model_Space
  1

  0
ENDBLK
  5
21
100
AcDbEntity
  8
0
100
AcDbBlockEnd
  0
BLOCK
  5
1C
100
AcDbEntity
 67
1
  8
0
100
AcDbBlockBegin
  2
*Paper_Space
 70
0
 10
0.0
 20
0.0
 30
0.0
  3
*Paper_Space
  1

  0
ENDBLK
  5
1D
100
AcDbEntity
 67
1
  8
0
100
AcDbBlockEnd
  0
BLOCK
  5
24
100
AcDbEntity
  8
0
100
AcDbBlockBegin
  2
*Paper_Space0
 70
0
 10
0.0
 20
0.0
 30
0.0
  3
*Paper_Space0
  1

  0
ENDBLK
  5
25
100
AcDbEntity
  8
0
100
AcDbBlockEnd
  0
BLOCK
  5
45
100
AcDbEntity
  8
0
100
AcDbBlockBegin
  2
alus
 70
0
 10
0.0
 20
0.0
 30
0.0
  3
alus
  1

  0
CIRCLE
  5
46
100
AcDbEntity
100
AcDbCircle
  8
ALU
 62
256
370
-1
  6
ByLayer
 10
134.3221057457249117
 20
81.7984618043240062
 30
0.0
 40
8.0
  0
CIRCLE
  5
47
100
AcDbEntity
100
AcDbCircle
  8
ALU
 62
256
370
-1
  6
ByLayer
 10
164.3221057457249117
 20
81.7984618043240062
 30
0.0
 40
8.0
  0
CIRCLE
  5
48
100
AcDbEntity
100
AcDbCircle
  8
ALU
 62
256
370
-1
  6
ByLayer
 10
149.3221057457250254
 20
64.7984618043240062
 30
0.0
 40
8.0
  0
CIRCLE
  5
49
100
AcDbEntity
100
AcDbCircle
  8
ALU
 62
256
370
-1
  6
ByLayer
 10
134.3221057457249117
 20
49.7984618043241198
 30
0.0
 40
8.0
  0
CIRCLE
  5
4A
100
AcDbEntity
100
AcDbCircle
  8
ALU
 62
256
370
-1
  6
ByLayer
 10
149.3221057457250254
 20
34.7984618043242335
 30
0.0
 40
8.0
  0
CIRCLE
  5
4B
100
AcDbEntity
100
AcDbCircle
  8
ALU
 62
256
370
-1
  6
ByLayer
 10
164.3221057457249117
 20
49.7984618043241198
 30
0.0
 40
8.0
  0
LWPOLYLINE
  5
4C
  8
ALU
 62
256
370
-1
  6
ByLayer
100
AcDbEntity
100
AcDbPolyline
 90
4
 70
1
 10
133.3221057457249117
 20
103.1323566992648466
 10
165.3221057457250254
 20
103.1323566992648466
 10
165.3221057457250254
 20
127.1323566992648466
 10
133.3221057457249117
 20
127.1323566992648466
  0
LINE
  5
4D
100
AcDbEntity
100
AcDbLine
  8
ALU
 62
256
370
-1
  6
ByLayer
 10
191.3828977840198604
 20
88.0
 30
0.0
 11
191.3828977840198604
 21
94.0
 31
0.0
  0
LINE
  5
4E
100
AcDbEntity
100
AcDbLine
  8
ALU
 62
256
370
-1
  6
ByLayer
 10
199.3828977840199741
 20
88.0
 30
0.0
 11
199.3828977840199741
 21
94.0
 31
0.0
  0
ELLIPSE
  5
4F
100
AcDbEntity
100
AcDbEllipse
  8
ALU
 62
256
370
-1
  6
ByLayer
 10
195.3828977840199741
 20
88.0
 30
0.0
 11
-4.0
 21
0.0000000000000002
 31
0.0
 40
0.75
 41
0.0
 42
3.1415926535897931
  0
ELLIPSE
  5
50
100
AcDbEntity
100
AcDbEllipse
  8
ALU
 62
256
370
-1
  6
ByLayer
 10
195.3828977840199741
 20
94.0
 30
0.0
 11
-4.0
 21
0.0000000000000002
 31
0.0
 40
0.75
 41
3.1415926535897931
 42
6.2831853071795862
  0
LINE
  5
51
100
AcDbEntity
100
AcDbLine
  8
ALU
 62
256
370
-1
  6
ByLayer
 10
190.3828977840199741
 20
103.0
 30
0.0
 11
190.3828977840199741
 21
109.0
 31
0.0
  0
LINE
  5
52
100
AcDbEntity
100
AcDbLine
  8
ALU
 62
256
370
-1
  6
ByLayer
 10
198.3828977840199741
 20
103.0
 30
0.0
 11
198.3828977840199741
 21
109.0
 31
0.0
  0
ELLIPSE
  5
53
100
AcDbEntity
100
AcDbEllipse
  8
ALU
 62
256
370
-1
  6
ByLayer
 10
194.3828977840200878
 20
103.0
 30
0.0
 11
-4.0
 21
0.0000000000000002
 31
0.0
 40
0.75
 41
0.0
 42
3.1415926535897931
  0
ELLIPSE
  5
54
100
AcDbEntity
100
AcDbEllipse
  8
ALU
 62
256
370
-1
  6
ByLayer
 10
194.3828977840200878
 20
109.0
 30
0.0
 11
-4.0
 21
0.0000000000000002
 31
0.0
 40
0.75
 41
3.1415926535897931
 42
6.2831853071795862
  0
LINE
  5
55
100
AcDbEntity
100
AcDbLine
  8
ALU
 62
256
370
-1
  6
ByLayer
 10
188.8828977840198604
 20
117.0
 30
0.0
 11
188.8828977840198604
 21
123.0
 31
0.0
  0
LINE
  5
56
100
AcDbEntity
100
AcDbLine
  8
ALU
 62
256
370
-1
  6
ByLayer
 10
196.8828977840198604
 20
117.0
 30
0.0
 11
196.8828977840198604
 21
123.0
 31
0.0
  0
ELLIPSE
  5
57
100
AcDbEntity
100
AcDbEllipse
  8
ALU
 62
256
370
-1
  6
ByLayer
 10
192.8828977840199741
 20
117.0
 30
0.0
 11
-4.0
 21
0.0000000000000002
 31
0.0
 40
0.75
 41
0.0
 42
3.1415926535897931
  0
ELLIPSE
  5
58
100
AcDbEntity
100
AcDbEllipse
  8
ALU
 62
256
370
-1
  6
ByLayer
 10
192.8828977840199741
 20
123.0
 30
0.0
 11
-4.0
 21
0.0000000000000002
 31
0.0
 40
0.75
 41
3.1415926535897931
 42
6.2831853071795862
  0
LINE
  5
59
100
AcDbEntity
100
AcDbLine
  8
ALU
 62
256
370
-1
  6
ByLayer
 10
191.3828977840198604
 20
56.0
 30
0.0
 11
191.3828977840198604
 21
62.0
 31
0.0
  0
LINE
  5
5A
100
AcDbEntity
100
AcDbLine
  8
ALU
 62
256
370
-1
  6
ByLayer
 10
199.3828977840199741
 20
56.0
 30
0.0
 11
199.3828977840199741
 21
62.0
 31
0.0
  0
ELLIPSE
  5
5B
100
AcDbEntity
100
AcDbEllipse
  8
ALU
 62
256
370
-1
  6
ByLayer
 10
195.3828977840199741
 20
56.0
 30
0.0
 11
-4.0
 21
0.0000000000000002
 31
0.0
 40
0.75
 41
0.0
 42
3.1415926535897931
  0
ELLIPSE
  5
5C
100
AcDbEntity
100
AcDbEllipse
  8
ALU
 62
256
370
-1
  6
ByLayer
 10
195.3828977840199741
 20
62.0
 30
0.0
 11
-4.0
 21
0.0000000000000002
 31
0.0
 40
0.75
 41
3.1415926535897931
 42
6.2831853071795862
  0
LINE
  5
5D
100
AcDbEntity
100
AcDbLine
  8
ALU
 62
256
370
-1
  6
ByLayer
 10
190.3828977840199741
 20
41.0000000000004547
 30
0.0
 11
190.3828977840199741
 21
47.0000000000005684
 31
0.0
  0
LINE
  5
5E
100
AcDbEntity
100
AcDbLine
  8
ALU
 62
256
370
-1
  6
ByLayer
 10
198.3828977840199741
 20
41.0000000000004547
 30
0.0
 11
198.3828977840199741
 21
47.0000000000005684
 31
0.0
  0
ELLIPSE
  5
5F
100
AcDbEntity
100
AcDbEllipse
  8
ALU
 62
256
370
-1
  6
ByLayer
 10
194.3828977840200878
 20
41.0000000000004547
 30
0.0
 11
-4.0
 21
0.0000000000000002
 31
0.0
 40
0.75
 41
0.0
 42
3.1415926535897931
  0
ELLIPSE
  5
60
100
AcDbEntity
100
AcDbEllipse
  8
ALU
 62
256
370
-1
  6
ByLayer
 10
194.3828977840200878
 20
47.0000000000005684
 30
0.0
 11
-4.0
 21
0.0000000000000002
 31
0.0
 40
0.75
 41
3.1415926535897931
 42
6.2831853071795862
  0
LINE
  5
61
100
AcDbEntity
100
AcDbLine
  8
ALU
 62
256
370
-1
  6
ByLayer
 10
188.8828977840198604
 20
27.0000000000005684
 30
0.0
 11
188.8828977840198604
 21
33.0000000000006821
 31
0.0
  0
LINE
  5
62
100
AcDbEntity
100
AcDbLine
  8
ALU
 62
256
370
-1
  6
ByLayer
 10
196.8828977840198604
 20
27.0000000000005684
 30
0.0
 11
196.8828977840198604
 21
33.0000000000006821
 31
0.0
  0
ELLIPSE
  5
63
100
AcDbEntity
100
AcDbEllipse
  8
ALU
 62
256
370
-1
  6
ByLayer
 10
192.8828977840199741
 20
27.0000000000005684
 30
0.0
 11
-4.0
 21
0.0000000000000002
 31
0.0
 40
0.75
 41
0.0
 42
3.1415926535897931
  0
ELLIPSE
  5
64
100
AcDbEntity
100
AcDbEllipse
  8
ALU
 62
256
370
-1
  6
ByLayer
 10
192.8828977840199741
 20
33.0000000000006821
 30
0.0
 11
-4.0
 21
0.0000000000000002
 31
0.0
 40
0.75
 41
3.1415926535897931
 42
6.2831853071795862
  0
CIRCLE
  5
65
100
AcDbEntity
100
AcDbCircle
  8
ALU
 62
256
370
-1
  6
ByLayer
 10
188.8828977840200878
 20
16.0000000000004547
 30
0.0
 40
2.5
  0
LINE
  5
66
100
AcDbEntity
100
AcDbLine
  8
ALU
 62
256
370
-1
  6
ByLayer
 10
191.8828977840199741
 20
72.0
 30
0.0
 11
191.8828977840199741
 21
78.0
 31
0.0
  0
LINE
  5
67
100
AcDbEntity
100
AcDbLine
  8
ALU
 62
256
370
-1
  6
ByLayer
 10
199.8828977840199741
 20
72.0
 30
0.0
 11
199.8828977840199741
 21
78.0
 31
0.0
  0
ELLIPSE
  5
68
100
AcDbEntity
100
AcDbEllipse
  8
ALU
 62
256
370
-1
  6
ByLayer
 10
195.8828977840198604
 20
72.0
 30
0.0
 11
-4.0
 21
0.0000000000000002
 31
0.0
 40
0.75
 41
0.0
 42
3.1415926535897931
  0
ELLIPSE
  5
69
100
AcDbEntity
100
AcDbEllipse
  8
ALU
 62
256
370
-1
  6
ByLayer
 10
195.8828977840198604
 20
78.0
 30
0.0
 11
-4.0
 21
0.0000000000000002
 31
0.0
 40
0.75
 41
3.1415926535897931
 42
6.2831853071795862
  0
ARC
  5
6A
100
AcDbEntity
  8
ALU
 62
256
370
-1
  6
ByLayer
100
AcDbCircle
 10
-189.6171022159891209
 20
75.0000000000001137
 30
0.0
 40
400.5000000000089244
100
AcDbArc
 50
349.2067309089127889
 51
10.7932690910871365
  0
ARC
  5
6B
100
AcDbEntity
  8
ALU
 62
256
370
-1
  6
ByLayer
100
AcDbCircle
 10
0.0
 20
75.0
 30
0.0
 40
75.0
100
AcDbArc
 50
90.0
 51
270.0
  0
LINE
  5
6C
100
AcDbEntity
100
AcDbLine
  8
ALU
 62
256
370
-1
  6
ByLayer
 10
0.0
 20
0.0
 30
0.0
 11
203.7977551547095345
 21
0.0
 31
0.0
  0
LINE
  5
6D
100
AcDbEntity
100
AcDbLine
  8
ALU
 62
256
370
-1
  6
ByLayer
 10
0.0
 20
150.0
 30
0.0
 11
203.7977551547095345
 21
150.0
 31
0.0
  0
CIRCLE
  5
6E
100
AcDbEntity
100
AcDbCircle
  8
ALU
 62
256
370
-1
  6
ByLayer
 10
0.0
 20
75.0
 30
0.0
 40
55.1000000000000014
  0
CIRCLE
  5
6F
100
AcDbEntity
100
AcDbCircle
  8
ALU
 62
256
370
-1
  6
ByLayer
 10
-15.0000000000001137
 20
92.0
 30
0.0
 40
6.0
  0
CIRCLE
  5
70
100
AcDbEntity
100
AcDbCircle
  8
ALU
 62
256
370
-1
  6
ByLayer
 10
14.9999999999998863
 20
92.0
 30
0.0
 40
6.0
  0
CIRCLE
  5
71
100
AcDbEntity
100
AcDbCircle
  8
ALU
 62
256
370
-1
  6
ByLayer
 10
0.0
 20
75.0
 30
0.0
 40
6.0
  0
CIRCLE
  5
72
100
AcDbEntity
100
AcDbCircle
  8
ALU
 62
256
370
-1
  6
ByLayer
 10
-15.0000000000001137
 20
60.0000000000001137
 30
0.0
 40
6.0
  0
CIRCLE
  5
73
100
AcDbEntity
100
AcDbCircle
  8
ALU
 62
256
370
-1
  6
ByLayer
 10
0.0
 20
45.0000000000002274
 30
0.0
 40
6.0
  0
CIRCLE
  5
74
100
AcDbEntity
100
AcDbCircle
  8
ALU
 62
256
370
-1
  6
ByLayer
 10
14.9999999999998863
 20
60.0000000000001137
 30
0.0
 40
6.0
  0
LINE
  5
75
100
AcDbEntity
100
AcDbLine
  8
ALU
 62
256
370
-1
  6
ByLayer
 10
219.7698533080755396
 20
86.6522799222461799
 30
0.0
 11
219.7698533080755396
 21
92.6522799222461799
 31
0.0
  0
LINE
  5
76
100
AcDbEntity
100
AcDbLine
  8
ALU
 62
256
370
-1
  6
ByLayer
 10
225.769853308075767
 20
86.6522799222461799
 30
0.0
 11
225.769853308075767
 21
92.6522799222461799
 31
0.0
  0
SPLINE
  5
77
  8
ALU
 62
256
370
-1
  6
ByLayer
100
AcDbEntity
100
AcDbSpline
 70
8
 71
3
 72
24
 73
20
 74
0
 40
0.0
 40
0.0
 40
0.0
 40
0.0
 40
0.0588235294117647
 40
0.1176470588235294
 40
0.1764705882352941
 40
0.2352941176470588
 40
0.2941176470588235
 40
0.3529411764705883
 40
0.4117647058823529
 40
0.4705882352941176
 40
0.5294117647058824
 40
0.5882352941176471
 40
0.6470588235294118
 40
0.7058823529411765
 40
0.7647058823529411
 40
0.8235294117647058
 40
0.8823529411764706
 40
0.9411764705882353
 40
1.0
 40
1.0
 40
1.0
 40
1.0
 10
219.7698533080755396
 20
86.6522799222461799
 30
0.0
 10
219.7698533080755396
 20
86.4527487186555845
 30
0.0
 10
219.8161681229729538
 20
86.2514733173470631
 30
0.0
 10
220.0224232016474843
 20
85.8394463524714411
 30
0.0
 10
220.184828715367189
 20
85.6295178845962255
 30
0.0
 10
220.6339045248449793
 20
85.244193443169479
 30
0.0
 10
220.9201626452012306
 20
85.0702758385946254
 30
0.0
 10
221.5790474438421143
 20
84.8045787147334522
 30
0.0
 10
221.950963910039377
 20
84.7130861078994712
 30
0.0
 10
222.720031275969518
 20
84.6352280607511602
 30
0.0
 10
223.1167066043873319
 20
84.6488772040816002
 30
0.0
 10
223.8693893596483804
 20
84.7780709073003891
 30
0.0
 10
224.2248833624063309
 20
84.8935780890601563
 30
0.0
 10
224.8382449493584545
 20
85.1976993025873526
 30
0.0
 10
225.0953441331997738
 20
85.3858290533330546
 30
0.0
 10
225.4826505141880943
 20
85.7863295844063032
 30
0.0
 10
225.6129454691368892
 20
85.9969020399853434
 30
0.0
 10
225.7437500191446134
 20
86.3536736624364494
 30
0.0
 10
225.769853308075767
 20
86.5032002989842113
 30
0.0
 10
225.769853308075767
 20
86.6522799222461799
 30
0.0
  0
SPLINE
  5
78
  8
ALU
 62
256
370
-1
  6
ByLayer
100
AcDbEntity
100
AcDbSpline
 70
8
 71
3
 72
24
 73
20
 74
0
 40
0.0
 40
0.0
 40
0.0
 40
0.0
 40
0.0588235294117647
 40
0.1176470588235294
 40
0.1764705882352941
 40
0.2352941176470588
 40
0.2941176470588235
 40
0.3529411764705883
 40
0.4117647058823529
 40
0.4705882352941176
 40
0.5294117647058824
 40
0.5882352941176471
 40
0.6470588235294118
 40
0.7058823529411765
 40
0.7647058823529411
 40
0.8235294117647058
 40
0.8823529411764706
 40
0.9411764705882353
 40
1.0
 40
1.0
 40
1.0
 40
1.0
 10
225.769853308075767
 20
92.6522799222461799
 30
0.0
 10
225.769853308075767
 20
92.8518111258385943
 30
0.0
 10
225.7235384931783528
 20
93.0530865271452967
 30
0.0
 10
225.5172834145035949
 20
93.4651134920213735
 30
0.0
 10
225.3548779007836629
 20
93.6750419598961344
 30
0.0
 10
224.9058020913061
 20
94.0603664013233356
 30
0.0
 10
224.619543970949394
 20
94.2342840058995534
 30
0.0
 10
223.960659172308965
 20
94.4999811297602719
 30
0.0
 10
223.5887427061114749
 20
94.5914737365942528
 30
0.0
 10
222.8196753401811065
 20
94.6693317837411996
 30
0.0
 10
222.42300001176352
 20
94.6556826404116691
 30
0.0
 10
221.6703172565022442
 20
94.526488937193335
 30
0.0
 10
221.314823253744521
 20
94.4109817554322035
 30
0.0
 10
220.7014616667923974
 20
94.106860541905462
 30
0.0
 10
220.4443624829508508
 20
93.9187307911602147
 30
0.0
 10
220.0570561019627576
 20
93.5182302600874209
 30
0.0
 10
219.9267611470144175
 20
93.3076578045083807
 30
0.0
 10
219.7959565970064659
 20
92.9508861820563652
 30
0.0
 10
219.7698533080755396
 20
92.8013595455081486
 30
0.0
 10
219.7698533080755396
 20
92.6522799222461799
 30
0.0
  0
LINE
  5
79
100
AcDbEntity
100
AcDbLine
  8
ALU
 62
256
370
-1
  6
ByLayer
 10
218.7698533080755396
 20
101.6522799222461799
 30
0.0
 11
218.7698533080755396
 21
107.6522799222461799
 31
0.0
  0
LINE
  5
7A
100
AcDbEntity
100
AcDbLine
  8
ALU
 62
256
370
-1
  6
ByLayer
 10
224.769853308075767
 20
101.6522799222461799
 30
0.0
 11
224.769853308075767
 21
107.6522799222461799
 31
0.0
  0
SPLINE
  5
7B
  8
ALU
 62
256
370
-1
  6
ByLayer
100
AcDbEntity
100
AcDbSpline
 70
8
 71
3
 72
24
 73
20
 74
0
 40
0.0
 40
0.0
 40
0.0
 40
0.0
 40
0.0588235294117647
 40
0.1176470588235294
 40
0.1764705882352941
 40
0.2352941176470588
 40
0.2941176470588235
 40
0.3529411764705883
 40
0.4117647058823529
 40
0.4705882352941176
 40
0.5294117647058824
 40
0.5882352941176471
 40
0.6470588235294118
 40
0.7058823529411765
 40
0.7647058823529411
 40
0.8235294117647058
 40
0.8823529411764706
 40
0.9411764705882353
 40
1.0
 40
1.0
 40
1.0
 40
1.0
 10
218.7698533080755396
 20
101.6522799222461799
 30
0.0
 10
218.7698533080755396
 20
101.4527487186555845
 30
0.0
 10
218.8161681229729538
 20
101.2514733173470631
 30
0.0
 10
219.0224232016474843
 20
100.8394463524714411
 30
0.0
 10
219.184828715367189
 20
100.6295178845962255
 30
0.0
 10
219.6339045248449793
 20
100.244193443169479
 30
0.0
 10
219.9201626452012306
 20
100.0702758385946254
 30
0.0
 10
220.5790474438421143
 20
99.8045787147334522
 30
0.0
 10
220.9509639100396043
 20
99.7130861078994712
 30
0.0
 10
221.720031275969518
 20
99.6352280607511602
 30
0.0
 10
222.1167066043873319
 20
99.6488772040816002
 30
0.0
 10
222.8693893596483804
 20
99.7780709073003891
 30
0.0
 10
223.2248833624063309
 20
99.8935780890601563
 30
0.0
 10
223.8382449493584545
 20
100.1976993025873526
 30
0.0
 10
224.0953441331997738
 20
100.3858290533330546
 30
0.0
 10
224.4826505141883217
 20
100.7863295844053937
 30
0.0
 10
224.6129454691368892
 20
100.9969020399844339
 30
0.0
 10
224.7437500191446134
 20
101.3536736624364494
 30
0.0
 10
224.769853308075767
 20
101.5032002989842113
 30
0.0
 10
224.769853308075767
 20
101.6522799222461799
 30
0.0
  0
SPLINE
  5
7C
  8
ALU
 62
256
370
-1
  6
ByLayer
100
AcDbEntity
100
AcDbSpline
 70
8
 71
3
 72
24
 73
20
 74
0
 40
0.0
 40
0.0
 40
0.0
 40
0.0
 40
0.0588235294117647
 40
0.1176470588235294
 40
0.1764705882352941
 40
0.2352941176470588
 40
0.2941176470588235
 40
0.3529411764705883
 40
0.4117647058823529
 40
0.4705882352941176
 40
0.5294117647058824
 40
0.5882352941176471
 40
0.6470588235294118
 40
0.7058823529411765
 40
0.7647058823529411
 40
0.8235294117647058
 40
0.8823529411764706
 40
0.9411764705882353
 40
1.0
 40
1.0
 40
1.0
 40
1.0
 10
224.769853308075767
 20
107.6522799222461799
 30
0.0
 10
224.769853308075767
 20
107.8518111258385943
 30
0.0
 10
224.7235384931783528
 20
108.0530865271452967
 30
0.0
 10
224.5172834145035949
 20
108.4651134920213735
 30
0.0
 10
224.3548779007836629
 20
108.6750419598961344
 30
0.0
 10
223.9058020913061
 20
109.0603664013246998
 30
0.0
 10
223.619543970949394
 20
109.2342840058995534
 30
0.0
 10
222.960659172308965
 20
109.4999811297602719
 30
0.0
 10
222.5887427061114749
 20
109.5914737365942528
 30
0.0
 10
221.8196753401811065
 20
109.6693317837411996
 30
0.0
 10
221.42300001176352
 20
109.6556826404116691
 30
0.0
 10
220.6703172565022442
 20
109.526488937193335
 30
0.0
 10
220.3148232537447484
 20
109.4109817554322035
 30
0.0
 10
219.7014616667923974
 20
109.106860541905462
 30
0.0
 10
219.4443624829508508
 20
108.9187307911602147
 30
0.0
 10
219.0570561019627576
 20
108.5182302600874209
 30
0.0
 10
218.9267611470139627
 20
108.3076578045083807
 30
0.0
 10
218.7959565970064659
 20
107.9508861820563652
 30
0.0
 10
218.7698533080755396
 20
107.8013595455081486
 30
0.0
 10
218.7698533080755396
 20
107.6522799222461799
 30
0.0
  0
LINE
  5
7D
100
AcDbEntity
100
AcDbLine
  8
ALU
 62
256
370
-1
  6
ByLayer
 10
217.2698533080755396
 20
115.6522799222461799
 30
0.0
 11
217.2698533080755396
 21
121.6522799222461799
 31
0.0
  0
LINE
  5
7E
100
AcDbEntity
100
AcDbLine
  8
ALU
 62
256
370
-1
  6
ByLayer
 10
223.2698533080755396
 20
115.6522799222461799
 30
0.0
 11
223.2698533080755396
 21
121.6522799222461799
 31
0.0
  0
SPLINE
  5
7F
  8
ALU
 62
256
370
-1
  6
ByLayer
100
AcDbEntity
100
AcDbSpline
 70
8
 71
3
 72
24
 73
20
 74
0
 40
0.0
 40
0.0
 40
0.0
 40
0.0
 40
0.0588235294117647
 40
0.1176470588235294
 40
0.1764705882352941
 40
0.2352941176470588
 40
0.2941176470588235
 40
0.3529411764705883
 40
0.4117647058823529
 40
0.4705882352941176
 40
0.5294117647058824
 40
0.5882352941176471
 40
0.6470588235294118
 40
0.7058823529411765
 40
0.7647058823529411
 40
0.8235294117647058
 40
0.8823529411764706
 40
0.9411764705882353
 40
1.0
 40
1.0
 40
1.0
 40
1.0
 10
217.2698533080755396
 20
115.6522799222461799
 30
0.0
 10
217.2698533080755396
 20
115.4527487186555845
 30
0.0
 10
217.3161681229729538
 20
115.2514733173470631
 30
0.0
 10
217.5224232016474843
 20
114.8394463524714411
 30
0.0
 10
217.6848287153669617
 20
114.6295178845962255
 30
0.0
 10
218.1339045248449793
 20
114.244193443169479
 30
0.0
 10
218.420162645201458
 20
114.0702758385946254
 30
0.0
 10
219.0790474438421143
 20
113.8045787147334522
 30
0.0
 10
219.450963910039377
 20
113.7130861078994712
 30
0.0
 10
220.220031275969518
 20
113.6352280607511602
 30
0.0
 10
220.6167066043871046
 20
113.6488772040816002
 30
0.0
 10
221.369389359648153
 20
113.7780709073003891
 30
0.0
 10
221.7248833624063309
 20
113.8935780890601563
 30
0.0
 10
222.3382449493584545
 20
114.1976993025873526
 30
0.0
 10
222.5953441331997738
 20
114.3858290533330546
 30
0.0
 10
222.9826505141880943
 20
114.7863295844053937
 30
0.0
 10
223.1129454691366618
 20
114.9969020399844339
 30
0.0
 10
223.2437500191446134
 20
115.3536736624364494
 30
0.0
 10
223.2698533080755396
 20
115.5032002989842113
 30
0.0
 10
223.2698533080755396
 20
115.6522799222461799
 30
0.0
  0
SPLINE
  5
80
  8
ALU
 62
256
370
-1
  6
ByLayer
100
AcDbEntity
100
AcDbSpline
 70
8
 71
3
 72
24
 73
20
 74
0
 40
0.0
 40
0.0
 40
0.0
 40
0.0
 40
0.0588235294117647
 40
0.1176470588235294
 40
0.1764705882352941
 40
0.2352941176470588
 40
0.2941176470588235
 40
0.3529411764705883
 40
0.4117647058823529
 40
0.4705882352941176
 40
0.5294117647058824
 40
0.5882352941176471
 40
0.6470588235294118
 40
0.7058823529411765
 40
0.7647058823529411
 40
0.8235294117647058
 40
0.8823529411764706
 40
0.9411764705882353
 40
1.0
 40
1.0
 40
1.0
 40
1.0
 10
223.2698533080755396
 20
121.6522799222461799
 30
0.0
 10
223.2698533080755396
 20
121.8518111258385943
 30
0.0
 10
223.2235384931783528
 20
122.0530865271462062
 30
0.0
 10
223.0172834145038223
 20
122.4651134920213735
 30
0.0
 10
222.8548779007841176
 20
122.6750419598961344
 30
0.0
 10
222.4058020913061
 20
123.0603664013233356
 30
0.0
 10
222.1195439709496213
 20
123.2342840058995534
 30
0.0
 10
221.460659172308965
 20
123.4999811297602719
 30
0.0
 10
221.0887427061114749
 20
123.5914737365942528
 30
0.0
 10
220.3196753401813339
 20
123.6693317837411996
 30
0.0
 10
219.92300001176352
 20
123.6556826404116691
 30
0.0
 10
219.1703172565020168
 20
123.526488937193335
 30
0.0
 10
218.814823253744521
 20
123.4109817554322035
 30
0.0
 10
218.2014616667923974
 20
123.106860541905462
 30
0.0
 10
217.9443624829513055
 20
122.9187307911602147
 30
0.0
 10
217.5570561019627576
 20
122.5182302600874209
 30
0.0
 10
217.4267611470141901
 20
122.3076578045083807
 30
0.0
 10
217.2959565970062386
 20
121.9508861820563652
 30
0.0
 10
217.2698533080755396
 20
121.8013595455081486
 30
0.0
 10
217.2698533080755396
 20
121.6522799222461799
 30
0.0
  0
LINE
  5
81
100
AcDbEntity
100
AcDbLine
  8
ALU
 62
256
370
-1
  6
ByLayer
 10
219.7698533080755396
 20
54.6522799222464073
 30
0.0
 11
219.7698533080755396
 21
60.6522799222464073
 31
0.0
  0
LINE
  5
82
100
AcDbEntity
100
AcDbLine
  8
ALU
 62
256
370
-1
  6
ByLayer
 10
225.769853308075767
 20
54.6522799222464073
 30
0.0
 11
225.769853308075767
 21
60.6522799222464073
 31
0.0
  0
SPLINE
  5
83
  8
ALU
 62
256
370
-1
  6
ByLayer
100
AcDbEntity
100
AcDbSpline
 70
8
 71
3
 72
24
 73
20
 74
0
 40
0.0
 40
0.0
 40
0.0
 40
0.0
 40
0.0588235294117647
 40
0.1176470588235294
 40
0.1764705882352941
 40
0.2352941176470588
 40
0.2941176470588235
 40
0.3529411764705883
 40
0.4117647058823529
 40
0.4705882352941176
 40
0.5294117647058824
 40
0.5882352941176471
 40
0.6470588235294118
 40
0.7058823529411765
 40
0.7647058823529411
 40
0.8235294117647058
 40
0.8823529411764706
 40
0.9411764705882353
 40
1.0
 40
1.0
 40
1.0
 40
1.0
 10
219.7698533080755396
 20
54.6522799222464073
 30
0.0
 10
219.7698533080755396
 20
54.4527487186553572
 30
0.0
 10
219.8161681229729538
 20
54.2514733173475179
 30
0.0
 10
220.0224232016474843
 20
53.8394463524714411
 30
0.0
 10
220.184828715367189
 20
53.6295178845962255
 30
0.0
 10
220.6339045248449793
 20
53.2441934431699337
 30
0.0
 10
220.9201626452012306
 20
53.070275838594398
 30
0.0
 10
221.5790474438421143
 20
52.8045787147329975
 30
0.0
 10
221.950963910039377
 20
52.713086107899926
 30
0.0
 10
222.720031275969518
 20
52.6352280607518423
 30
0.0
 10
223.1167066043873319
 20
52.648877204082055
 30
0.0
 10
223.8693893596483804
 20
52.7780709073006165
 30
0.0
 10
224.2248833624063309
 20
52.8935780890610658
 30
0.0
 10
224.8382449493584545
 20
53.1976993025880347
 30
0.0
 10
225.0953441331997738
 20
53.3858290533330546
 30
0.0
 10
225.4826505141880943
 20
53.7863295844063032
 30
0.0
 10
225.6129454691368892
 20
53.9969020399853434
 30
0.0
 10
225.7437500191446134
 20
54.3536736624364494
 30
0.0
 10
225.769853308075767
 20
54.5032002989842113
 30
0.0
 10
225.769853308075767
 20
54.6522799222464073
 30
0.0
  0
SPLINE
  5
84
  8
ALU
 62
256
370
-1
  6
ByLayer
100
AcDbEntity
100
AcDbSpline
 70
8
 71
3
 72
24
 73
20
 74
0
 40
0.0
 40
0.0
 40
0.0
 40
0.0
 40
0.0588235294117647
 40
0.1176470588235294
 40
0.1764705882352941
 40
0.2352941176470588
 40
0.2941176470588235
 40
0.3529411764705883
 40
0.4117647058823529
 40
0.4705882352941176
 40
0.5294117647058824
 40
0.5882352941176471
 40
0.6470588235294118
 40
0.7058823529411765
 40
0.7647058823529411
 40
0.8235294117647058
 40
0.8823529411764706
 40
0.9411764705882353
 40
1.0
 40
1.0
 40
1.0
 40
1.0
 10
225.769853308075767
 20
60.6522799222464073
 30
0.0
 10
225.769853308075767
 20
60.8518111258383669
 30
0.0
 10
225.7235384931783528
 20
61.0530865271462062
 30
0.0
 10
225.5172834145035949
 20
61.4651134920213735
 30
0.0
 10
225.3548779007836629
 20
61.6750419598963617
 30
0.0
 10
224.9058020913061
 20
62.0603664013242451
 30
0.0
 10
224.619543970949394
 20
62.2342840058993261
 30
0.0
 10
223.960659172308965
 20
62.4999811297614087
 30
0.0
 10
223.5887427061114749
 20
62.5914737365942528
 30
0.0
 10
222.8196753401811065
 20
62.6693317837411996
 30
0.0
 10
222.42300001176352
 20
62.6556826404112144
 30
0.0
 10
221.6703172565022442
 20
62.526488937193335
 30
0.0
 10
221.314823253744521
 20
62.4109817554322035
 30
0.0
 10
220.7014616667923974
 20
62.106860541905462
 30
0.0
 10
220.4443624829508508
 20
61.9187307911602147
 30
0.0
 10
220.0570561019627576
 20
61.5182302600874209
 30
0.0
 10
219.9267611470144175
 20
61.3076578045083807
 30
0.0
 10
219.7959565970064659
 20
60.9508861820563652
 30
0.0
 10
219.7698533080755396
 20
60.801359545508376
 30
0.0
 10
219.7698533080755396
 20
60.6522799222464073
 30
0.0
  0
LINE
  5
85
100
AcDbEntity
100
AcDbLine
  8
ALU
 62
256
370
-1
  6
ByLayer
 10
218.7698533080755396
 20
39.652279922246862
 30
0.0
 11
218.7698533080755396
 21
45.6522799222470894
 31
0.0
  0
LINE
  5
86
100
AcDbEntity
100
AcDbLine
  8
ALU
 62
256
370
-1
  6
ByLayer
 10
224.769853308075767
 20
39.652279922246862
 30
0.0
 11
224.769853308075767
 21
45.6522799222470894
 31
0.0
  0
SPLINE
  5
87
  8
ALU
 62
256
370
-1
  6
ByLayer
100
AcDbEntity
100
AcDbSpline
 70
8
 71
3
 72
24
 73
20
 74
0
 40
0.0
 40
0.0
 40
0.0
 40
0.0
 40
0.0588235294117647
 40
0.1176470588235294
 40
0.1764705882352941
 40
0.2352941176470588
 40
0.2941176470588235
 40
0.3529411764705883
 40
0.4117647058823529
 40
0.4705882352941176
 40
0.5294117647058824
 40
0.5882352941176471
 40
0.6470588235294118
 40
0.7058823529411765
 40
0.7647058823529411
 40
0.8235294117647058
 40
0.8823529411764706
 40
0.9411764705882353
 40
1.0
 40
1.0
 40
1.0
 40
1.0
 10
218.7698533080755396
 20
39.652279922246862
 30
0.0
 10
218.7698533080755396
 20
39.4527487186555845
 30
0.0
 10
218.8161681229729538
 20
39.2514733173477453
 30
0.0
 10
219.0224232016474843
 20
38.8394463524718958
 30
0.0
 10
219.184828715367189
 20
38.6295178845969076
 30
0.0
 10
219.6339045248449793
 20
38.2441934431699337
 30
0.0
 10
219.9201626452012306
 20
38.0702758385946254
 30
0.0
 10
220.5790474438421143
 20
37.8045787147329975
 30
0.0
 10
220.9509639100396043
 20
37.713086107899926
 30
0.0
 10
221.720031275969518
 20
37.6352280607520697
 30
0.0
 10
222.1167066043873319
 20
37.6488772040818276
 30
0.0
 10
222.8693893596483804
 20
37.7780709073008438
 30
0.0
 10
223.2248833624063309
 20
37.8935780890610658
 30
0.0
 10
223.8382449493584545
 20
38.1976993025882621
 30
0.0
 10
224.0953441331997738
 20
38.3858290533330546
 30
0.0
 10
224.4826505141883217
 20
38.7863295844063032
 30
0.0
 10
224.6129454691368892
 20
38.9969020399851161
 30
0.0
 10
224.7437500191446134
 20
39.3536736624369041
 30
0.0
 10
224.769853308075767
 20
39.5032002989851208
 30
0.0
 10
224.769853308075767
 20
39.652279922246862
 30
0.0
  0
SPLINE
  5
88
  8
ALU
 62
256
370
-1
  6
ByLayer
100
AcDbEntity
100
AcDbSpline
 70
8
 71
3
 72
24
 73
20
 74
0
 40
0.0
 40
0.0
 40
0.0
 40
0.0
 40
0.0588235294117647
 40
0.1176470588235294
 40
0.1764705882352941
 40
0.2352941176470588
 40
0.2941176470588235
 40
0.3529411764705883
 40
0.4117647058823529
 40
0.4705882352941176
 40
0.5294117647058824
 40
0.5882352941176471
 40
0.6470588235294118
 40
0.7058823529411765
 40
0.7647058823529411
 40
0.8235294117647058
 40
0.8823529411764706
 40
0.9411764705882353
 40
1.0
 40
1.0
 40
1.0
 40
1.0
 10
224.769853308075767
 20
45.6522799222470894
 30
0.0
 10
224.769853308075767
 20
45.8518111258385943
 30
0.0
 10
224.7235384931783528
 20
46.0530865271459788
 30
0.0
 10
224.5172834145035949
 20
46.4651134920218283
 30
0.0
 10
224.3548779007836629
 20
46.6750419598968165
 30
0.0
 10
223.9058020913061
 20
47.0603664013242451
 30
0.0
 10
223.619543970949394
 20
47.2342840058995534
 30
0.0
 10
222.960659172308965
 20
47.4999811297611814
 30
0.0
 10
222.5887427061114749
 20
47.5914737365942528
 30
0.0
 10
221.8196753401811065
 20
47.6693317837421091
 30
0.0
 10
221.42300001176352
 20
47.6556826404121239
 30
0.0
 10
220.6703172565022442
 20
47.5264889371931076
 30
0.0
 10
220.3148232537447484
 20
47.410981755433113
 30
0.0
 10
219.7014616667923974
 20
47.1068605419052346
 30
0.0
 10
219.4443624829508508
 20
46.9187307911606695
 30
0.0
 10
219.0570561019627576
 20
46.5182302600874209
 30
0.0
 10
218.9267611470139627
 20
46.3076578045083807
 30
0.0
 10
218.7959565970064659
 20
45.95088618205682
 30
0.0
 10
218.7698533080755396
 20
45.8013595455088307
 30
0.0
 10
218.7698533080755396
 20
45.6522799222470894
 30
0.0
  0
LINE
  5
89
100
AcDbEntity
100
AcDbLine
  8
ALU
 62
256
370
-1
  6
ByLayer
 10
217.2698533080755396
 20
25.6522799222470894
 30
0.0
 11
217.2698533080755396
 21
31.6522799222470894
 31
0.0
  0
LINE
  5
8A
100
AcDbEntity
100
AcDbLine
  8
ALU
 62
256
370
-1
  6
ByLayer
 10
223.2698533080755396
 20
25.6522799222470894
 30
0.0
 11
223.2698533080755396
 21
31.6522799222470894
 31
0.0
  0
SPLINE
  5
8B
  8
ALU
 62
256
370
-1
  6
ByLayer
100
AcDbEntity
100
AcDbSpline
 70
8
 71
3
 72
24
 73
20
 74
0
 40
0.0
 40
0.0
 40
0.0
 40
0.0
 40
0.0588235294117647
 40
0.1176470588235294
 40
0.1764705882352941
 40
0.2352941176470588
 40
0.2941176470588235
 40
0.3529411764705883
 40
0.4117647058823529
 40
0.4705882352941176
 40
0.5294117647058824
 40
0.5882352941176471
 40
0.6470588235294118
 40
0.7058823529411765
 40
0.7647058823529411
 40
0.8235294117647058
 40
0.8823529411764706
 40
0.9411764705882353
 40
1.0
 40
1.0
 40
1.0
 40
1.0
 10
217.2698533080755396
 20
25.6522799222470894
 30
0.0
 10
217.2698533080755396
 20
25.4527487186553572
 30
0.0
 10
217.3161681229729538
 20
25.2514733173479726
 30
0.0
 10
217.5224232016474843
 20
24.8394463524718958
 30
0.0
 10
217.6848287153669617
 20
24.629517884597135
 30
0.0
 10
218.1339045248449793
 20
24.2441934431697064
 30
0.0
 10
218.420162645201458
 20
24.0702758385946254
 30
0.0
 10
219.0790474438421143
 20
23.8045787147329975
 30
0.0
 10
219.450963910039377
 20
23.7130861078996986
 30
0.0
 10
220.220031275969518
 20
23.6352280607520697
 30
0.0
 10
220.6167066043871046
 20
23.6488772040818276
 30
0.0
 10
221.369389359648153
 20
23.7780709073008438
 30
0.0
 10
221.7248833624063309
 20
23.8935780890608385
 30
0.0
 10
222.3382449493584545
 20
24.1976993025882621
 30
0.0
 10
222.5953441331997738
 20
24.3858290533330546
 30
0.0
 10
222.9826505141880943
 20
24.7863295844060758
 30
0.0
 10
223.1129454691366618
 20
24.9969020399853434
 30
0.0
 10
223.2437500191446134
 20
25.3536736624369041
 30
0.0
 10
223.2698533080755396
 20
25.5032002989851208
 30
0.0
 10
223.2698533080755396
 20
25.6522799222470894
 30
0.0
  0
SPLINE
  5
8C
  8
ALU
 62
256
370
-1
  6
ByLayer
100
AcDbEntity
100
AcDbSpline
 70
8
 71
3
 72
24
 73
20
 74
0
 40
0.0
 40
0.0
 40
0.0
 40
0.0
 40
0.0588235294117647
 40
0.1176470588235294
 40
0.1764705882352941
 40
0.2352941176470588
 40
0.2941176470588235
 40
0.3529411764705883
 40
0.4117647058823529
 40
0.4705882352941176
 40
0.5294117647058824
 40
0.5882352941176471
 40
0.6470588235294118
 40
0.7058823529411765
 40
0.7647058823529411
 40
0.8235294117647058
 40
0.8823529411764706
 40
0.9411764705882353
 40
1.0
 40
1.0
 40
1.0
 40
1.0
 10
223.2698533080755396
 20
31.6522799222470894
 30
0.0
 10
223.2698533080755396
 20
31.8518111258385943
 30
0.0
 10
223.2235384931783528
 20
32.0530865271462062
 30
0.0
 10
223.0172834145038223
 20
32.4651134920218283
 30
0.0
 10
222.8548779007841176
 20
32.6750419598970439
 30
0.0
 10
222.4058020913061
 20
33.0603664013240177
 30
0.0
 10
222.1195439709496213
 20
33.2342840058993261
 30
0.0
 10
221.460659172308965
 20
33.4999811297611814
 30
0.0
 10
221.0887427061114749
 20
33.5914737365942528
 30
0.0
 10
220.3196753401813339
 20
33.6693317837418817
 30
0.0
 10
219.92300001176352
 20
33.6556826404121239
 30
0.0
 10
219.1703172565020168
 20
33.5264889371931076
 30
0.0
 10
218.814823253744521
 20
33.410981755433113
 30
0.0
 10
218.2014616667923974
 20
33.106860541905462
 30
0.0
 10
217.9443624829513055
 20
32.9187307911604421
 30
0.0
 10
217.5570561019627576
 20
32.5182302600874209
 30
0.0
 10
217.4267611470141901
 20
32.3076578045083807
 30
0.0
 10
217.2959565970062386
 20
31.95088618205682
 30
0.0
 10
217.2698533080755396
 20
31.8013595455088307
 30
0.0
 10
217.2698533080755396
 20
31.6522799222470894
 30
0.0
  0
LINE
  5
8D
100
AcDbEntity
100
AcDbLine
  8
ALU
 62
256
370
-1
  6
ByLayer
 10
220.269853308075767
 20
70.6522799222461799
 30
0.0
 11
220.269853308075767
 21
76.6522799222461799
 31
0.0
  0
LINE
  5
8E
100
AcDbEntity
100
AcDbLine
  8
ALU
 62
256
370
-1
  6
ByLayer
 10
226.2698533080759944
 20
70.6522799222461799
 30
0.0
 11
226.2698533080759944
 21
76.6522799222461799
 31
0.0
  0
SPLINE
  5
8F
  8
ALU
 62
256
370
-1
  6
ByLayer
100
AcDbEntity
100
AcDbSpline
 70
8
 71
3
 72
24
 73
20
 74
0
 40
0.0
 40
0.0
 40
0.0
 40
0.0
 40
0.0588235294117647
 40
0.1176470588235294
 40
0.1764705882352941
 40
0.2352941176470588
 40
0.2941176470588235
 40
0.3529411764705883
 40
0.4117647058823529
 40
0.4705882352941176
 40
0.5294117647058824
 40
0.5882352941176471
 40
0.6470588235294118
 40
0.7058823529411765
 40
0.7647058823529411
 40
0.8235294117647058
 40
0.8823529411764706
 40
0.9411764705882353
 40
1.0
 40
1.0
 40
1.0
 40
1.0
 10
220.269853308075767
 20
70.6522799222461799
 30
0.0
 10
220.269853308075767
 20
70.4527487186555845
 30
0.0
 10
220.3161681229729538
 20
70.2514733173475179
 30
0.0
 10
220.5224232016474843
 20
69.8394463524714411
 30
0.0
 10
220.684828715367189
 20
69.6295178845962255
 30
0.0
 10
221.1339045248449793
 20
69.244193443169479
 30
0.0
 10
221.420162645201458
 20
69.070275838594398
 30
0.0
 10
222.0790474438421143
 20
68.8045787147334522
 30
0.0
 10
222.4509639100391496
 20
68.7130861078994712
 30
0.0
 10
223.220031275969518
 20
68.6352280607513876
 30
0.0
 10
223.6167066043871046
 20
68.6488772040813728
 30
0.0
 10
224.3693893596483804
 20
68.7780709073003891
 30
0.0
 10
224.7248833624061035
 20
68.8935780890603837
 30
0.0
 10
225.3382449493582271
 20
69.1976993025873526
 30
0.0
 10
225.5953441331997738
 20
69.3858290533335094
 30
0.0
 10
225.9826505141880943
 20
69.7863295844063032
 30
0.0
 10
226.1129454691368892
 20
69.9969020399853434
 30
0.0
 10
226.2437500191446134
 20
70.3536736624364494
 30
0.0
 10
226.2698533080759944
 20
70.5032002989842113
 30
0.0
 10
226.2698533080759944
 20
70.6522799222461799
 30
0.0
  0
SPLINE
  5
90
  8
ALU
 62
256
370
-1
  6
ByLayer
100
AcDbEntity
100
AcDbSpline
 70
8
 71
3
 72
24
 73
20
 74
0
 40
0.0
 40
0.0
 40
0.0
 40
0.0
 40
0.0588235294117647
 40
0.1176470588235294
 40
0.1764705882352941
 40
0.2352941176470588
 40
0.2941176470588235
 40
0.3529411764705883
 40
0.4117647058823529
 40
0.4705882352941176
 40
0.5294117647058824
 40
0.5882352941176471
 40
0.6470588235294118
 40
0.7058823529411765
 40
0.7647058823529411
 40
0.8235294117647058
 40
0.8823529411764706
 40
0.9411764705882353
 40
1.0
 40
1.0
 40
1.0
 40
1.0
 10
226.2698533080759944
 20
76.6522799222461799
 30
0.0
 10
226.2698533080759944
 20
76.8518111258385943
 30
0.0
 10
226.2235384931781255
 20
77.0530865271462062
 30
0.0
 10
226.0172834145035949
 20
77.4651134920213735
 30
0.0
 10
225.8548779007838903
 20
77.6750419598961344
 30
0.0
 10
225.4058020913061
 20
78.0603664013233356
 30
0.0
 10
225.119543970949394
 20
78.2342840058995534
 30
0.0
 10
224.460659172308965
 20
78.4999811297602719
 30
0.0
 10
224.0887427061114749
 20
78.5914737365942528
 30
0.0
 10
223.3196753401811065
 20
78.6693317837411996
 30
0.0
 10
222.92300001176352
 20
78.6556826404116691
 30
0.0
 10
222.1703172565022442
 20
78.526488937193335
 30
0.0
 10
221.8148232537447484
 20
78.4109817554322035
 30
0.0
 10
221.2014616667923974
 20
78.106860541905462
 30
0.0
 10
220.9443624829510782
 20
77.9187307911602147
 30
0.0
 10
220.5570561019625302
 20
77.5182302600874209
 30
0.0
 10
220.4267611470141901
 20
77.3076578045083807
 30
0.0
 10
220.2959565970064659
 20
76.9508861820563652
 30
0.0
 10
220.269853308075767
 20
76.8013595455081486
 30
0.0
 10
220.269853308075767
 20
76.6522799222461799
 30
0.0
  0
ENDBLK
  5
91
100
AcDbEntity
  8
0
100
AcDbBlockEnd
  0
ENDSEC
  0
SECTION
  2
ENTITIES
  0
INSERT
  5
92
100
AcDbEntity
100
AcDbBlockReference
  8
ALU
 62
256
370
-1
  6
ByLayer
  2
alus
 10
100.0
 20
0.0
 30
0.0
  0
ENDSEC
  0
SECTION
  2
OBJECTS
  0
DICTIONARY
  5
C
100
AcDbDictionary
280
0
281
1
  3
ACAD_GROUP
350
D
  3
ACAD_LAYOUT
350
1A
  3
ACAD_MLINESTYLE
350
17
  3
ACAD_PLOTSETTINGS
350
19
  3
ACAD_PLOTSTYLENAME
350
E
  3
AcDbVariableDictionary
350
93
  0
DICTIONARY
  5
D
100
AcDbDictionary
280
0
281
1
  0
ACDBDICTIONARYWDFLT
  5
E
100
AcDbDictionary
281
1
  3
Normal
350
F
100
AcDbDictionaryWithDefault
340
F
  0
ACDBPLACEHOLDER
  5
F
  0
DICTIONARY
  5
17
100
AcDbDictionary
280
0
281
1
  3
Standard
350
18
  0
MLINESTYLE
  5
18
100
AcDbMlineStyle
  2
STANDARD
 70
0
  3

 62
256
 51
90.0
 52
90.0
 71
2
 49
0.5
 62
256
  6
BYLAYER
 49
-0.5
 62
256
  6
BYLAYER
  0
DICTIONARY
  5
19
100
AcDbDictionary
280
0
281
1
  0
DICTIONARY
  5
1A
100
AcDbDictionary
281
1
  3
Layout1
350
1E
  3
Layout2
350
26
  3
Model
350
22
  0
LAYOUT
  5
1E
100
AcDbPlotSettings
  1

  2
C:\Program Files\AutoCAD 2002\plotters\DWF ePlot (optimized for plotting).pc3
  4

  6

 40
0.0
 41
0.0
 42
0.0
 43
0.0
 44
0.0
 45
0.0
 46
0.0
 47
0.0
 48
0.0
 49
0.0
140
0.0
141
0.0
142
1.0
143
1.0
 70
688
 72
0
 73
0
 74
5
  7

 75
16
147
1.0
148
0.0
149
0.0
100
AcDbLayout
  1
Layout1
 70
1
 71
1
 10
0.0
 20
0.0
 11
420.0
 21
297.0
 12
0.0
 22
0.0
 32
0.0
 14
100000000000000000000.0
 24
100000000000000000000.0
 34
100000000000000000000.0
 15
-100000000000000000000.0
 25
-100000000000000000000.0
 35
-100000000000000000000.0
146
0.0
 13
0.0
 23
0.0
 33
0.0
 16
1.0
 26
0.0
 36
0.0
 17
0.0
 27
1.0
 37
0.0
 76
0
330
1B
  0
LAYOUT
  5
22
100
AcDbPlotSettings
  1

  2
C:\Program Files\AutoCAD 2002\plotters\DWF ePlot (optimized for plotting).pc3
  4

  6

 40
0.0
 41
0.0
 42
0.0
 43
0.0
 44
0.0
 45
0.0
 46
0.0
 47
0.0
 48
0.0
 49
0.0
140
0.0
141
0.0
142
1.0
143
1.0
 70
1712
 72
0
 73
0
 74
0
  7

 75
0
147
1.0
148
0.0
149
0.0
100
AcDbLayout
  1
Model
 70
1
 71
0
 10
0.0
 20
0.0
 11
12.0
 21
9.0
 12
0.0
 22
0.0
 32
0.0
 14
0.0
 24
0.0
 34
0.0
 15
0.0
 25
0.0
 35
0.0
146
0.0
 13
0.0
 23
0.0
 33
0.0
 16
1.0
 26
0.0
 36
0.0
 17
0.0
 27
1.0
 37
0.0
 76
0
330
1F
  0
LAYOUT
  5
26
100
AcDbPlotSettings
  1

  2
C:\Program Files\AutoCAD 2002\plotters\DWF ePlot (optimized for plotting).pc3
  4

  6

 40
0.0
 41
0.0
 42
0.0
 43
0.0
 44
0.0
 45
0.0
 46
0.0
 47
0.0
 48
0.0
 49
0.0
140
0.0
141
0.0
142
1.0
143
1.0
 70
688
 72
0
 73
0
 74
5
  7

 75
16
147
1.0
148
0.0
149
0.0
100
AcDbLayout
  1
Layout2
 70
1
 71
2
 10
0.0
 20
0.0
 11
12.0
 21
9.0
 12
0.0
 22
0.0
 32
0.0
 14
0.0
 24
0.0
 34
0.0
 15
0.0
 25
0.0
 35
0.0
146
0.0
 13
0.0
 23
0.0
 33
0.0
 16
1.0
 26
0.0
 36
0.0
 17
0.0
 27
1.0
 37
0.0
 76
0
330
23
  0
DICTIONARY
  5
93
100
AcDbDictionary
281
1
  3
DIMASSOC
350
95
  3
HIDETEXT
350
94
  0
DICTIONARYVAR
  5
94
100
DictionaryVariables
280
0
  1
2
  0
DICTIONARYVAR
  5
95
100
DictionaryVariables
280
0
  1
1
  0
ENDSEC
  0
EOF
